SplineFontDB: 3.2
FontName: liberation_monoregular
FullName: liberation_monoregular
FamilyName: Liberation Binary
Weight: Regular
ItalicAngle: 0
UnderlinePosition: 0
UnderlineWidth: 0
Ascent: 1638
Descent: 410
InvalidEm: 0
LayerCount: 2
Layer: 0 1 "Back" 1
Layer: 1 1 "Fore" 0
HasVMetrics: 1
XUID: [1021 341 1024948303 10404929]
OS2Version: 0
OS2_WeightWidthSlopeOnly: 0
OS2_UseTypoMetrics: 0
CreationTime: 1725750905
ModificationTime: 1725838574
PfmFamily: 17
TTFWeight: 400
TTFWidth: 5
LineGap: 184
VLineGap: 184
OS2TypoAscent: 0
OS2TypoAOffset: 1
OS2TypoDescent: 0
OS2TypoDOffset: 1
OS2TypoLinegap: 184
OS2WinAscent: 0
OS2WinAOffset: 1
OS2WinDescent: 0
OS2WinDOffset: 1
HheadAscent: 0
HheadAOffset: 1
HheadDescent: 0
HheadDOffset: 1
OS2Vendor: 'PfEd'
DEI: 91125
Encoding: Custom
UnicodeInterp: none
NameList: AGL For New Fonts
DisplaySize: -48
AntiAlias: 1
FitToEm: 0
WinInfo: 0 16 19
BeginChars: 260 248

StartChar: exclam
Encoding: 3 33 3
Width: 1229
VWidth: 1024
LayerCount: 2
Fore
SplineSet
515 0 m 1
 515 201 l 1
 709 201 l 1
 709 0 l 1
 515 0 l 1
517 1348 m 1
 713 1348 l 1
 689 397 l 1
 541 397 l 1
 517 1348 l 1
EndSplineSet
Validated: 1
EndChar

StartChar: quotedbl
Encoding: 4 34 4
Width: 1229
VWidth: 1024
LayerCount: 2
Fore
SplineSet
277 1484 m 1
 501 1484 l 1
 459 845 l 1
 318 845 l 1
 277 1484 l 1
726 1484 m 1
 950 1484 l 1
 908 845 l 1
 766 845 l 1
 726 1484 l 1
EndSplineSet
Validated: 1
EndChar

StartChar: numbersign
Encoding: 5 35 5
Width: 1229
VWidth: 1024
LayerCount: 2
Fore
SplineSet
54 408 m 1
 54 516 l 1
 279 516 l 1
 346 833 l 1
 105 833 l 1
 105 941 l 1
 368 941 l 1
 457 1349 l 1
 567 1349 l 1
 479 941 l 1
 842 941 l 1
 930 1349 l 1
 1040 1349 l 1
 952 941 l 1
 1163 941 l 1
 1163 833 l 1
 930 833 l 1
 863 516 l 1
 1123 516 l 1
 1123 408 l 1
 840 408 l 1
 752 0 l 1
 642 0 l 1
 728 408 l 1
 365 408 l 1
 281 0 l 1
 171 0 l 1
 255 408 l 1
 54 408 l 1
390 516 m 1
 752 516 l 1
 819 833 l 1
 459 833 l 1
 390 516 l 1
EndSplineSet
Validated: 1
EndChar

StartChar: dollar
Encoding: 6 36 6
Width: 1229
VWidth: 1024
LayerCount: 2
Fore
SplineSet
66 379 m 1
 236 416 l 1
 247 362 247 362 269.5 316.5 c 0
 292 271 292 271 330.5 237 c 0
 369 203 369 203 425 182.5 c 0
 481 162 481 162 558 158 c 1
 558 647 l 1
 550 649 550 649 543 651 c 0
 539 652 539 652 533 654 c 0
 530 655 530 655 528 655 c 0
 479 667 479 667 430 681.5 c 0
 381 696 381 696 337 715.5 c 0
 293 735 293 735 255 762.5 c 0
 217 790 217 790 189 826.5 c 0
 161 863 161 863 145.5 911.5 c 0
 130 960 130 960 130 1023 c 0
 130 1105 130 1105 162 1164.5 c 0
 194 1224 194 1224 251 1263.5 c 0
 308 1303 308 1303 386.5 1323 c 0
 465 1343 465 1343 558 1346 c 1
 558 1476 l 1
 686 1476 l 1
 686 1346 l 1
 788 1342 788 1342 860.5 1320 c 0
 933 1298 933 1298 984 1258 c 0
 1035 1218 1035 1218 1067 1159.5 c 0
 1099 1101 1099 1101 1119 1025 c 1
 945 992 l 1
 935 1040 935 1040 915.5 1079.5 c 0
 896 1119 896 1119 864.5 1147.5 c 0
 833 1176 833 1176 789 1192.5 c 0
 745 1209 745 1209 686 1213 c 1
 686 787 l 1
 744 773 744 773 801 757.5 c 0
 858 742 858 742 909.5 720.5 c 0
 961 699 961 699 1005 670 c 0
 1049 641 1049 641 1081.5 600.5 c 0
 1114 560 1114 560 1132 506 c 0
 1150 452 1150 452 1150 380 c 0
 1150 305 1150 305 1122 241 c 0
 1094 177 1094 177 1037 129.5 c 0
 980 82 980 82 892.5 53.5 c 0
 805 25 805 25 686 20 c 1
 686 -141 l 1
 558 -141 l 1
 558 20 l 1
 343 27 343 27 221.5 119.5 c 0
 100 212 100 212 66 379 c 1
302 1018 m 0
 302 964 302 964 322 928.5 c 0
 342 893 342 893 376.5 869.5 c 0
 411 846 411 846 457.5 831 c 0
 504 816 504 816 558 802 c 1
 558 1215 l 1
 487 1212 487 1212 438 1195.5 c 0
 389 1179 389 1179 359 1152.5 c 0
 329 1126 329 1126 315.5 1091.5 c 0
 302 1057 302 1057 302 1018 c 0
686 156 m 1
 751 160 751 160 804.5 175 c 0
 858 190 858 190 896.5 218 c 0
 935 246 935 246 956.5 287 c 0
 978 328 978 328 978 383 c 0
 978 446 978 446 954 486.5 c 0
 930 527 930 527 890 553 c 0
 850 579 850 579 797 595.5 c 0
 744 612 744 612 686 627 c 1
 686 156 l 1
EndSplineSet
Validated: 1
EndChar

StartChar: percent
Encoding: 7 37 7
Width: 1229
VWidth: 1024
LayerCount: 2
Fore
SplineSet
0 1025 m 0
 0 1124 0 1124 22.5 1188.5 c 0
 45 1253 45 1253 84 1291.5 c 0
 123 1330 123 1330 176 1345.5 c 0
 229 1361 229 1361 291 1361 c 0
 349 1361 349 1361 400.5 1345.5 c 0
 452 1330 452 1330 490.5 1291.5 c 0
 529 1253 529 1253 551.5 1188.5 c 0
 574 1124 574 1124 574 1025 c 0
 574 929 574 929 551.5 864 c 0
 529 799 529 799 490 759 c 0
 451 719 451 719 399 701.5 c 0
 347 684 347 684 287 684 c 0
 227 684 227 684 174.5 701.5 c 0
 122 719 122 719 83 758.5 c 0
 44 798 44 798 22 863.5 c 0
 0 929 0 929 0 1025 c 0
76 0 m 1
 1008 1353 l 1
 1155 1353 l 1
 221 0 l 1
 76 0 l 1
147 1025 m 0
 147 961 147 961 156.5 917.5 c 0
 166 874 166 874 184 847 c 0
 202 820 202 820 228.5 808.5 c 0
 255 797 255 797 289 797 c 0
 321 797 321 797 346.5 808.5 c 0
 372 820 372 820 390 847 c 0
 408 874 408 874 417.5 917.5 c 0
 427 961 427 961 427 1025 c 0
 427 1091 427 1091 418 1135 c 0
 409 1179 409 1179 391.5 1205.5 c 0
 374 1232 374 1232 348.5 1242.5 c 0
 323 1253 323 1253 290 1253 c 0
 255 1253 255 1253 228 1242 c 0
 201 1231 201 1231 183 1204.5 c 0
 165 1178 165 1178 156 1134.5 c 0
 147 1091 147 1091 147 1025 c 0
656 329 m 0
 656 428 656 428 678.5 492.5 c 0
 701 557 701 557 740 595.5 c 0
 779 634 779 634 832 649.5 c 0
 885 665 885 665 947 665 c 0
 1005 665 1005 665 1056.5 649.5 c 0
 1108 634 1108 634 1146.5 595.5 c 0
 1185 557 1185 557 1207.5 492.5 c 0
 1230 428 1230 428 1230 329 c 0
 1230 233 1230 233 1207.5 168 c 0
 1185 103 1185 103 1146 63 c 0
 1107 23 1107 23 1055 5.5 c 0
 1003 -12 1003 -12 943 -12 c 0
 883 -12 883 -12 830.5 5.5 c 0
 778 23 778 23 739 62.5 c 0
 700 102 700 102 678 167.5 c 0
 656 233 656 233 656 329 c 0
803 329 m 0
 803 265 803 265 812.5 221.5 c 0
 822 178 822 178 840 151 c 0
 858 124 858 124 884.5 112.5 c 0
 911 101 911 101 945 101 c 0
 977 101 977 101 1002.5 112.5 c 0
 1028 124 1028 124 1046 151 c 0
 1064 178 1064 178 1073.5 221.5 c 0
 1083 265 1083 265 1083 329 c 0
 1083 395 1083 395 1074 439 c 0
 1065 483 1065 483 1047.5 509.5 c 0
 1030 536 1030 536 1004.5 546.5 c 0
 979 557 979 557 946 557 c 0
 911 557 911 557 884 546 c 0
 857 535 857 535 839 508.5 c 0
 821 482 821 482 812 438.5 c 0
 803 395 803 395 803 329 c 0
EndSplineSet
Validated: 1
EndChar

StartChar: ampersand
Encoding: 8 38 8
Width: 1229
VWidth: 1024
LayerCount: 2
Fore
SplineSet
43 358 m 0
 43 435 43 435 65.5 498 c 0
 88 561 88 561 127 612.5 c 0
 166 664 166 664 219.5 704.5 c 0
 273 745 273 745 335 777 c 1
 320 805 320 805 306.5 839 c 0
 293 873 293 873 282.5 909.5 c 0
 272 946 272 946 266 984 c 0
 260 1022 260 1022 260 1059 c 0
 260 1121 260 1121 281.5 1175.5 c 0
 303 1230 303 1230 346.5 1270.5 c 0
 390 1311 390 1311 456 1334 c 0
 522 1357 522 1357 611 1357 c 0
 680 1357 680 1357 739 1339.5 c 0
 798 1322 798 1322 841 1288 c 0
 884 1254 884 1254 908 1204 c 0
 932 1154 932 1154 932 1090 c 0
 932 1019 932 1019 898 965 c 0
 864 911 864 911 807 868 c 0
 750 825 750 825 676.5 790 c 0
 603 755 603 755 525 722 c 1
 556 668 556 668 587 618 c 0
 618 568 618 568 652 520 c 0
 686 472 686 472 723 425.5 c 0
 760 379 760 379 802 333 c 1
 844 420 844 420 875.5 519 c 0
 907 618 907 618 927 739 c 1
 1072 696 l 1
 1046 557 1046 557 1002.5 442.5 c 0
 959 328 959 328 910 234 c 1
 953 180 953 180 1001.5 154.5 c 0
 1050 129 1050 129 1090 129 c 0
 1116 129 1116 129 1140 132.5 c 0
 1164 136 1164 136 1185 145 c 1
 1185 10 l 1
 1161 -1 1161 -1 1133 -6.5 c 0
 1105 -12 1105 -12 1072 -12 c 0
 1031 -12 1031 -12 993 -1.5 c 0
 955 9 955 9 921.5 26.5 c 0
 888 44 888 44 859 67.5 c 0
 830 91 830 91 808 117 c 1
 780 92 780 92 744.5 67 c 0
 709 42 709 42 666 23 c 0
 623 4 623 4 571.5 -8 c 0
 520 -20 520 -20 461 -20 c 0
 352 -20 352 -20 273 9 c 0
 194 38 194 38 143 89 c 0
 92 140 92 140 67.5 209 c 0
 43 278 43 278 43 358 c 0
211 362 m 0
 211 310 211 310 227 264 c 0
 243 218 243 218 275 184 c 0
 307 150 307 150 355.5 130.5 c 0
 404 111 404 111 469 111 c 0
 508 111 508 111 543.5 120.5 c 0
 579 130 579 130 609 145 c 0
 639 160 639 160 663.5 179 c 0
 688 198 688 198 706 217 c 1
 617 317 617 317 536.5 429.5 c 0
 456 542 456 542 390 658 c 1
 305 612 305 612 258 537.5 c 0
 211 463 211 463 211 362 c 0
408 1056 m 0
 408 991 408 991 427 933 c 0
 446 875 446 875 469 832 c 1
 533 859 533 859 589.5 884 c 0
 646 909 646 909 688.5 938 c 0
 731 967 731 967 755.5 1002.5 c 0
 780 1038 780 1038 780 1085 c 0
 780 1119 780 1119 768 1147 c 0
 756 1175 756 1175 733.5 1194.5 c 0
 711 1214 711 1214 679 1225 c 0
 647 1236 647 1236 608 1236 c 0
 564 1236 564 1236 527.5 1223.5 c 0
 491 1211 491 1211 464.5 1188 c 0
 438 1165 438 1165 423 1131.5 c 0
 408 1098 408 1098 408 1056 c 0
EndSplineSet
Validated: 1
EndChar

StartChar: quotesingle
Encoding: 9 39 9
Width: 1229
VWidth: 1024
LayerCount: 2
Fore
SplineSet
502 1484 m 1
 726 1484 l 1
 684 845 l 1
 543 845 l 1
 502 1484 l 1
EndSplineSet
Validated: 1
EndChar

StartChar: parenleft
Encoding: 10 40 10
Width: 1229
VWidth: 1024
LayerCount: 2
Fore
SplineSet
342 532 m 0
 342 676 342 676 363.5 800.5 c 0
 385 925 385 925 429.5 1039.5 c 0
 474 1154 474 1154 541.5 1262.5 c 0
 609 1371 609 1371 701 1484 c 1
 891 1484 l 1
 795 1366 795 1366 726.5 1253.5 c 0
 658 1141 658 1141 614 1026 c 0
 570 911 570 911 549.5 789 c 0
 529 667 529 667 529 530 c 0
 529 392 529 392 549.5 270 c 0
 570 148 570 148 614 33 c 0
 658 -82 658 -82 726.5 -194.5 c 0
 795 -307 795 -307 891 -425 c 1
 701 -425 l 1
 609 -312 609 -312 541.5 -202.5 c 0
 474 -93 474 -93 429.5 22 c 0
 385 137 385 137 363.5 262.5 c 0
 342 388 342 388 342 532 c 0
EndSplineSet
Validated: 1
EndChar

StartChar: parenright
Encoding: 11 41 11
Width: 1229
VWidth: 1024
LayerCount: 2
Fore
SplineSet
336 -425 m 1
 432 -307 432 -307 501 -194.5 c 0
 570 -82 570 -82 614 33 c 0
 658 148 658 148 679 270 c 0
 700 392 700 392 700 530 c 0
 700 667 700 667 679 789 c 0
 658 911 658 911 614 1026 c 0
 570 1141 570 1141 501 1253.5 c 0
 432 1366 432 1366 336 1484 c 1
 528 1484 l 1
 620 1371 620 1371 687.5 1262.5 c 0
 755 1154 755 1154 799 1039.5 c 0
 843 925 843 925 864 800.5 c 0
 885 676 885 676 885 532 c 0
 885 388 885 388 864 262.5 c 0
 843 137 843 137 799 22 c 0
 755 -93 755 -93 687.5 -202.5 c 0
 620 -312 620 -312 528 -425 c 1
 336 -425 l 1
EndSplineSet
Validated: 1
EndChar

StartChar: asterisk
Encoding: 12 42 12
Width: 1229
VWidth: 1024
LayerCount: 2
Fore
SplineSet
248 1159 m 1
 293 1293 l 1
 560 1186 l 1
 548 1483 l 1
 684 1483 l 1
 671 1188 l 1
 935 1291 l 1
 980 1159 l 1
 698 1086 l 1
 883 836 l 1
 764 764 l 1
 614 1022 l 1
 458 766 l 1
 339 838 l 1
 528 1086 l 1
 248 1159 l 1
EndSplineSet
Validated: 1
EndChar

StartChar: plus
Encoding: 13 43 13
Width: 1229
VWidth: 1024
LayerCount: 2
Fore
SplineSet
116 608 m 1
 116 754 l 1
 540 754 l 1
 540 1182 l 1
 687 1182 l 1
 687 754 l 1
 1111 754 l 1
 1111 608 l 1
 687 608 l 1
 687 180 l 1
 540 180 l 1
 540 608 l 1
 116 608 l 1
EndSplineSet
Validated: 1
EndChar

StartChar: comma
Encoding: 14 44 14
Width: 615
VWidth: 1024
Flags: W
LayerCount: 2
Fore
SplineSet
94 -363 m 1,0,-1
 263 299 l 1,1,-1
 528 299 l 1,2,-1
 217 -363 l 1,3,-1
 94 -363 l 1,0,-1
EndSplineSet
Validated: 1
EndChar

StartChar: period
Encoding: 15 46 15
Width: 614
VWidth: 1024
Flags: W
LayerCount: 2
Fore
SplineSet
186 0 m 5,0,-1
 186 299 l 5,1,-1
 421 299 l 5,2,-1
 421 0 l 5,3,-1
 186 0 l 5,0,-1
EndSplineSet
Validated: 1
EndChar

StartChar: slash
Encoding: 16 47 16
Width: 1229
VWidth: 1024
LayerCount: 2
Fore
SplineSet
114 -20 m 1
 935 1484 l 1
 1113 1484 l 1
 296 -20 l 1
 114 -20 l 1
EndSplineSet
Validated: 1
EndChar

StartChar: zero
Encoding: 17 48 17
Width: 1229
VWidth: 1024
LayerCount: 2
Fore
SplineSet
124 675 m 0
 124 879 124 879 161.5 1013 c 0
 199 1147 199 1147 265 1226.5 c 0
 331 1306 331 1306 421 1338 c 0
 511 1370 511 1370 617 1370 c 0
 718 1370 718 1370 806.5 1338 c 0
 895 1306 895 1306 961 1226.5 c 0
 1027 1147 1027 1147 1065 1013 c 0
 1103 879 1103 879 1103 675 c 0
 1103 480 1103 480 1064.5 347.5 c 0
 1026 215 1026 215 959.5 133 c 0
 893 51 893 51 803 15.5 c 0
 713 -20 713 -20 611 -20 c 0
 508 -20 508 -20 419 15.5 c 0
 330 51 330 51 264.5 132.5 c 0
 199 214 199 214 161.5 347 c 0
 124 480 124 480 124 675 c 0
306 675 m 0
 306 521 306 521 326.5 416 c 0
 347 311 347 311 386.5 247 c 0
 426 183 426 183 483 155 c 0
 540 127 540 127 613 127 c 0
 684 127 684 127 741 155 c 0
 798 183 798 183 837.5 247 c 0
 877 311 877 311 898.5 416 c 0
 920 521 920 521 920 675 c 0
 920 834 920 834 900 940 c 0
 880 1046 880 1046 841 1109 c 0
 802 1172 802 1172 745.5 1198 c 0
 689 1224 689 1224 617 1224 c 0
 541 1224 541 1224 483 1197.5 c 0
 425 1171 425 1171 385.5 1108 c 0
 346 1045 346 1045 326 939.5 c 0
 306 834 306 834 306 675 c 0
496 555 m 1
 496 804 l 1
 731 804 l 1
 731 555 l 1
 496 555 l 1
EndSplineSet
Validated: 1
EndChar

StartChar: one
Encoding: 18 49 18
Width: 1229
VWidth: 1024
LayerCount: 2
Fore
SplineSet
148 972 m 1
 148 1120 l 1
 222 1120 222 1120 293.5 1137 c 0
 365 1154 365 1154 427 1184.5 c 0
 489 1215 489 1215 537 1257 c 0
 585 1299 585 1299 611 1349 c 1
 777 1349 l 1
 777 145 l 1
 1130 145 l 1
 1130 0 l 1
 157 0 l 1
 157 145 l 1
 596 145 l 1
 596 1166 l 1
 577 1126 577 1126 529 1090.5 c 0
 481 1055 481 1055 418.5 1029 c 0
 356 1003 356 1003 285 987.5 c 0
 214 972 214 972 148 972 c 1
EndSplineSet
Validated: 1
EndChar

StartChar: two
Encoding: 19 50 19
Width: 1229
VWidth: 1024
LayerCount: 2
Fore
SplineSet
144 0 m 1
 144 117 l 1
 188 214 188 214 260 296 c 0
 332 378 332 378 413.5 450.5 c 0
 495 523 495 523 577.5 589 c 0
 660 655 660 655 726.5 719.5 c 0
 793 784 793 784 835 850.5 c 0
 877 917 877 917 877 991 c 0
 877 1051 877 1051 857.5 1094.5 c 0
 838 1138 838 1138 802.5 1166.5 c 0
 767 1195 767 1195 718.5 1208.5 c 0
 670 1222 670 1222 611 1222 c 0
 557 1222 557 1222 510.5 1207 c 0
 464 1192 464 1192 429 1162 c 0
 394 1132 394 1132 372 1087.5 c 0
 350 1043 350 1043 343 984 c 1
 159 1001 l 1
 168 1077 168 1077 200 1144 c 0
 232 1211 232 1211 287.5 1261.5 c 0
 343 1312 343 1312 424 1341 c 0
 505 1370 505 1370 611 1370 c 0
 716 1370 716 1370 799.5 1346 c 0
 883 1322 883 1322 941.5 1275.5 c 0
 1000 1229 1000 1229 1031 1160 c 0
 1062 1091 1062 1091 1062 1002 c 0
 1062 908 1062 908 1019 827.5 c 0
 976 747 976 747 908.5 675 c 0
 841 603 841 603 759 538 c 0
 677 473 677 473 599 409 c 0
 521 345 521 345 457 280.5 c 0
 393 216 393 216 361 146 c 1
 1084 146 l 1
 1084 0 l 1
 144 0 l 1
EndSplineSet
Validated: 1
EndChar

StartChar: three
Encoding: 20 51 20
Width: 1229
VWidth: 1024
LayerCount: 2
Fore
SplineSet
128 362 m 1
 314 379 l 1
 322 323 322 323 343.5 277 c 0
 365 231 365 231 402 198 c 0
 439 165 439 165 493.5 147 c 0
 548 129 548 129 621 129 c 0
 757 129 757 129 834.5 192 c 0
 912 255 912 255 912 376 c 0
 912 444 912 444 877.5 489 c 0
 843 534 843 534 791.5 560.5 c 0
 740 587 740 587 679.5 598 c 0
 619 609 619 609 568 609 c 2
 466 609 l 1
 466 765 l 1
 564 765 l 2
 615 765 615 765 670 777.5 c 0
 725 790 725 790 770.5 817.5 c 0
 816 845 816 845 845.5 889.5 c 0
 875 934 875 934 875 997 c 0
 875 1103 875 1103 808.5 1162.5 c 0
 742 1222 742 1222 611 1222 c 0
 492 1222 492 1222 418.5 1161 c 0
 345 1100 345 1100 333 989 c 1
 152 1003 l 1
 163 1096 163 1096 203 1165 c 0
 243 1234 243 1234 304.5 1279.5 c 0
 366 1325 366 1325 445 1347.5 c 0
 524 1370 524 1370 613 1370 c 0
 732 1370 732 1370 816.5 1342 c 0
 901 1314 901 1314 955 1266 c 0
 1009 1218 1009 1218 1034.5 1153.5 c 0
 1060 1089 1060 1089 1060 1016 c 0
 1060 961 1060 961 1041.5 909.5 c 0
 1023 858 1023 858 986.5 815 c 0
 950 772 950 772 894.5 740 c 0
 839 708 839 708 765 693 c 1
 765 689 l 1
 847 680 847 680 909.5 650 c 0
 972 620 972 620 1014 576.5 c 0
 1056 533 1056 533 1077.5 480 c 0
 1099 427 1099 427 1099 370 c 0
 1099 279 1099 279 1067.5 206.5 c 0
 1036 134 1036 134 975.5 84 c 0
 915 34 915 34 826 7 c 0
 737 -20 737 -20 621 -20 c 0
 491 -20 491 -20 401 12.5 c 0
 311 45 311 45 253 98.5 c 0
 195 152 195 152 166 220.5 c 0
 137 289 137 289 128 362 c 1
EndSplineSet
Validated: 1
EndChar

StartChar: four
Encoding: 21 52 21
Width: 1229
VWidth: 1024
LayerCount: 2
Fore
SplineSet
103 319 m 1
 103 459 l 1
 738 1349 l 1
 937 1349 l 1
 937 461 l 1
 1125 461 l 1
 1125 319 l 1
 937 319 l 1
 937 0 l 1
 757 0 l 1
 757 319 l 1
 103 319 l 1
257 461 m 1
 757 461 l 1
 757 1154 l 1
 257 461 l 1
EndSplineSet
Validated: 1
EndChar

StartChar: five
Encoding: 22 53 22
Width: 1229
VWidth: 1024
LayerCount: 2
Fore
SplineSet
128 315 m 1
 310 336 l 1
 321 296 321 296 341 258.5 c 0
 361 221 361 221 395.5 191.5 c 0
 430 162 430 162 480.5 144.5 c 0
 531 127 531 127 603 127 c 0
 673 127 673 127 730 148.5 c 0
 787 170 787 170 827.5 210 c 0
 868 250 868 250 890 308.5 c 0
 912 367 912 367 912 440 c 0
 912 500 912 500 891 551.5 c 0
 870 603 870 603 831 641 c 0
 792 679 792 679 735.5 700.5 c 0
 679 722 679 722 607 722 c 0
 562 722 562 722 524 714 c 0
 486 706 486 706 453.5 692 c 0
 421 678 421 678 394.5 659.5 c 0
 368 641 368 641 345 621 c 1
 169 621 l 1
 216 1349 l 1
 1017 1349 l 1
 1017 1204 l 1
 382 1204 l 1
 353 779 l 1
 401 816 401 816 473 842.5 c 0
 545 869 545 869 644 869 c 0
 749 869 749 869 833 837 c 0
 917 805 917 805 976 748.5 c 0
 1035 692 1035 692 1067 614 c 0
 1099 536 1099 536 1099 444 c 0
 1099 344 1099 344 1067 258.5 c 0
 1035 173 1035 173 972 111.5 c 0
 909 50 909 50 815.5 15 c 0
 722 -20 722 -20 599 -20 c 0
 488 -20 488 -20 405.5 6 c 0
 323 32 323 32 266 77.5 c 0
 209 123 209 123 175.5 184 c 0
 142 245 142 245 128 315 c 1
EndSplineSet
Validated: 1
EndChar

StartChar: six
Encoding: 23 54 23
Width: 1229
VWidth: 1024
LayerCount: 2
Fore
SplineSet
151 642 m 0
 151 819 151 819 185.5 955 c 0
 220 1091 220 1091 285 1183 c 0
 350 1275 350 1275 443.5 1322.5 c 0
 537 1370 537 1370 655 1370 c 0
 727 1370 727 1370 790 1355 c 0
 853 1340 853 1340 904.5 1306.5 c 0
 956 1273 956 1273 995 1218 c 0
 1034 1163 1034 1163 1057 1083 c 1
 885 1052 l 1
 857 1143 857 1143 795.5 1183.5 c 0
 734 1224 734 1224 653 1224 c 0
 579 1224 579 1224 519 1189.5 c 0
 459 1155 459 1155 417 1088 c 0
 375 1021 375 1021 352.5 922.5 c 0
 330 824 330 824 330 695 c 1
 379 786 379 786 468 833.5 c 0
 557 881 557 881 672 881 c 0
 768 881 768 881 846.5 850 c 0
 925 819 925 819 980.5 762 c 0
 1036 705 1036 705 1066 625 c 0
 1096 545 1096 545 1096 446 c 0
 1096 346 1096 346 1066.5 260.5 c 0
 1037 175 1037 175 979.5 112.5 c 0
 922 50 922 50 837 15 c 0
 752 -20 752 -20 641 -20 c 0
 518 -20 518 -20 426 26.5 c 0
 334 73 334 73 273 159 c 0
 212 245 212 245 181.5 367.5 c 0
 151 490 151 490 151 642 c 0
348 481 m 0
 348 409 348 409 368 344.5 c 0
 388 280 388 280 425.5 231 c 0
 463 182 463 182 516 153.5 c 0
 569 125 569 125 635 125 c 0
 700 125 700 125 751.5 147.5 c 0
 803 170 803 170 839 211 c 0
 875 252 875 252 894 310 c 0
 913 368 913 368 913 438 c 0
 913 505 913 505 895 561 c 0
 877 617 877 617 841 657 c 0
 805 697 805 697 752 719.5 c 0
 699 742 699 742 629 742 c 0
 580 742 580 742 530 725.5 c 0
 480 709 480 709 439.5 676.5 c 0
 399 644 399 644 373.5 595 c 0
 348 546 348 546 348 481 c 0
EndSplineSet
Validated: 1
EndChar

StartChar: seven
Encoding: 24 55 24
Width: 1229
VWidth: 1024
LayerCount: 2
Fore
SplineSet
158 1204 m 1
 158 1349 l 1
 1069 1349 l 1
 1069 1210 l 1
 973 1072 973 1072 887.5 925 c 0
 802 778 802 778 737 625.5 c 0
 672 473 672 473 634 316 c 0
 596 159 596 159 596 0 c 1
 408 0 l 1
 408 158 408 158 448 315.5 c 0
 488 473 488 473 555 626 c 0
 622 779 622 779 710 925 c 0
 798 1071 798 1071 895 1204 c 1
 158 1204 l 1
EndSplineSet
Validated: 1
EndChar

StartChar: eight
Encoding: 25 56 25
Width: 1229
VWidth: 1024
LayerCount: 2
Fore
SplineSet
133 376 m 0
 133 447 133 447 156.5 504.5 c 0
 180 562 180 562 219.5 604 c 0
 259 646 259 646 309.5 672 c 0
 360 698 360 698 414 707 c 1
 414 711 l 1
 355 725 355 725 308.5 756 c 0
 262 787 262 787 230.5 829 c 0
 199 871 199 871 182.5 921 c 0
 166 971 166 971 166 1024 c 0
 166 1092 166 1092 194.5 1154.5 c 0
 223 1217 223 1217 279 1265 c 0
 335 1313 335 1313 418 1341.5 c 0
 501 1370 501 1370 610 1370 c 0
 725 1370 725 1370 809.5 1341 c 0
 894 1312 894 1312 949.5 1264 c 0
 1005 1216 1005 1216 1032 1153 c 0
 1059 1090 1059 1090 1059 1022 c 0
 1059 970 1059 970 1042.5 920 c 0
 1026 870 1026 870 994.5 828 c 0
 963 786 963 786 916.5 755.5 c 0
 870 725 870 725 809 713 c 1
 809 709 l 1
 870 699 870 699 922 672.5 c 0
 974 646 974 646 1012.5 604 c 0
 1051 562 1051 562 1072.5 505.5 c 0
 1094 449 1094 449 1094 378 c 0
 1094 294 1094 294 1065.5 221.5 c 0
 1037 149 1037 149 978.5 95 c 0
 920 41 920 41 829.5 10.5 c 0
 739 -20 739 -20 614 -20 c 0
 490 -20 490 -20 399.5 10.5 c 0
 309 41 309 41 249.5 94.5 c 0
 190 148 190 148 161.5 220.5 c 0
 133 293 133 293 133 376 c 0
319 391 m 0
 319 332 319 332 335 281.5 c 0
 351 231 351 231 386 194 c 0
 421 157 421 157 478 136 c 0
 535 115 535 115 616 115 c 0
 699 115 699 115 754.5 135.5 c 0
 810 156 810 156 844 193.5 c 0
 878 231 878 231 892.5 282.5 c 0
 907 334 907 334 907 395 c 0
 907 440 907 440 893 484.5 c 0
 879 529 879 529 845 564.5 c 0
 811 600 811 600 753.5 622 c 0
 696 644 696 644 610 644 c 0
 531 644 531 644 475.5 622 c 0
 420 600 420 600 385.5 564 c 0
 351 528 351 528 335 483 c 0
 319 438 319 438 319 391 c 0
350 1012 m 0
 350 975 350 975 361 934 c 0
 372 893 372 893 401 858.5 c 0
 430 824 430 824 481 801.5 c 0
 532 779 532 779 612 779 c 0
 698 779 698 779 749 802 c 0
 800 825 800 825 827.5 859.5 c 0
 855 894 855 894 863.5 935 c 0
 872 976 872 976 872 1012 c 0
 872 1059 872 1059 858.5 1100 c 0
 845 1141 845 1141 814 1171 c 0
 783 1201 783 1201 733 1218.5 c 0
 683 1236 683 1236 610 1236 c 0
 540 1236 540 1236 490.5 1218.5 c 0
 441 1201 441 1201 409.5 1171 c 0
 378 1141 378 1141 364 1100 c 0
 350 1059 350 1059 350 1012 c 0
EndSplineSet
Validated: 1
EndChar

StartChar: nine
Encoding: 26 57 26
Width: 1229
VWidth: 1024
LayerCount: 2
Fore
SplineSet
141 911 m 0
 141 1015 141 1015 172.5 1099.5 c 0
 204 1184 204 1184 264 1244 c 0
 324 1304 324 1304 411.5 1337 c 0
 499 1370 499 1370 610 1370 c 0
 846 1370 846 1370 966.5 1204 c 0
 1087 1038 1087 1038 1087 703 c 0
 1087 526 1087 526 1052 391 c 0
 1017 256 1017 256 951 164.5 c 0
 885 73 885 73 790.5 26.5 c 0
 696 -20 696 -20 577 -20 c 0
 496 -20 496 -20 431 -3.5 c 0
 366 13 366 13 315 48 c 0
 264 83 264 83 228 139 c 0
 192 195 192 195 170 274 c 1
 342 301 l 1
 370 210 370 210 429.5 167.5 c 0
 489 125 489 125 580 125 c 0
 654 125 654 125 714 159 c 0
 774 193 774 193 816.5 259 c 0
 859 325 859 325 883.5 423 c 0
 908 521 908 521 909 650 c 1
 888 603 888 603 851.5 566 c 0
 815 529 815 529 768.5 503.5 c 0
 722 478 722 478 668.5 464.5 c 0
 615 451 615 451 559 451 c 0
 463 451 463 451 385.5 485 c 0
 308 519 308 519 254 580 c 0
 200 641 200 641 170.5 725.5 c 0
 141 810 141 810 141 911 c 0
324 911 m 0
 324 845 324 845 341.5 787.5 c 0
 359 730 359 730 394 686.5 c 0
 429 643 429 643 481 618 c 0
 533 593 533 593 602 593 c 0
 652 593 652 593 703.5 610 c 0
 755 627 755 627 796.5 660.5 c 0
 838 694 838 694 864.5 744.5 c 0
 891 795 891 795 891 862 c 0
 891 935 891 935 872.5 1000.5 c 0
 854 1066 854 1066 817.5 1115.5 c 0
 781 1165 781 1165 727.5 1194.5 c 0
 674 1224 674 1224 604 1224 c 0
 539 1224 539 1224 487 1201.5 c 0
 435 1179 435 1179 399 1137.5 c 0
 363 1096 363 1096 343.5 1038.5 c 0
 324 981 324 981 324 911 c 0
EndSplineSet
Validated: 1
EndChar

StartChar: colon
Encoding: 27 58 27
Width: 1229
VWidth: 1024
LayerCount: 2
Fore
SplineSet
496 0 m 1
 496 299 l 1
 731 299 l 1
 731 0 l 1
 496 0 l 1
496 783 m 1
 496 1082 l 1
 731 1082 l 1
 731 783 l 1
 496 783 l 1
EndSplineSet
Validated: 1
EndChar

StartChar: less
Encoding: 28 60 28
Width: 1229
VWidth: 1024
LayerCount: 2
Fore
SplineSet
116 571 m 1
 116 776 l 1
 1111 1194 l 1
 1111 1040 l 1
 253 674 l 1
 1111 307 l 1
 1111 154 l 1
 116 571 l 1
EndSplineSet
Validated: 1
EndChar

StartChar: equal
Encoding: 29 61 29
Width: 1229
VWidth: 1024
LayerCount: 2
Fore
SplineSet
116 344 m 1
 116 492 l 1
 1111 492 l 1
 1111 344 l 1
 116 344 l 1
116 856 m 1
 116 1004 l 1
 1111 1004 l 1
 1111 856 l 1
 116 856 l 1
EndSplineSet
Validated: 1
EndChar

StartChar: greater
Encoding: 30 62 30
Width: 1229
VWidth: 1024
LayerCount: 2
Fore
SplineSet
116 154 m 1
 116 307 l 1
 974 674 l 1
 116 1040 l 1
 116 1194 l 1
 1111 776 l 1
 1111 571 l 1
 116 154 l 1
EndSplineSet
Validated: 1
EndChar

StartChar: question
Encoding: 31 63 31
Width: 1229
VWidth: 1024
LayerCount: 2
Fore
SplineSet
94 960 m 1
 106 1050 106 1050 143 1125.5 c 0
 180 1201 180 1201 243 1255 c 0
 306 1309 306 1309 394 1339.5 c 0
 482 1370 482 1370 594 1370 c 0
 702 1370 702 1370 790.5 1346 c 0
 879 1322 879 1322 942 1275.5 c 0
 1005 1229 1005 1229 1039 1160.5 c 0
 1073 1092 1073 1092 1073 1002 c 0
 1073 933 1073 933 1054.5 881 c 0
 1036 829 1036 829 1005 788 c 0
 974 747 974 747 934.5 714 c 0
 895 681 895 681 854 651.5 c 0
 813 622 813 622 773.5 592.5 c 0
 734 563 734 563 702.5 529 c 0
 671 495 671 495 651.5 453.5 c 0
 632 412 632 412 631 357 c 1
 456 357 l 1
 458 424 458 424 477.5 475 c 0
 497 526 497 526 528 566.5 c 0
 559 607 559 607 598 639.5 c 0
 637 672 637 672 677 701.5 c 0
 717 731 717 731 755.5 760.5 c 0
 794 790 794 790 824 824 c 0
 854 858 854 858 872.5 899.5 c 0
 891 941 891 941 891 994 c 0
 891 1049 891 1049 870.5 1091 c 0
 850 1133 850 1133 811.5 1161.5 c 0
 773 1190 773 1190 718.5 1205 c 0
 664 1220 664 1220 596 1220 c 0
 528 1220 528 1220 472.5 1201 c 0
 417 1182 417 1182 376 1146.5 c 0
 335 1111 335 1111 310 1060.5 c 0
 285 1010 285 1010 278 948 c 1
 94 960 l 1
448 0 m 1
 448 201 l 1
 643 201 l 1
 643 0 l 1
 448 0 l 1
EndSplineSet
Validated: 1
EndChar

StartChar: at
Encoding: 32 64 32
Width: 1229
VWidth: 1024
LayerCount: 2
Fore
SplineSet
44 514 m 0
 44 723 44 723 86 900.5 c 0
 128 1078 128 1078 208.5 1208 c 0
 289 1338 289 1338 405.5 1411 c 0
 522 1484 522 1484 672 1484 c 0
 803 1484 803 1484 900.5 1425 c 0
 998 1366 998 1366 1062 1266 c 0
 1126 1166 1126 1166 1157.5 1034 c 0
 1189 902 1189 902 1189 755 c 0
 1189 611 1189 611 1168.5 491.5 c 0
 1148 372 1148 372 1109 286 c 0
 1070 200 1070 200 1013 152 c 0
 956 104 956 104 884 104 c 0
 854 104 854 104 828 112 c 0
 802 120 802 120 782.5 138.5 c 0
 763 157 763 157 752 187 c 0
 741 217 741 217 741 261 c 2
 741 268.5 l 1
 741.5 280 l 1
 742.5 291 l 1
 743 299 l 1
 737 299 l 1
 722 260 722 260 699 224.5 c 0
 676 189 676 189 646.5 162 c 0
 617 135 617 135 580.5 119.5 c 0
 544 104 544 104 502 104 c 0
 439 104 439 104 396 136.5 c 0
 353 169 353 169 326.5 222.5 c 0
 300 276 300 276 288.5 345.5 c 0
 277 415 277 415 277 489 c 0
 277 565 277 565 288.5 640 c 0
 300 715 300 715 322 783 c 0
 344 851 344 851 376.5 909.5 c 0
 409 968 409 968 449.5 1010.5 c 0
 490 1053 490 1053 539 1077 c 0
 588 1101 588 1101 644 1101 c 0
 686 1101 686 1101 717 1087.5 c 0
 748 1074 748 1074 769.5 1050.5 c 0
 791 1027 791 1027 805 995.5 c 0
 819 964 819 964 828 928 c 1
 833 928 l 1
 865 1079 l 1
 981 1079 l 1
 882 572 l 2
 874 530 874 530 866.5 489.5 c 0
 859 449 859 449 853.5 412.5 c 0
 848 376 848 376 845 345.5 c 0
 842 315 842 315 842 294 c 0
 842 242 842 242 856.5 224 c 0
 871 206 871 206 891 206 c 0
 931 206 931 206 963.5 246 c 0
 996 286 996 286 1019.5 358.5 c 0
 1043 431 1043 431 1055.5 531.5 c 0
 1068 632 1068 632 1068 753 c 0
 1068 882 1068 882 1041.5 994 c 0
 1015 1106 1015 1106 964.5 1189 c 0
 914 1272 914 1272 840 1320 c 0
 766 1368 766 1368 670 1368 c 0
 550 1368 550 1368 456.5 1301 c 0
 363 1234 363 1234 299.5 1118.5 c 0
 236 1003 236 1003 203 847 c 0
 170 691 170 691 170 514 c 0
 170 362 170 362 199.5 237 c 0
 229 112 229 112 284.5 22.5 c 0
 340 -67 340 -67 421 -116 c 0
 502 -165 502 -165 604 -165 c 0
 663 -165 663 -165 714 -152.5 c 0
 765 -140 765 -140 809.5 -119 c 0
 854 -98 854 -98 894.5 -69 c 0
 935 -40 935 -40 973 -7 c 1
 1044 -94 l 1
 1001 -131 1001 -131 952.5 -165 c 0
 904 -199 904 -199 848.5 -225.5 c 0
 793 -252 793 -252 730 -267.5 c 0
 667 -283 667 -283 594 -283 c 0
 467 -283 467 -283 365 -226.5 c 0
 263 -170 263 -170 192 -66 c 0
 121 38 121 38 82.5 185 c 0
 44 332 44 332 44 514 c 0
412 491 m 0
 412 431 412 431 417.5 379.5 c 0
 423 328 423 328 436.5 290.5 c 0
 450 253 450 253 472 231.5 c 0
 494 210 494 210 526 210 c 0
 565 210 565 210 600.5 237.5 c 0
 636 265 636 265 665 315 c 0
 694 365 694 365 717 436.5 c 0
 740 508 740 508 753 595 c 0
 756 614 756 614 760 640 c 0
 764 666 764 666 767.5 693 c 0
 771 720 771 720 773 744.5 c 0
 775 769 775 769 775 784 c 0
 775 890 775 890 740 944.5 c 0
 705 999 705 999 646 999 c 0
 609 999 609 999 577 977 c 0
 545 955 545 955 519 917.5 c 0
 493 880 493 880 473 830 c 0
 453 780 453 780 439.5 723.5 c 0
 426 667 426 667 419 607.5 c 0
 412 548 412 548 412 491 c 0
EndSplineSet
Validated: 524289
EndChar

StartChar: A
Encoding: 33 65 33
Width: 1229
VWidth: 1024
LayerCount: 2
Fore
SplineSet
0 0 m 1
 510 1349 l 1
 727 1349 l 1
 1228 0 l 1
 1034 0 l 1
 896 382 l 1
 333 382 l 1
 196 0 l 1
 0 0 l 1
384 531 m 1
 847 531 l 1
 701 954 l 2
 688 992 688 992 674 1031 c 0
 660 1070 660 1070 648.5 1105 c 0
 637 1140 637 1140 628.5 1166.5 c 0
 620 1193 620 1193 616 1205 c 1
 612 1193 612 1193 604 1166 c 0
 596 1139 596 1139 584.5 1104 c 0
 573 1069 573 1069 560.5 1030 c 0
 548 991 548 991 535 954 c 2
 384 531 l 1
EndSplineSet
Validated: 1
EndChar

StartChar: B
Encoding: 34 66 34
Width: 1229
VWidth: 1024
LayerCount: 2
Fore
SplineSet
162 0 m 1
 162 1349 l 1
 574 1349 l 2
 691 1349 691 1349 783 1330 c 0
 875 1311 875 1311 939 1271.5 c 0
 1003 1232 1003 1232 1036.5 1170 c 0
 1070 1108 1070 1108 1070 1022 c 0
 1070 966 1070 966 1053.5 915.5 c 0
 1037 865 1037 865 1003.5 824.5 c 0
 970 784 970 784 920 754.5 c 0
 870 725 870 725 802 711 c 1
 887 702 887 702 952.5 674 c 0
 1018 646 1018 646 1062 602.5 c 0
 1106 559 1106 559 1129 502.5 c 0
 1152 446 1152 446 1152 380 c 0
 1152 277 1152 277 1110 205 c 0
 1068 133 1068 133 997 87.5 c 0
 926 42 926 42 832 21 c 0
 738 0 738 0 634 0 c 2
 162 0 l 1
353 153 m 1
 619 153 l 2
 692 153 692 153 754.5 164.5 c 0
 817 176 817 176 862.5 204 c 0
 908 232 908 232 933.5 279 c 0
 959 326 959 326 959 397 c 0
 959 460 959 460 933.5 504 c 0
 908 548 908 548 861.5 576.5 c 0
 815 605 815 605 750 618 c 0
 685 631 685 631 605 631 c 2
 353 631 l 1
 353 153 l 1
353 780 m 1
 578 780 l 2
 659 780 659 780 716 795.5 c 0
 773 811 773 811 809 839.5 c 0
 845 868 845 868 861.5 908 c 0
 878 948 878 948 878 998 c 0
 878 1105 878 1105 802.5 1150.5 c 0
 727 1196 727 1196 576 1196 c 2
 353 1196 l 1
 353 780 l 1
EndSplineSet
Validated: 1
EndChar

StartChar: C
Encoding: 35 67 35
Width: 1229
VWidth: 1024
LayerCount: 2
Fore
SplineSet
113 681 m 0
 113 847 113 847 145 975.5 c 0
 177 1104 177 1104 243 1191.5 c 0
 309 1279 309 1279 410 1324.5 c 0
 511 1370 511 1370 649 1370 c 0
 750 1370 750 1370 826 1342.5 c 0
 902 1315 902 1315 957.5 1268.5 c 0
 1013 1222 1013 1222 1051.5 1161.5 c 0
 1090 1101 1090 1101 1115 1035 c 1
 947 970 l 1
 932 1016 932 1016 906 1060 c 0
 880 1104 880 1104 843.5 1138 c 0
 807 1172 807 1172 758.5 1193 c 0
 710 1214 710 1214 650 1214 c 0
 561 1214 561 1214 497.5 1180 c 0
 434 1146 434 1146 393 1078.5 c 0
 352 1011 352 1011 333 911.5 c 0
 314 812 314 812 314 681 c 0
 314 550 314 550 334 448.5 c 0
 354 347 354 347 396 277 c 0
 438 207 438 207 503.5 171 c 0
 569 135 569 135 661 135 c 0
 724 135 724 135 774.5 159 c 0
 825 183 825 183 864.5 222 c 0
 904 261 904 261 933 312 c 0
 962 363 962 363 983 417 c 1
 1142 352 l 1
 1114 282 1114 282 1073 215.5 c 0
 1032 149 1032 149 974 96.5 c 0
 916 44 916 44 838.5 12 c 0
 761 -20 761 -20 659 -20 c 0
 518 -20 518 -20 415.5 30.5 c 0
 313 81 313 81 245.5 173 c 0
 178 265 178 265 145.5 394 c 0
 113 523 113 523 113 681 c 0
EndSplineSet
Validated: 1
EndChar

StartChar: D
Encoding: 36 68 36
Width: 1229
VWidth: 1024
LayerCount: 2
Fore
SplineSet
162 0 m 1
 162 1349 l 1
 473 1349 l 2
 631 1349 631 1349 752.5 1310.5 c 0
 874 1272 874 1272 957 1191 c 0
 1040 1110 1040 1110 1082.5 985 c 0
 1125 860 1125 860 1125 688 c 0
 1125 520 1125 520 1085 391.5 c 0
 1045 263 1045 263 969 176 c 0
 893 89 893 89 782.5 44.5 c 0
 672 0 672 0 532 0 c 2
 162 0 l 1
353 156 m 1
 515 156 l 2
 727 156 727 156 830 289 c 0
 933 422 933 422 933 688 c 0
 933 823 933 823 905 919 c 0
 877 1015 877 1015 820 1075.5 c 0
 763 1136 763 1136 677 1164.5 c 0
 591 1193 591 1193 474 1193 c 2
 353 1193 l 1
 353 156 l 1
EndSplineSet
Validated: 1
EndChar

StartChar: E
Encoding: 37 69 37
Width: 1229
VWidth: 1024
LayerCount: 2
Fore
SplineSet
162 0 m 1
 162 1349 l 1
 1081 1349 l 1
 1081 1193 l 1
 353 1193 l 1
 353 771 l 1
 1021 771 l 1
 1021 617 l 1
 353 617 l 1
 353 156 l 1
 1122 156 l 1
 1122 0 l 1
 162 0 l 1
EndSplineSet
Validated: 1
EndChar

StartChar: F
Encoding: 38 70 38
Width: 1229
VWidth: 1024
LayerCount: 2
Fore
SplineSet
194 0 m 1
 194 1349 l 1
 1085 1349 l 1
 1085 1193 l 1
 385 1193 l 1
 385 699 l 1
 1061 699 l 1
 1061 541 l 1
 385 541 l 1
 385 0 l 1
 194 0 l 1
EndSplineSet
Validated: 1
EndChar

StartChar: G
Encoding: 39 71 39
Width: 1229
VWidth: 1024
LayerCount: 2
Fore
SplineSet
113 681 m 0
 113 848 113 848 144 976.5 c 0
 175 1105 175 1105 240 1192.5 c 0
 305 1280 305 1280 405 1325 c 0
 505 1370 505 1370 642 1370 c 0
 742 1370 742 1370 817.5 1344 c 0
 893 1318 893 1318 948.5 1273.5 c 0
 1004 1229 1004 1229 1041.5 1168.5 c 0
 1079 1108 1079 1108 1103 1039 c 1
 932 983 l 1
 894 1093 894 1093 824.5 1153.5 c 0
 755 1214 755 1214 644 1214 c 0
 554 1214 554 1214 491 1179.5 c 0
 428 1145 428 1145 388.5 1077.5 c 0
 349 1010 349 1010 331.5 910.5 c 0
 314 811 314 811 314 681 c 0
 314 413 314 413 398.5 274 c 0
 483 135 483 135 655 135 c 0
 703 135 703 135 744.5 143.5 c 0
 786 152 786 152 819.5 163.5 c 0
 853 175 853 175 877.5 187.5 c 0
 902 200 902 200 915 209 c 1
 915 545 l 1
 622 545 l 1
 622 705 l 1
 1101 705 l 1
 1101 133 l 1
 1065 109 1065 109 1017.5 82 c 0
 970 55 970 55 912 32.5 c 0
 854 10 854 10 785.5 -5 c 0
 717 -20 717 -20 639 -20 c 0
 505 -20 505 -20 406 32.5 c 0
 307 85 307 85 242 178 c 0
 177 271 177 271 145 399.5 c 0
 113 528 113 528 113 681 c 0
EndSplineSet
Validated: 1
EndChar

StartChar: H
Encoding: 40 72 40
Width: 1229
VWidth: 1024
LayerCount: 2
Fore
SplineSet
162 0 m 1
 162 1349 l 1
 353 1349 l 1
 353 783 l 1
 875 783 l 1
 875 1349 l 1
 1066 1349 l 1
 1066 0 l 1
 875 0 l 1
 875 623 l 1
 353 623 l 1
 353 0 l 1
 162 0 l 1
EndSplineSet
Validated: 1
EndChar

StartChar: I
Encoding: 41 73 41
Width: 1229
VWidth: 1024
LayerCount: 2
Fore
SplineSet
202 0 m 1
 202 156 l 1
 518 156 l 1
 518 1193 l 1
 202 1193 l 1
 202 1349 l 1
 1025 1349 l 1
 1025 1193 l 1
 709 1193 l 1
 709 156 l 1
 1025 156 l 1
 1025 0 l 1
 202 0 l 1
EndSplineSet
Validated: 1
EndChar

StartChar: J
Encoding: 42 74 42
Width: 1229
VWidth: 1024
LayerCount: 2
Fore
SplineSet
176 350 m 1
 363 381 l 1
 373 317 373 317 394 270.5 c 0
 415 224 415 224 444 194 c 0
 473 164 473 164 509.5 149.5 c 0
 546 135 546 135 587 135 c 0
 691 135 691 135 743.5 206.5 c 0
 796 278 796 278 796 416 c 2
 796 1193 l 1
 485 1193 l 1
 485 1349 l 1
 986 1349 l 1
 986 420 l 2
 986 320 986 320 960.5 238.5 c 0
 935 157 935 157 884.5 99.5 c 0
 834 42 834 42 759 11 c 0
 684 -20 684 -20 586 -20 c 0
 415 -20 415 -20 313 69 c 0
 211 158 211 158 176 350 c 1
EndSplineSet
Validated: 1
EndChar

StartChar: K
Encoding: 43 75 43
Width: 1229
VWidth: 1024
LayerCount: 2
Fore
SplineSet
162 0 m 1
 162 1349 l 1
 353 1349 l 1
 353 676 l 1
 925 1349 l 1
 1150 1349 l 1
 646 777 l 1
 1227 0 l 1
 1003 0 l 1
 516 638 l 1
 353 469 l 1
 353 0 l 1
 162 0 l 1
EndSplineSet
Validated: 1
EndChar

StartChar: L
Encoding: 44 76 44
Width: 1229
VWidth: 1024
LayerCount: 2
Fore
SplineSet
237 0 m 1
 237 1349 l 1
 428 1349 l 1
 428 156 l 1
 1100 156 l 1
 1100 0 l 1
 237 0 l 1
EndSplineSet
Validated: 1
EndChar

StartChar: M
Encoding: 45 77 45
Width: 1229
VWidth: 1024
LayerCount: 2
Fore
SplineSet
129 0 m 1
 129 1349 l 1
 366 1349 l 1
 551 860 l 2
 560 837 560 837 571.5 798.5 c 0
 583 760 583 760 594 722 c 0
 606 678 606 678 619 629 c 1
 633 676 633 676 645 719 c 0
 656 756 656 756 668 795 c 0
 680 834 680 834 689 859 c 2
 874 1349 l 1
 1099 1349 l 1
 1099 0 l 1
 937 0 l 1
 937 868 l 2
 937 919 937 919 937.5 972 c 0
 938 1025 938 1025 940 1069 c 0
 942 1120 942 1120 943 1169 c 1
 926 1114 926 1114 909 1061 c 0
 895 1016 895 1016 878.5 966 c 0
 862 916 862 916 848 878 c 2
 684 440 l 1
 547 440 l 1
 381 878 l 2
 375 893 375 893 368 913.5 c 0
 361 934 361 934 353.5 957.5 c 0
 346 981 346 981 338 1005.5 c 0
 330 1030 330 1030 322 1054 c 0
 304 1109 304 1109 285 1169 c 1
 286 1121 286 1121 287 1069 c 0
 288 1024 288 1024 288.5 971.5 c 0
 289 919 289 919 289 868 c 2
 289 0 l 1
 129 0 l 1
EndSplineSet
Validated: 1
EndChar

StartChar: N
Encoding: 46 78 46
Width: 1229
VWidth: 1024
LayerCount: 2
Fore
SplineSet
162 0 m 1
 162 1349 l 1
 384 1349 l 1
 912 211 l 1
 907 251 907 251 903 297 c 0
 899 336 899 336 896.5 385 c 0
 894 434 894 434 894 485 c 2
 894 1349 l 1
 1066 1349 l 1
 1066 0 l 1
 836 0 l 1
 316 1130 l 1
 320 1087 320 1087 324 1042 c 0
 327 1004 327 1004 329.5 959.5 c 0
 332 915 332 915 332 876 c 2
 332 0 l 1
 162 0 l 1
EndSplineSet
Validated: 1
EndChar

StartChar: O
Encoding: 47 79 47
Width: 1229
VWidth: 1024
LayerCount: 2
Fore
SplineSet
102 681 m 0
 102 854 102 854 136 983 c 0
 170 1112 170 1112 235 1198 c 0
 300 1284 300 1284 395.5 1327 c 0
 491 1370 491 1370 615 1370 c 0
 862 1370 862 1370 994 1196.5 c 0
 1126 1023 1126 1023 1126 681 c 0
 1126 508 1126 508 1091 377 c 0
 1056 246 1056 246 990 157.5 c 0
 924 69 924 69 828.5 24.5 c 0
 733 -20 733 -20 613 -20 c 0
 486 -20 486 -20 390 27 c 0
 294 74 294 74 230 163.5 c 0
 166 253 166 253 134 383.5 c 0
 102 514 102 514 102 681 c 0
303 681 m 0
 303 411 303 411 382 273 c 0
 461 135 461 135 614 135 c 0
 777 135 777 135 851 275 c 0
 925 415 925 415 925 681 c 0
 925 951 925 951 846 1082.5 c 0
 767 1214 767 1214 615 1214 c 0
 459 1214 459 1214 381 1082.5 c 0
 303 951 303 951 303 681 c 0
EndSplineSet
Validated: 1
EndChar

StartChar: P
Encoding: 48 80 48
Width: 1229
VWidth: 1024
LayerCount: 2
Fore
SplineSet
162 0 m 1
 162 1349 l 1
 622 1349 l 2
 747 1349 747 1349 840 1320 c 0
 933 1291 933 1291 995 1238 c 0
 1057 1185 1057 1185 1088 1110.5 c 0
 1119 1036 1119 1036 1119 945 c 0
 1119 861 1119 861 1089.5 783.5 c 0
 1060 706 1060 706 999.5 646 c 0
 939 586 939 586 848 550 c 0
 757 514 757 514 634 514 c 2
 353 514 l 1
 353 0 l 1
 162 0 l 1
353 665 m 1
 607 665 l 2
 689 665 689 665 749.5 686.5 c 0
 810 708 810 708 849.5 745 c 0
 889 782 889 782 908 833 c 0
 927 884 927 884 927 942 c 0
 927 1067 927 1067 845 1131.5 c 0
 763 1196 763 1196 599 1196 c 2
 353 1196 l 1
 353 665 l 1
EndSplineSet
Validated: 1
EndChar

StartChar: Q
Encoding: 49 81 49
Width: 1229
VWidth: 1024
LayerCount: 2
Fore
SplineSet
102 681 m 0
 102 854 102 854 136 983 c 0
 170 1112 170 1112 235 1198 c 0
 300 1284 300 1284 395.5 1327 c 0
 491 1370 491 1370 615 1370 c 0
 862 1370 862 1370 994 1196.5 c 0
 1126 1023 1126 1023 1126 681 c 0
 1126 534 1126 534 1100.5 416.5 c 0
 1075 299 1075 299 1026 213 c 0
 977 127 977 127 906.5 72.5 c 0
 836 18 836 18 746 -4 c 1
 787 -130 787 -130 854 -187 c 0
 921 -244 921 -244 1022 -244 c 0
 1050 -244 1050 -244 1082 -240 c 0
 1114 -236 1114 -236 1137 -231 c 1
 1137 -365 l 1
 1099 -374 1099 -374 1053.5 -380.5 c 0
 1008 -387 1008 -387 959 -387 c 0
 874 -387 874 -387 809.5 -361.5 c 0
 745 -336 745 -336 696.5 -288.5 c 0
 648 -241 648 -241 613 -172 c 0
 578 -103 578 -103 551 -16 c 1
 439 -5 439 -5 355 46.5 c 0
 271 98 271 98 214.5 187 c 0
 158 276 158 276 130 400.5 c 0
 102 525 102 525 102 681 c 0
303 681 m 0
 303 411 303 411 382 273 c 0
 461 135 461 135 614 135 c 0
 777 135 777 135 851 275 c 0
 925 415 925 415 925 681 c 0
 925 951 925 951 846 1082.5 c 0
 767 1214 767 1214 615 1214 c 0
 459 1214 459 1214 381 1082.5 c 0
 303 951 303 951 303 681 c 0
EndSplineSet
Validated: 1
EndChar

StartChar: R
Encoding: 50 82 50
Width: 1229
VWidth: 1024
LayerCount: 2
Fore
SplineSet
162 0 m 1
 162 1349 l 1
 644 1349 l 2
 764 1349 764 1349 853.5 1323.5 c 0
 943 1298 943 1298 1002.5 1249.5 c 0
 1062 1201 1062 1201 1091.5 1132 c 0
 1121 1063 1121 1063 1121 976 c 0
 1121 914 1121 914 1101.5 852.5 c 0
 1082 791 1082 791 1040 739.5 c 0
 998 688 998 688 933 650 c 0
 868 612 868 612 777 597 c 1
 1177 0 l 1
 957 0 l 1
 591 575 l 1
 353 575 l 1
 353 0 l 1
 162 0 l 1
353 726 m 1
 633 726 l 2
 716 726 716 726 772.5 746 c 0
 829 766 829 766 863.5 799.5 c 0
 898 833 898 833 913.5 878 c 0
 929 923 929 923 929 973 c 0
 929 1196 929 1196 625 1196 c 2
 353 1196 l 1
 353 726 l 1
EndSplineSet
Validated: 1
EndChar

StartChar: S
Encoding: 51 83 51
Width: 1229
VWidth: 1024
LayerCount: 2
Fore
SplineSet
79 338 m 1
 264 375 l 1
 276 320 276 320 300 275 c 0
 324 230 324 230 366 197.5 c 0
 408 165 408 165 469 147 c 0
 530 129 530 129 615 129 c 0
 687 129 687 129 746.5 142.5 c 0
 806 156 806 156 848.5 185 c 0
 891 214 891 214 915 259 c 0
 939 304 939 304 939 367 c 0
 939 437 939 437 906.5 481 c 0
 874 525 874 525 821 553 c 0
 768 581 768 581 701.5 598.5 c 0
 635 616 635 616 567 633 c 0
 517 646 517 646 466 660.5 c 0
 415 675 415 675 368 694.5 c 0
 321 714 321 714 280.5 740.5 c 0
 240 767 240 767 209.5 804.5 c 0
 179 842 179 842 162 892.5 c 0
 145 943 145 943 145 1010 c 0
 145 1106 145 1106 181 1174.5 c 0
 217 1243 217 1243 280 1286.5 c 0
 343 1330 343 1330 429 1350 c 0
 515 1370 515 1370 615 1370 c 0
 731 1370 731 1370 812.5 1349.5 c 0
 894 1329 894 1329 950.5 1288 c 0
 1007 1247 1007 1247 1041 1186.5 c 0
 1075 1126 1075 1126 1095 1046 c 1
 907 1013 l 1
 896 1064 896 1064 874.5 1104 c 0
 853 1144 853 1144 817.5 1171 c 0
 782 1198 782 1198 732 1212 c 0
 682 1226 682 1226 614 1226 c 0
 534 1226 534 1226 480 1209.5 c 0
 426 1193 426 1193 393 1164.5 c 0
 360 1136 360 1136 345.5 1097 c 0
 331 1058 331 1058 331 1013 c 0
 331 953 331 953 357.5 915.5 c 0
 384 878 384 878 429.5 853.5 c 0
 475 829 475 829 535.5 813 c 0
 596 797 596 797 665 779 c 0
 720 765 720 765 776 749.5 c 0
 832 734 832 734 883.5 713 c 0
 935 692 935 692 979.5 663.5 c 0
 1024 635 1024 635 1057 594 c 0
 1090 553 1090 553 1109 498 c 0
 1128 443 1128 443 1128 370 c 0
 1128 285 1128 285 1097 213.5 c 0
 1066 142 1066 142 1002.5 90 c 0
 939 38 939 38 841.5 9 c 0
 744 -20 744 -20 610 -20 c 0
 376 -20 376 -20 245.5 72 c 0
 115 164 115 164 79 338 c 1
EndSplineSet
Validated: 1
EndChar

StartChar: T
Encoding: 52 84 52
Width: 1229
VWidth: 1024
LayerCount: 2
Fore
SplineSet
76 1193 m 1
 76 1349 l 1
 1152 1349 l 1
 1152 1193 l 1
 709 1193 l 1
 709 0 l 1
 519 0 l 1
 519 1193 l 1
 76 1193 l 1
EndSplineSet
Validated: 1
EndChar

StartChar: U
Encoding: 53 85 53
Width: 1229
VWidth: 1024
LayerCount: 2
Fore
SplineSet
142 472 m 2
 142 1349 l 1
 333 1349 l 1
 333 498 l 2
 333 401 333 401 345.5 332 c 0
 358 263 358 263 388.5 219 c 0
 419 175 419 175 471.5 155 c 0
 524 135 524 135 604 135 c 0
 687 135 687 135 742.5 155 c 0
 798 175 798 175 832 219.5 c 0
 866 264 866 264 880.5 336 c 0
 895 408 895 408 895 511 c 2
 895 1349 l 1
 1085 1349 l 1
 1085 490 l 2
 1085 353 1085 353 1056 256 c 0
 1027 159 1027 159 967.5 97.5 c 0
 908 36 908 36 817.5 8 c 0
 727 -20 727 -20 605 -20 c 0
 489 -20 489 -20 402 6.5 c 0
 315 33 315 33 257.5 91.5 c 0
 200 150 200 150 171 243.5 c 0
 142 337 142 337 142 472 c 2
EndSplineSet
Validated: 1
EndChar

StartChar: V
Encoding: 54 86 54
Width: 1229
VWidth: 1024
LayerCount: 2
Fore
SplineSet
10 1349 m 1
 211 1349 l 1
 531 447 l 2
 547 402 547 402 561.5 353.5 c 0
 576 305 576 305 588 263 c 0
 602 215 602 215 615 168 c 1
 627 213 627 213 641 261 c 0
 653 302 653 302 668 351 c 0
 683 400 683 400 699 447 c 2
 1017 1349 l 1
 1218 1349 l 1
 713 0 l 1
 515 0 l 1
 10 1349 l 1
EndSplineSet
Validated: 1
EndChar

StartChar: W
Encoding: 55 87 55
Width: 1229
VWidth: 1024
LayerCount: 2
Fore
SplineSet
0 1349 m 1
 189 1349 l 1
 298 514 l 2
 306 449 306 449 311.5 387 c 0
 317 325 317 325 322 276 c 0
 327 219 327 219 331 168 c 1
 347 237 347 237 363 304 c 0
 370 333 370 333 377 363.5 c 0
 384 394 384 394 391.5 424 c 0
 399 454 399 454 406 481.5 c 0
 413 509 413 509 419 532 c 2
 528 931 l 1
 703 931 l 1
 812 532 l 2
 818 510 818 510 825 482 c 0
 832 454 832 454 839.5 424.5 c 0
 847 395 847 395 854 364.5 c 0
 861 334 861 334 868 305 c 0
 884 238 884 238 900 168 c 0
 901 168 901 168 904 202 c 0
 907 236 907 236 912 287 c 0
 917 338 917 338 923 399 c 0
 929 460 929 460 935 514 c 2
 1039 1349 l 1
 1228 1349 l 1
 1018 0 l 1
 810 0 l 1
 706 387 l 2
 701 406 701 406 694 432 c 0
 687 458 687 458 679.5 487.5 c 0
 672 517 672 517 664.5 548.5 c 0
 657 580 657 580 650 610 c 0
 633 680 633 680 616 756 c 1
 598 679 598 679 581 609 c 0
 574 579 574 579 566.5 547.5 c 0
 559 516 559 516 551.5 486.5 c 0
 544 457 544 457 537 431.5 c 0
 530 406 530 406 525 387 c 2
 419 0 l 1
 211 0 l 1
 0 1349 l 1
EndSplineSet
Validated: 1
EndChar

StartChar: X
Encoding: 56 88 56
Width: 1229
VWidth: 1024
LayerCount: 2
Fore
SplineSet
36 0 m 1
 512 705 l 1
 77 1349 l 1
 282 1349 l 1
 614 836 l 1
 947 1349 l 1
 1152 1349 l 1
 717 705 l 1
 1193 0 l 1
 988 0 l 1
 614 573 l 1
 241 0 l 1
 36 0 l 1
EndSplineSet
Validated: 1
EndChar

StartChar: Y
Encoding: 57 89 57
Width: 1229
VWidth: 1024
LayerCount: 2
Fore
SplineSet
36 1349 m 1
 241 1349 l 1
 615 738 l 1
 987 1349 l 1
 1192 1349 l 1
 708 584 l 1
 708 0 l 1
 520 0 l 1
 520 584 l 1
 36 1349 l 1
EndSplineSet
Validated: 1
EndChar

StartChar: Z
Encoding: 58 90 58
Width: 1229
VWidth: 1024
LayerCount: 2
Fore
SplineSet
73 0 m 1
 73 143 l 1
 891 1193 l 1
 146 1193 l 1
 146 1349 l 1
 1108 1349 l 1
 1108 1210 l 1
 290 156 l 1
 1155 156 l 1
 1155 0 l 1
 73 0 l 1
EndSplineSet
Validated: 1
EndChar

StartChar: bracketleft
Encoding: 59 91 59
Width: 1229
VWidth: 1024
LayerCount: 2
Fore
SplineSet
410 -425 m 1
 410 1484 l 1
 957 1484 l 1
 957 1345 l 1
 590 1345 l 1
 590 -286 l 1
 957 -286 l 1
 957 -425 l 1
 410 -425 l 1
EndSplineSet
Validated: 1
EndChar

StartChar: backslash
Encoding: 60 92 60
Width: 1229
VWidth: 1024
LayerCount: 2
Fore
SplineSet
115 1484 m 1
 293 1484 l 1
 1114 -20 l 1
 932 -20 l 1
 115 1484 l 1
EndSplineSet
Validated: 1
EndChar

StartChar: bracketright
Encoding: 61 93 61
Width: 1229
VWidth: 1024
LayerCount: 2
Fore
SplineSet
270 -286 m 1
 637 -286 l 1
 637 1345 l 1
 270 1345 l 1
 270 1484 l 1
 817 1484 l 1
 817 -425 l 1
 270 -425 l 1
 270 -286 l 1
EndSplineSet
Validated: 1
EndChar

StartChar: asciicircum
Encoding: 62 94 62
Width: 1229
VWidth: 1024
LayerCount: 2
Fore
SplineSet
133 442 m 1
 511 1349 l 1
 714 1349 l 1
 1094 442 l 1
 940 442 l 1
 611 1245 l 1
 285 442 l 1
 133 442 l 1
EndSplineSet
Validated: 1
EndChar

StartChar: underscore
Encoding: 63 95 63
Width: 1229
VWidth: 1024
LayerCount: 2
Fore
SplineSet
-5 -124 m 1
 1233 -124 l 1
 1233 -220 l 1
 -5 -220 l 1
 -5 -124 l 1
EndSplineSet
Validated: 1
EndChar

StartChar: grave
Encoding: 64 96 64
Width: 1229
VWidth: 1024
LayerCount: 2
Fore
SplineSet
402 1431 m 1
 402 1460 l 1
 599 1460 l 1
 826 1221 l 1
 826 1201 l 1
 702 1201 l 1
 402 1431 l 1
EndSplineSet
Validated: 1
EndChar

StartChar: a
Encoding: 65 97 65
Width: 1229
VWidth: 1024
LayerCount: 2
Fore
SplineSet
128 302 m 0
 128 409 128 409 167.5 477.5 c 0
 207 546 207 546 271 585 c 0
 335 624 335 624 416.5 639.5 c 0
 498 655 498 655 582 656 c 2
 818 660 l 1
 818 719 l 2
 818 786 818 786 804.5 833 c 0
 791 880 791 880 763.5 909 c 0
 736 938 736 938 694 951.5 c 0
 652 965 652 965 596 965 c 0
 546 965 546 965 505.5 957.5 c 0
 465 950 465 950 436 930.5 c 0
 407 911 407 911 388.5 877.5 c 0
 370 844 370 844 364 793 c 1
 176 810 l 1
 186 874 186 874 213.5 927.5 c 0
 241 981 241 981 291 1020 c 0
 341 1059 341 1059 416.5 1080.5 c 0
 492 1102 492 1102 599 1102 c 0
 799 1102 799 1102 899.5 1008.5 c 0
 1000 915 1000 915 1000 738 c 2
 1000 272 l 2
 1000 192 1000 192 1021 151.5 c 0
 1042 111 1042 111 1101 111 c 0
 1116 111 1116 111 1131 113 c 0
 1146 115 1146 115 1160 118 c 1
 1160 6 l 1
 1126 -2 1126 -2 1092.5 -6 c 0
 1059 -10 1059 -10 1021 -10 c 0
 970 -10 970 -10 933.5 3.5 c 0
 897 17 897 17 874 44.5 c 0
 851 72 851 72 839 112.5 c 0
 827 153 827 153 824 207 c 1
 818 207 l 1
 790 155 790 155 756 113 c 0
 722 71 722 71 678 41.5 c 0
 634 12 634 12 577 -4 c 0
 520 -20 520 -20 446 -20 c 0
 288 -20 288 -20 208 66 c 0
 128 152 128 152 128 302 c 0
317 299 m 0
 317 217 317 217 361.5 167 c 0
 406 117 406 117 492 117 c 0
 575 117 575 117 636 148.5 c 0
 697 180 697 180 737.5 228 c 0
 778 276 778 276 798 334 c 0
 818 392 818 392 818 445 c 2
 818 534 l 1
 628 530 l 2
 573 529 573 529 517.5 521.5 c 0
 462 514 462 514 417.5 490 c 0
 373 466 373 466 345 420.5 c 0
 317 375 317 375 317 299 c 0
EndSplineSet
Validated: 1
EndChar

StartChar: b
Encoding: 66 98 66
Width: 1229
VWidth: 1024
LayerCount: 2
Fore
SplineSet
179 0 m 1
 180 9 180 9 181 30.5 c 0
 182 52 182 52 183 82 c 0
 184 112 184 112 184.5 148 c 0
 185 184 185 184 185 223 c 2
 185 1484 l 1
 365 1484 l 1
 365 1061 l 2
 365 1032 365 1032 364.5 1003.5 c 0
 364 975 364 975 363 953 c 0
 362 927 362 927 361 904 c 1
 365 904 l 1
 413 1009 413 1009 497.5 1056.5 c 0
 582 1104 582 1104 699 1104 c 0
 894 1104 894 1104 992 965.5 c 0
 1090 827 1090 827 1090 546 c 0
 1090 262 1090 262 988.5 121 c 0
 887 -20 887 -20 698 -20 c 0
 582 -20 582 -20 497 23 c 0
 412 66 412 66 364 164 c 1
 362 164 l 1
 362 138 362 138 361 110.5 c 0
 360 83 360 83 358.5 60 c 0
 357 37 357 37 355.5 20.5 c 0
 354 4 354 4 353 0 c 1
 179 0 l 1
365 524 m 0
 365 405 365 405 385 326 c 0
 405 247 405 247 441.5 199.5 c 0
 478 152 478 152 530.5 132.5 c 0
 583 113 583 113 648 113 c 0
 711 113 711 113 759 136 c 0
 807 159 807 159 839 210 c 0
 871 261 871 261 887.5 342.5 c 0
 904 424 904 424 904 540 c 0
 904 652 904 652 889 732.5 c 0
 874 813 874 813 842.5 864.5 c 0
 811 916 811 916 763.5 940.5 c 0
 716 965 716 965 650 965 c 0
 584 965 584 965 531 942.5 c 0
 478 920 478 920 441.5 868.5 c 0
 405 817 405 817 385 732.5 c 0
 365 648 365 648 365 524 c 0
EndSplineSet
Validated: 1
EndChar

StartChar: c
Encoding: 67 99 67
Width: 1229
VWidth: 1024
LayerCount: 2
Fore
SplineSet
130 542 m 0
 130 705 130 705 173 813 c 0
 216 921 216 921 286.5 985 c 0
 357 1049 357 1049 447 1075.5 c 0
 537 1102 537 1102 632 1102 c 0
 730 1102 730 1102 807 1077 c 0
 884 1052 884 1052 939.5 1008.5 c 0
 995 965 995 965 1030 906 c 0
 1065 847 1065 847 1078 779 c 1
 886 765 l 1
 870 856 870 856 806 908.5 c 0
 742 961 742 961 624 961 c 0
 538 961 538 961 479.5 933.5 c 0
 421 906 421 906 385.5 853.5 c 0
 350 801 350 801 334.5 723.5 c 0
 319 646 319 646 319 546 c 0
 319 446 319 446 334.5 366.5 c 0
 350 287 350 287 385.5 232 c 0
 421 177 421 177 479.5 148 c 0
 538 119 538 119 623 119 c 0
 731 119 731 119 802 172 c 0
 873 225 873 225 890 334 c 1
 1080 322 l 1
 1071 255 1071 255 1037 193 c 0
 1003 131 1003 131 946 84 c 0
 889 37 889 37 810 8.5 c 0
 731 -20 731 -20 631 -20 c 0
 494 -20 494 -20 398.5 23 c 0
 303 66 303 66 243.5 141.5 c 0
 184 217 184 217 157 319.5 c 0
 130 422 130 422 130 542 c 0
EndSplineSet
Validated: 1
EndChar

StartChar: d
Encoding: 68 100 68
Width: 1229
VWidth: 1024
LayerCount: 2
Fore
SplineSet
138 532 m 0
 138 1098 138 1098 530 1098 c 0
 651 1098 651 1098 732.5 1055 c 0
 814 1012 814 1012 863 914 c 1
 865 914 l 1
 865 919 865 919 864.5 940 c 0
 864 961 864 961 864 986 c 0
 864 1011 864 1011 863.5 1033.5 c 0
 863 1056 863 1056 863 1065 c 2
 863 1484 l 1
 1043 1484 l 1
 1043 223 l 2
 1043 184 1043 184 1043.5 148 c 0
 1044 112 1044 112 1045 82 c 0
 1046 52 1046 52 1047 30.5 c 0
 1048 9 1048 9 1049 0 c 1
 877 0 l 1
 876 4 876 4 874 22 c 0
 872 40 872 40 870.5 65 c 0
 869 90 869 90 868 119 c 0
 867 148 867 148 867 174 c 1
 862 174 l 1
 813 69 813 69 732 21.5 c 0
 651 -26 651 -26 530 -26 c 0
 328 -26 328 -26 233 113 c 0
 138 252 138 252 138 532 c 0
324 538 m 0
 324 426 324 426 338.5 346 c 0
 353 266 353 266 383.5 214 c 0
 414 162 414 162 462 137.5 c 0
 510 113 510 113 577 113 c 0
 646 113 646 113 699.5 137 c 0
 753 161 753 161 789.5 213.5 c 0
 826 266 826 266 844.5 350 c 0
 863 434 863 434 863 554 c 0
 863 670 863 670 844.5 748.5 c 0
 826 827 826 827 790 875 c 0
 754 923 754 923 701 944 c 0
 648 965 648 965 579 965 c 0
 515 965 515 965 467 942 c 0
 419 919 419 919 387.5 868 c 0
 356 817 356 817 340 735.5 c 0
 324 654 324 654 324 538 c 0
EndSplineSet
Validated: 1
EndChar

StartChar: e
Encoding: 69 101 69
Width: 1229
VWidth: 1024
LayerCount: 2
Fore
SplineSet
133 548 m 0
 133 704 133 704 172.5 810 c 0
 212 916 212 916 279 981 c 0
 346 1046 346 1046 433.5 1074 c 0
 521 1102 521 1102 617 1102 c 0
 748 1102 748 1102 838.5 1060 c 0
 929 1018 929 1018 986 942.5 c 0
 1043 867 1043 867 1068.5 761 c 0
 1094 655 1094 655 1094 527 c 2
 1094 503 l 1
 322 503 l 1
 322 418 322 418 341 346.5 c 0
 360 275 360 275 398 223.5 c 0
 436 172 436 172 492.5 143.5 c 0
 549 115 549 115 623 115 c 0
 678 115 678 115 724.5 127.5 c 0
 771 140 771 140 808 162 c 0
 845 184 845 184 870 214.5 c 0
 895 245 895 245 907 281 c 1
 1065 236 l 1
 1049 191 1049 191 1017 145.5 c 0
 985 100 985 100 932 63.5 c 0
 879 27 879 27 803 3.5 c 0
 727 -20 727 -20 623 -20 c 0
 508 -20 508 -20 417 16 c 0
 326 52 326 52 263 123 c 0
 200 194 200 194 166.5 300.5 c 0
 133 407 133 407 133 548 c 0
324 641 m 1
 908 641 l 1
 900 735 900 735 874 798 c 0
 848 861 848 861 809.5 899 c 0
 771 937 771 937 722 953 c 0
 673 969 673 969 619 969 c 0
 573 969 573 969 522.5 954.5 c 0
 472 940 472 940 429 903 c 0
 386 866 386 866 356.5 802.5 c 0
 327 739 327 739 324 641 c 1
EndSplineSet
Validated: 1
EndChar

StartChar: f
Encoding: 70 102 70
Width: 1229
VWidth: 1024
LayerCount: 2
Fore
SplineSet
138 940 m 1
 138 1082 l 1
 400 1082 l 1
 400 1107 l 2
 400 1208 400 1208 422.5 1279.5 c 0
 445 1351 445 1351 495 1396.5 c 0
 545 1442 545 1442 624.5 1463 c 0
 704 1484 704 1484 818 1484 c 0
 847 1484 847 1484 887 1482.5 c 0
 927 1481 927 1481 967 1478 c 0
 1007 1475 1007 1475 1042.5 1471 c 0
 1078 1467 1078 1467 1099 1463 c 1
 1099 1318 l 1
 1081 1321 1081 1321 1045 1324 c 0
 1009 1327 1009 1327 969.5 1329.5 c 0
 930 1332 930 1332 894 1333.5 c 0
 858 1335 858 1335 839 1335 c 0
 773 1335 773 1335 724 1325 c 0
 675 1315 675 1315 643 1288 c 0
 611 1261 611 1261 595.5 1214 c 0
 580 1167 580 1167 580 1092 c 2
 580 1082 l 1
 1071 1082 l 1
 1071 940 l 1
 580 940 l 1
 580 0 l 1
 400 0 l 1
 400 940 l 1
 138 940 l 1
EndSplineSet
Validated: 1
EndChar

StartChar: g
Encoding: 71 103 71
Width: 1229
VWidth: 1024
LayerCount: 2
Fore
SplineSet
143 549 m 0
 143 680 143 680 164.5 782 c 0
 186 884 186 884 233.5 954.5 c 0
 281 1025 281 1025 357 1062 c 0
 433 1099 433 1099 543 1099 c 0
 656 1099 656 1099 739.5 1046.5 c 0
 823 994 823 994 868 897 c 1
 871 897 l 1
 871 922 871 922 872.5 953 c 0
 874 984 874 984 875.5 1011.5 c 0
 877 1039 877 1039 879.5 1059 c 0
 882 1079 882 1079 883 1082 c 2
 1054 1082 l 1
 1053 1073 1053 1073 1052 1051.5 c 0
 1051 1030 1051 1030 1050 1000 c 0
 1049 970 1049 970 1048.5 933.5 c 0
 1048 897 1048 897 1048 858 c 2
 1048 32 l 2
 1048 -195 1048 -195 942 -309.5 c 0
 836 -424 836 -424 615 -424 c 0
 525 -424 525 -424 456.5 -405 c 0
 388 -386 388 -386 338.5 -350.5 c 0
 289 -315 289 -315 258.5 -266 c 0
 228 -217 228 -217 215 -157 c 1
 399 -132 l 1
 416 -207 416 -207 472.5 -247.5 c 0
 529 -288 529 -288 621 -288 c 0
 678 -288 678 -288 723.5 -271 c 0
 769 -254 769 -254 801.5 -216.5 c 0
 834 -179 834 -179 851.5 -119 c 0
 869 -59 869 -59 869 27 c 2
 869 221 l 1
 867 221 l 1
 848 181 848 181 818.5 143 c 0
 789 105 789 105 747.5 76 c 0
 706 47 706 47 651 29.5 c 0
 596 12 596 12 524 12 c 0
 422 12 422 12 350 45 c 0
 278 78 278 78 232 145 c 0
 186 212 186 212 164.5 313 c 0
 143 414 143 414 143 549 c 0
329 551 m 0
 329 434 329 434 344 356 c 0
 359 278 359 278 390.5 231 c 0
 422 184 422 184 470.5 164.5 c 0
 519 145 519 145 585 145 c 0
 638 145 638 145 689 166.5 c 0
 740 188 740 188 780 236 c 0
 820 284 820 284 844.5 361.5 c 0
 869 439 869 439 869 551 c 0
 869 664 869 664 845 743 c 0
 821 822 821 822 781.5 871.5 c 0
 742 921 742 921 691.5 943 c 0
 641 965 641 965 588 965 c 0
 521 965 521 965 472 942.5 c 0
 423 920 423 920 391 870.5 c 0
 359 821 359 821 344 742.5 c 0
 329 664 329 664 329 551 c 0
EndSplineSet
Validated: 1
EndChar

StartChar: h
Encoding: 72 104 72
Width: 1229
VWidth: 1024
LayerCount: 2
Fore
SplineSet
185 0 m 1
 185 1484 l 1
 366 1484 l 1
 366 1094 l 2
 366 1044 366 1044 363 993.5 c 0
 360 943 360 943 357 897 c 1
 360 897 l 1
 384 944 384 944 416 982 c 0
 448 1020 448 1020 489 1046.5 c 0
 530 1073 530 1073 582.5 1087.5 c 0
 635 1102 635 1102 699 1102 c 0
 782 1102 782 1102 847 1080 c 0
 912 1058 912 1058 957 1012 c 0
 1002 966 1002 966 1025.5 894 c 0
 1049 822 1049 822 1049 721 c 2
 1049 0 l 1
 868 0 l 1
 868 695 l 2
 868 775 868 775 851.5 826.5 c 0
 835 878 835 878 805.5 908.5 c 0
 776 939 776 939 736 951 c 0
 696 963 696 963 648 963 c 0
 589 963 589 963 537.5 940.5 c 0
 486 918 486 918 447.5 875.5 c 0
 409 833 409 833 387 770.5 c 0
 365 708 365 708 365 627 c 2
 365 0 l 1
 185 0 l 1
EndSplineSet
Validated: 1
EndChar

StartChar: i
Encoding: 73 105 73
Width: 1229
VWidth: 1024
LayerCount: 2
Fore
SplineSet
143 0 m 1
 143 142 l 1
 565 142 l 1
 565 940 l 1
 246 940 l 1
 246 1082 l 1
 745 1082 l 1
 745 142 l 1
 1125 142 l 1
 1125 0 l 1
 143 0 l 1
545 1292 m 1
 545 1484 l 1
 745 1484 l 1
 745 1292 l 1
 545 1292 l 1
EndSplineSet
Validated: 1
EndChar

StartChar: j
Encoding: 74 106 74
Width: 1229
VWidth: 1024
LayerCount: 2
Fore
SplineSet
117 -242 m 1
 139 -247 139 -247 169 -253 c 0
 199 -259 199 -259 235 -264 c 0
 271 -269 271 -269 310.5 -272.5 c 0
 350 -276 350 -276 390 -276 c 0
 446 -276 446 -276 494.5 -262 c 0
 543 -248 543 -248 579 -217.5 c 0
 615 -187 615 -187 635.5 -139.5 c 0
 656 -92 656 -92 656 -25 c 2
 656 940 l 1
 249 940 l 1
 249 1082 l 1
 836 1082 l 1
 836 -28 l 2
 836 -137 836 -137 800.5 -212.5 c 0
 765 -288 765 -288 706 -335.5 c 0
 647 -383 647 -383 569 -404 c 0
 491 -425 491 -425 405 -425 c 0
 364 -425 364 -425 323 -421.5 c 0
 282 -418 282 -418 244 -412 c 0
 206 -406 206 -406 173.5 -398.5 c 0
 141 -391 141 -391 117 -382 c 1
 117 -242 l 1
636 1292 m 1
 636 1484 l 1
 836 1484 l 1
 836 1292 l 1
 636 1292 l 1
EndSplineSet
Validated: 1
EndChar

StartChar: k
Encoding: 75 107 75
Width: 1229
VWidth: 1024
LayerCount: 2
Fore
SplineSet
236 0 m 1
 236 1484 l 1
 416 1484 l 1
 416 557 l 1
 891 1082 l 1
 1102 1082 l 1
 663 617 l 1
 1125 0 l 1
 914 0 l 1
 548 499 l 1
 416 401 l 1
 416 0 l 1
 236 0 l 1
EndSplineSet
Validated: 1
EndChar

StartChar: l
Encoding: 76 108 76
Width: 1229
VWidth: 1024
LayerCount: 2
Fore
SplineSet
134 0 m 1
 134 142 l 1
 556 142 l 1
 556 1342 l 1
 267 1342 l 1
 267 1484 l 1
 736 1484 l 1
 736 142 l 1
 1116 142 l 1
 1116 0 l 1
 134 0 l 1
EndSplineSet
Validated: 1
EndChar

StartChar: m
Encoding: 77 109 77
Width: 1229
VWidth: 1024
LayerCount: 2
Fore
SplineSet
99 1082 m 1
 248 1082 l 1
 249 1077 249 1077 250 1056.5 c 0
 251 1036 251 1036 252 1009.5 c 0
 253 983 253 983 253.5 955 c 0
 254 927 254 927 254 907 c 1
 256 907 l 1
 269 946 269 946 287 981.5 c 0
 305 1017 305 1017 330.5 1044 c 0
 356 1071 356 1071 391 1086.5 c 0
 426 1102 426 1102 472 1102 c 0
 560 1102 560 1102 603.5 1054 c 0
 647 1006 647 1006 666 906 c 1
 668 906 l 1
 686 953 686 953 707.5 989.5 c 0
 729 1026 729 1026 757 1051 c 0
 785 1076 785 1076 821 1089 c 0
 857 1102 857 1102 904 1102 c 0
 965 1102 965 1102 1007 1080 c 0
 1049 1058 1049 1058 1075 1012 c 0
 1101 966 1101 966 1112.5 894 c 0
 1124 822 1124 822 1124 721 c 2
 1124 0 l 1
 956 0 l 1
 956 686 l 2
 956 765 956 765 950 818 c 0
 944 871 944 871 930.5 903.5 c 0
 917 936 917 936 895.5 949.5 c 0
 874 963 874 963 842 963 c 0
 776 963 776 963 737.5 879 c 0
 699 795 699 795 699 627 c 2
 699 0 l 1
 531 0 l 1
 531 686 l 2
 531 765 531 765 525 818 c 0
 519 871 519 871 505.5 903.5 c 0
 492 936 492 936 470.5 949.5 c 0
 449 963 449 963 417 963 c 0
 384 963 384 963 358 937.5 c 0
 332 912 332 912 313 865.5 c 0
 294 819 294 819 284 753.5 c 0
 274 688 274 688 274 607 c 2
 274 0 l 1
 105 0 l 1
 105 851 l 2
 105 885 105 885 104.5 922.5 c 0
 104 960 104 960 103 993.5 c 0
 102 1027 102 1027 101 1051 c 0
 100 1075 100 1075 99 1082 c 1
EndSplineSet
Validated: 1
EndChar

StartChar: n
Encoding: 78 110 78
Width: 1229
VWidth: 1024
LayerCount: 2
Fore
SplineSet
179 1082 m 1
 349 1082 l 1
 350 1077 350 1077 351 1055 c 0
 352 1033 352 1033 353.5 1004.5 c 0
 355 976 355 976 356 946.5 c 0
 357 917 357 917 357 897 c 1
 360 897 l 1
 384 944 384 944 416.5 982 c 0
 449 1020 449 1020 491.5 1046.5 c 0
 534 1073 534 1073 587 1087.5 c 0
 640 1102 640 1102 706 1102 c 0
 789 1102 789 1102 853 1080 c 0
 917 1058 917 1058 960.5 1012 c 0
 1004 966 1004 966 1026.5 894 c 0
 1049 822 1049 822 1049 721 c 2
 1049 0 l 1
 868 0 l 1
 868 695 l 2
 868 775 868 775 851.5 826.5 c 0
 835 878 835 878 805.5 908.5 c 0
 776 939 776 939 736 951 c 0
 696 963 696 963 648 963 c 0
 589 963 589 963 537.5 940.5 c 0
 486 918 486 918 447.5 875.5 c 0
 409 833 409 833 387 770.5 c 0
 365 708 365 708 365 627 c 2
 365 0 l 1
 185 0 l 1
 185 851 l 2
 185 885 185 885 184.5 922.5 c 0
 184 960 184 960 183 993.5 c 0
 182 1027 182 1027 181 1051 c 0
 180 1075 180 1075 179 1082 c 1
EndSplineSet
Validated: 1
EndChar

StartChar: o
Encoding: 79 111 79
Width: 1229
VWidth: 1024
LayerCount: 2
Fore
SplineSet
130 542 m 0
 130 821 130 821 256.5 961.5 c 0
 383 1102 383 1102 615 1102 c 0
 859 1102 859 1102 978 963 c 0
 1097 824 1097 824 1097 542 c 0
 1097 400 1097 400 1063.5 294.5 c 0
 1030 189 1030 189 967 119 c 0
 904 49 904 49 813.5 14.5 c 0
 723 -20 723 -20 609 -20 c 0
 500 -20 500 -20 411.5 14 c 0
 323 48 323 48 260.5 118 c 0
 198 188 198 188 164 293.5 c 0
 130 399 130 399 130 542 c 0
319 542 m 0
 319 416 319 416 342.5 333.5 c 0
 366 251 366 251 405.5 202 c 0
 445 153 445 153 497.5 133 c 0
 550 113 550 113 607 113 c 0
 672 113 672 113 727.5 132.5 c 0
 783 152 783 152 823 201 c 0
 863 250 863 250 885.5 333 c 0
 908 416 908 416 908 542 c 0
 908 668 908 668 886.5 750 c 0
 865 832 865 832 826.5 881 c 0
 788 930 788 930 735 949.5 c 0
 682 969 682 969 618 969 c 0
 553 969 553 969 498 948.5 c 0
 443 928 443 928 403.5 878.5 c 0
 364 829 364 829 341.5 747 c 0
 319 665 319 665 319 542 c 0
EndSplineSet
Validated: 1
EndChar

StartChar: p
Encoding: 80 112 80
Width: 1229
VWidth: 1024
LayerCount: 2
Fore
SplineSet
179 1082 m 1
 354 1082 l 2
 355 1079 355 1079 356.5 1060.5 c 0
 358 1042 358 1042 359.5 1016 c 0
 361 990 361 990 362.5 960 c 0
 364 930 364 930 364 904 c 1
 368 904 l 1
 393 956 393 956 424.5 994 c 0
 456 1032 456 1032 496 1056.5 c 0
 536 1081 536 1081 586 1092.5 c 0
 636 1104 636 1104 698 1104 c 0
 808 1104 808 1104 883 1064 c 0
 958 1024 958 1024 1004 950.5 c 0
 1050 877 1050 877 1070 774 c 0
 1090 671 1090 671 1090 546 c 0
 1090 423 1090 423 1070 319 c 0
 1050 215 1050 215 1004 140 c 0
 958 65 958 65 883 22.5 c 0
 808 -20 808 -20 698 -20 c 0
 643 -20 643 -20 593 -10 c 0
 543 0 543 0 500 22 c 0
 457 44 457 44 423.5 79 c 0
 390 114 390 114 367 164 c 1
 362 164 l 1
 363 162 363 162 363.5 146.5 c 0
 364 131 364 131 364.5 108 c 0
 365 85 365 85 365.5 56 c 0
 366 27 366 27 366 -2 c 2
 366 -425 l 1
 185 -425 l 1
 185 858 l 2
 185 898 185 898 184.5 935 c 0
 184 972 184 972 183 1001.5 c 0
 182 1031 182 1031 181 1052 c 0
 180 1073 180 1073 179 1082 c 1
366 524 m 0
 366 409 366 409 384.5 330.5 c 0
 403 252 403 252 439 203.5 c 0
 475 155 475 155 528 134 c 0
 581 113 581 113 649 113 c 0
 722 113 722 113 771 141.5 c 0
 820 170 820 170 849.5 225 c 0
 879 280 879 280 891.5 361 c 0
 904 442 904 442 904 546 c 0
 904 646 904 646 892 724 c 0
 880 802 880 802 850.5 855.5 c 0
 821 909 821 909 772.5 937 c 0
 724 965 724 965 651 965 c 0
 592 965 592 965 540 946.5 c 0
 488 928 488 928 449.5 879.5 c 0
 411 831 411 831 388.5 745 c 0
 366 659 366 659 366 524 c 0
EndSplineSet
Validated: 1
EndChar

StartChar: q
Encoding: 81 113 81
Width: 1229
VWidth: 1024
LayerCount: 2
Fore
SplineSet
138 532 m 0
 138 813 138 813 235.5 955.5 c 0
 333 1098 333 1098 529 1098 c 0
 595 1098 595 1098 646 1087 c 0
 697 1076 697 1076 736.5 1053 c 0
 776 1030 776 1030 806.5 995.5 c 0
 837 961 837 961 861 914 c 1
 863 914 l 1
 863 939 863 939 864.5 967.5 c 0
 866 996 866 996 867.5 1020.5 c 0
 869 1045 869 1045 871.5 1062.5 c 0
 874 1080 874 1080 875 1083 c 2
 1050 1083 l 1
 1049 1074 1049 1074 1048 1054 c 0
 1047 1034 1047 1034 1046 1000 c 0
 1045 966 1045 966 1044.5 917 c 0
 1044 868 1044 868 1044 801 c 2
 1044 -425 l 1
 863 -425 l 1
 863 14 l 2
 863 40 863 40 863.5 69 c 0
 864 98 864 98 865 124 c 0
 866 154 866 154 867 182 c 1
 865 182 l 1
 840 131 840 131 808.5 92 c 0
 777 53 777 53 736.5 26.5 c 0
 696 0 696 0 645.5 -13 c 0
 595 -26 595 -26 530 -26 c 0
 328 -26 328 -26 233 114.5 c 0
 138 255 138 255 138 532 c 0
324 538 m 0
 324 432 324 432 338 352.5 c 0
 352 273 352 273 382 220 c 0
 412 167 412 167 460 140 c 0
 508 113 508 113 577 113 c 0
 636 113 636 113 688 132.5 c 0
 740 152 740 152 779 201.5 c 0
 818 251 818 251 840.5 336.5 c 0
 863 422 863 422 863 554 c 0
 863 673 863 673 843 752 c 0
 823 831 823 831 786 878 c 0
 749 925 749 925 696.5 945 c 0
 644 965 644 965 579 965 c 0
 511 965 511 965 462.5 939.5 c 0
 414 914 414 914 383.5 861.5 c 0
 353 809 353 809 338.5 728.5 c 0
 324 648 324 648 324 538 c 0
EndSplineSet
Validated: 1
EndChar

StartChar: r
Encoding: 82 114 82
Width: 1229
VWidth: 1024
LayerCount: 2
Fore
SplineSet
242 1082 m 1
 413 1082 l 1
 420 1058 420 1058 427.5 1027 c 0
 435 996 435 996 442 962.5 c 0
 449 929 449 929 454 895 c 0
 459 861 459 861 461 832 c 1
 466 832 l 1
 494 894 494 894 525 944 c 0
 556 994 556 994 598.5 1029 c 0
 641 1064 641 1064 699 1083 c 0
 757 1102 757 1102 839 1102 c 0
 895 1102 895 1102 949 1097 c 0
 1003 1092 1003 1092 1045 1085 c 1
 1045 918 l 1
 998 926 998 926 946.5 931.5 c 0
 895 937 895 937 833 937 c 0
 749 937 749 937 682 903 c 0
 615 869 615 869 569 810.5 c 0
 523 752 523 752 498.5 674 c 0
 474 596 474 596 474 508 c 2
 474 0 l 1
 294 0 l 1
 294 701 l 2
 294 757 294 757 288 815 c 0
 282 873 282 873 274 924.5 c 0
 266 976 266 976 257 1017 c 0
 248 1058 248 1058 242 1082 c 1
EndSplineSet
Validated: 1
EndChar

StartChar: s
Encoding: 83 115 83
Width: 1229
VWidth: 1024
LayerCount: 2
Fore
SplineSet
167 248 m 1
 326 279 l 1
 338 224 338 224 364.5 191.5 c 0
 391 159 391 159 428.5 142 c 0
 466 125 466 125 515 119.5 c 0
 564 114 564 114 621 114 c 0
 679 114 679 114 728.5 122.5 c 0
 778 131 778 131 814 151.5 c 0
 850 172 850 172 870.5 204.5 c 0
 891 237 891 237 891 285 c 0
 891 335 891 335 865.5 365.5 c 0
 840 396 840 396 796 417 c 0
 752 438 752 438 691.5 453 c 0
 631 468 631 468 560 487 c 0
 496 504 496 504 433 524 c 0
 370 544 370 544 320.5 576.5 c 0
 271 609 271 609 240.5 659 c 0
 210 709 210 709 210 786 c 0
 210 933 210 933 316 1016 c 0
 422 1099 422 1099 623 1099 c 0
 702 1099 702 1099 771 1084.5 c 0
 840 1070 840 1070 894 1038.5 c 0
 948 1007 948 1007 984.5 957.5 c 0
 1021 908 1021 908 1035 839 c 1
 873 819 l 1
 866 864 866 864 843 892 c 0
 820 920 820 920 786.5 936.5 c 0
 753 953 753 953 711 959 c 0
 669 965 669 965 623 965 c 0
 378 965 378 965 378 814 c 0
 378 768 378 768 399.5 739.5 c 0
 421 711 421 711 460 692 c 0
 499 673 499 673 553 659.5 c 0
 607 646 607 646 672 629 c 0
 737 613 737 613 805.5 592 c 0
 874 571 874 571 930.5 536 c 0
 987 501 987 501 1023.5 446.5 c 0
 1060 392 1060 392 1060 309 c 0
 1060 233 1060 233 1030.5 172 c 0
 1001 111 1001 111 945 68.5 c 0
 889 26 889 26 807.5 3 c 0
 726 -20 726 -20 621 -20 c 0
 527 -20 527 -20 451.5 -6.5 c 0
 376 7 376 7 319 38 c 0
 262 69 262 69 223.5 120.5 c 0
 185 172 185 172 167 248 c 1
EndSplineSet
Validated: 1
EndChar

StartChar: t
Encoding: 84 116 84
Width: 1229
VWidth: 1024
LayerCount: 2
Fore
SplineSet
190 940 m 1
 190 1082 l 1
 360 1082 l 1
 418 1364 l 1
 538 1364 l 1
 538 1082 l 1
 970 1082 l 1
 970 940 l 1
 538 940 l 1
 538 288 l 2
 538 209 538 209 580.5 171 c 0
 623 133 623 133 720 133 c 0
 760 133 760 133 802.5 136.5 c 0
 845 140 845 140 884.5 145 c 0
 924 150 924 150 958.5 156 c 0
 993 162 993 162 1017 167 c 1
 1017 30 l 1
 995 24 995 24 960 16 c 0
 925 8 925 8 881.5 1 c 0
 838 -6 838 -6 787 -11 c 0
 736 -16 736 -16 682 -16 c 0
 520 -16 520 -16 439 52.5 c 0
 358 121 358 121 358 269 c 2
 358 940 l 1
 190 940 l 1
EndSplineSet
Validated: 1
EndChar

StartChar: u
Encoding: 85 117 85
Width: 1229
VWidth: 1024
LayerCount: 2
Fore
SplineSet
185 361 m 2
 185 1082 l 1
 365 1082 l 1
 365 396 l 2
 365 317 365 317 376.5 264 c 0
 388 211 388 211 414.5 178.5 c 0
 441 146 441 146 483.5 132.5 c 0
 526 119 526 119 589 119 c 0
 653 119 653 119 704.5 141.5 c 0
 756 164 756 164 792.5 206.5 c 0
 829 249 829 249 848.5 311.5 c 0
 868 374 868 374 868 455 c 2
 868 1082 l 1
 1049 1082 l 1
 1049 231 l 2
 1049 197 1049 197 1049.5 159.5 c 0
 1050 122 1050 122 1051 88.5 c 0
 1052 55 1052 55 1053 31 c 0
 1054 7 1054 7 1055 0 c 1
 885 0 l 1
 884 5 884 5 883 27 c 0
 882 49 882 49 880.5 77.5 c 0
 879 106 879 106 878 135.5 c 0
 877 165 877 165 877 185 c 1
 874 185 l 1
 848 138 848 138 817 100 c 0
 786 62 786 62 745 35.5 c 0
 704 9 704 9 651 -5.5 c 0
 598 -20 598 -20 528 -20 c 0
 438 -20 438 -20 373 2 c 0
 308 24 308 24 266 70 c 0
 224 116 224 116 204.5 188.5 c 0
 185 261 185 261 185 361 c 2
EndSplineSet
Validated: 1
EndChar

StartChar: v
Encoding: 86 118 86
Width: 1229
VWidth: 1024
LayerCount: 2
Fore
SplineSet
69 1082 m 1
 271 1082 l 1
 539 378 l 2
 547 356 547 356 556 324.5 c 0
 565 293 565 293 575 259 c 0
 585 225 585 225 593.5 193.5 c 0
 602 162 602 162 608 141 c 1
 614 162 614 162 623.5 193.5 c 0
 633 225 633 225 643 258 c 0
 653 291 653 291 663.5 322.5 c 0
 674 354 674 354 682 376 c 2
 958 1082 l 1
 1159 1082 l 1
 715 0 l 1
 502 0 l 1
 69 1082 l 1
EndSplineSet
Validated: 1
EndChar

StartChar: w
Encoding: 87 119 87
Width: 1229
VWidth: 1024
LayerCount: 2
Fore
SplineSet
21 1082 m 1
 199 1082 l 1
 292 475 l 2
 295 451 295 451 300.5 408.5 c 0
 306 366 306 366 311.5 318 c 0
 317 270 317 270 321 224 c 0
 325 178 325 178 325 149 c 1
 336 194 336 194 347 235 c 0
 356 270 356 270 366 306.5 c 0
 376 343 376 343 383 363 c 2
 518 787 l 1
 711 787 l 1
 841 362 l 2
 847 342 847 342 856.5 306.5 c 0
 866 271 866 271 875 236 c 0
 886 195 886 195 896 149 c 1
 896 179 896 179 900 224 c 0
 904 269 904 269 910 316.5 c 0
 916 364 916 364 922 407 c 0
 928 450 928 450 931 475 c 2
 1032 1082 l 1
 1208 1082 l 1
 1018 0 l 1
 814 0 l 1
 671 471 l 2
 663 498 663 498 653 532.5 c 0
 643 567 643 567 634 599 c 0
 623 636 623 636 614 673 c 1
 605 636 605 636 594 600 c 0
 585 569 585 569 575 533.5 c 0
 565 498 565 498 555 467 c 2
 407 0 l 1
 204 0 l 1
 21 1082 l 1
EndSplineSet
Validated: 1
EndChar

StartChar: x
Encoding: 88 120 88
Width: 1229
VWidth: 1024
LayerCount: 2
Fore
SplineSet
94 0 m 1
 509 556 l 1
 112 1082 l 1
 311 1082 l 1
 611 661 l 1
 909 1082 l 1
 1110 1082 l 1
 713 558 l 1
 1133 0 l 1
 932 0 l 1
 611 444 l 1
 288 0 l 1
 94 0 l 1
EndSplineSet
Validated: 1
EndChar

StartChar: y
Encoding: 89 121 89
Width: 1229
VWidth: 1024
LayerCount: 2
Fore
SplineSet
66 1082 m 1
 258 1082 l 1
 522 440 l 2
 533 413 533 413 549 373.5 c 0
 565 334 565 334 580 295.5 c 0
 595 257 595 257 606.5 226 c 0
 618 195 618 195 620 186 c 1
 623 197 623 197 634.5 227.5 c 0
 646 258 646 258 661 295.5 c 0
 676 333 676 333 691.5 372.5 c 0
 707 412 707 412 719 441 c 2
 971 1082 l 1
 1161 1082 l 1
 705 0 l 2
 668 -98 668 -98 628 -176.5 c 0
 588 -255 588 -255 539 -310.5 c 0
 490 -366 490 -366 430 -395.5 c 0
 370 -425 370 -425 292 -425 c 0
 258 -425 258 -425 229 -423 c 0
 200 -421 200 -421 168 -414 c 1
 168 -279 l 1
 187 -282 187 -282 211 -283.5 c 0
 235 -285 235 -285 252 -285 c 0
 331 -285 331 -285 400.5 -226 c 0
 470 -167 470 -167 518 -38 c 2
 536 11 l 1
 66 1082 l 1
EndSplineSet
Validated: 1
EndChar

StartChar: z
Encoding: 90 122 90
Width: 1229
VWidth: 1024
LayerCount: 2
Fore
SplineSet
147 0 m 1
 147 137 l 1
 828 943 l 1
 187 943 l 1
 187 1082 l 1
 1031 1082 l 1
 1031 945 l 1
 349 139 l 1
 1068 139 l 1
 1068 0 l 1
 147 0 l 1
EndSplineSet
Validated: 1
EndChar

StartChar: braceleft
Encoding: 91 123 91
Width: 1229
VWidth: 1024
LayerCount: 2
Fore
SplineSet
227 461 m 1
 227 598 l 1
 278 600 278 600 327.5 613 c 0
 377 626 377 626 416 653.5 c 0
 455 681 455 681 478.5 724 c 0
 502 767 502 767 502 829 c 2
 502 1181 l 2
 502 1251 502 1251 523.5 1307 c 0
 545 1363 545 1363 584 1402.5 c 0
 623 1442 623 1442 677 1463 c 0
 731 1484 731 1484 796 1484 c 2
 1061 1484 l 1
 1061 1345 l 1
 848 1345 l 2
 803 1345 803 1345 770.5 1334.5 c 0
 738 1324 738 1324 717 1301 c 0
 696 1278 696 1278 686.5 1241 c 0
 677 1204 677 1204 677 1150 c 2
 677 804 l 2
 677 747 677 747 656.5 701 c 0
 636 655 636 655 603 620.5 c 0
 570 586 570 586 528.5 564 c 0
 487 542 487 542 446 532 c 1
 446 530 l 1
 489 520 489 520 530.5 497.5 c 0
 572 475 572 475 604.5 441 c 0
 637 407 637 407 657 360.5 c 0
 677 314 677 314 677 256 c 2
 677 -91 l 2
 677 -197 677 -197 717 -241.5 c 0
 757 -286 757 -286 848 -286 c 2
 1061 -286 l 1
 1061 -425 l 1
 796 -425 l 2
 731 -425 731 -425 677 -403 c 0
 623 -381 623 -381 584 -341 c 0
 545 -301 545 -301 523.5 -245.5 c 0
 502 -190 502 -190 502 -122 c 2
 502 229 l 2
 502 292 502 292 478.5 335.5 c 0
 455 379 455 379 416 406 c 0
 377 433 377 433 327.5 446 c 0
 278 459 278 459 227 461 c 1
EndSplineSet
Validated: 1
EndChar

StartChar: bar
Encoding: 92 124 92
Width: 1229
VWidth: 1024
LayerCount: 2
Fore
SplineSet
531 -425 m 1
 531 1484 l 1
 697 1484 l 1
 697 -425 l 1
 531 -425 l 1
EndSplineSet
Validated: 1
EndChar

StartChar: braceright
Encoding: 93 125 93
Width: 1229
VWidth: 1024
LayerCount: 2
Fore
SplineSet
167 -286 m 1
 380 -286 l 2
 471 -286 471 -286 511.5 -241.5 c 0
 552 -197 552 -197 552 -91 c 2
 552 256 l 2
 552 314 552 314 572 360.5 c 0
 592 407 592 407 624.5 441 c 0
 657 475 657 475 698 497.5 c 0
 739 520 739 520 782 530 c 1
 782 532 l 1
 741 542 741 542 700 564 c 0
 659 586 659 586 626 620.5 c 0
 593 655 593 655 572.5 701 c 0
 552 747 552 747 552 804 c 2
 552 1150 l 2
 552 1204 552 1204 542 1241 c 0
 532 1278 532 1278 511 1301 c 0
 490 1324 490 1324 457.5 1334.5 c 0
 425 1345 425 1345 380 1345 c 2
 167 1345 l 1
 167 1484 l 1
 432 1484 l 2
 497 1484 497 1484 551 1463 c 0
 605 1442 605 1442 644 1402.5 c 0
 683 1363 683 1363 704.5 1307 c 0
 726 1251 726 1251 726 1181 c 2
 726 829 l 2
 726 767 726 767 749.5 724 c 0
 773 681 773 681 812 653.5 c 0
 851 626 851 626 900.5 613 c 0
 950 600 950 600 1001 598 c 1
 1001 461 l 1
 950 459 950 459 900.5 446 c 0
 851 433 851 433 812 406 c 0
 773 379 773 379 749.5 335.5 c 0
 726 292 726 292 726 229 c 2
 726 -122 l 2
 726 -190 726 -190 704.5 -245.5 c 0
 683 -301 683 -301 644 -341 c 0
 605 -381 605 -381 551 -403 c 0
 497 -425 497 -425 432 -425 c 2
 167 -425 l 1
 167 -286 l 1
EndSplineSet
Validated: 1
EndChar

StartChar: asciitilde
Encoding: 94 126 94
Width: 1229
VWidth: 1024
LayerCount: 2
Fore
SplineSet
108 580 m 1
 108 723 l 1
 158 761 158 761 224 784 c 0
 290 807 290 807 371 807 c 0
 412 807 412 807 451.5 800.5 c 0
 491 794 491 794 529.5 784 c 0
 568 774 568 774 605.5 761 c 0
 643 748 643 748 680 735 c 0
 701 728 701 728 726 720 c 0
 751 712 751 712 776.5 705 c 0
 802 698 802 698 827.5 694 c 0
 853 690 853 690 876 690 c 0
 945 690 945 690 1006.5 715 c 0
 1068 740 1068 740 1120 782 c 1
 1120 633 l 1
 1089 611 1089 611 1059 595.5 c 0
 1029 580 1029 580 998.5 570.5 c 0
 968 561 968 561 934 557 c 0
 900 553 900 553 860 553 c 0
 791 553 791 553 718.5 575 c 0
 646 597 646 597 573 623 c 0
 444 668 444 668 356 668 c 0
 318 668 318 668 285.5 662 c 0
 253 656 253 656 223 644.5 c 0
 193 633 193 633 165 617 c 0
 137 601 137 601 108 580 c 1
EndSplineSet
Validated: 1
EndChar

StartChar: exclamdown
Encoding: 96 161 95
Width: 1229
VWidth: 1024
LayerCount: 2
Fore
SplineSet
515 -266 m 1
 539 685 l 1
 687 685 l 1
 711 -266 l 1
 515 -266 l 1
519 881 m 1
 519 1082 l 1
 713 1082 l 1
 713 881 l 1
 519 881 l 1
EndSplineSet
Validated: 1
EndChar

StartChar: cent
Encoding: 97 162 96
Width: 1229
VWidth: 1024
LayerCount: 2
Fore
SplineSet
133 656 m 0
 133 1016 133 1016 384 1144 c 0
 466 1186 466 1186 570 1195 c 1
 570 1379 l 1
 698 1379 l 1
 698 1195 l 1
 944 1175 944 1175 1044 992 c 0
 1075 936 1075 936 1088 873 c 1
 903 859 l 1
 871 1028 871 1028 698 1054 c 1
 698 274 l 1
 823 295 823 295 880 392 c 0
 903 432 903 432 912 486 c 1
 1094 474 l 1
 1064 264 1064 264 858 173 c 0
 788 142 788 142 698 134 c 1
 698 -61 l 1
 570 -61 l 1
 570 134 l 1
 356 150 356 150 242 294 c 0
 133 430 133 430 133 656 c 0
316 663.5 m 0
 316 470 316 470 400 370 c 0
 465 292 465 292 570 274 c 1
 570 1053 l 1
 460 1037 460 1037 388 947 c 0
 316 857 316 857 316 663.5 c 0
EndSplineSet
Validated: 1
EndChar

StartChar: sterling
Encoding: 98 163 97
Width: 1229
VWidth: 1024
LayerCount: 2
Fore
SplineSet
56 0 m 1
 56 154 l 1
 99 176 99 176 135 200 c 0
 171 224 171 224 196.5 259 c 0
 222 294 222 294 236.5 345 c 0
 251 396 251 396 251 471 c 2
 251 612 l 1
 65 612 l 1
 65 754 l 1
 251 754 l 1
 251 974 l 2
 251 1066 251 1066 276.5 1139.5 c 0
 302 1213 302 1213 354 1264 c 0
 406 1315 406 1315 485.5 1342.5 c 0
 565 1370 565 1370 673 1370 c 0
 747 1370 747 1370 810 1355.5 c 0
 873 1341 873 1341 923.5 1312 c 0
 974 1283 974 1283 1010 1240 c 0
 1046 1197 1046 1197 1064 1140 c 0
 1065 1140 1065 1140 1058 1137 c 0
 1051 1134 1051 1134 1039 1130 c 0
 1027 1126 1027 1126 1011.5 1121 c 0
 996 1116 996 1116 979 1111 c 0
 940 1099 940 1099 890 1083 c 1
 868 1146 868 1146 809.5 1178 c 0
 751 1210 751 1210 673 1210 c 0
 551 1210 551 1210 491 1152.5 c 0
 431 1095 431 1095 431 970 c 2
 431 754 l 1
 839 754 l 1
 839 612 l 1
 431 612 l 1
 431 473 l 2
 431 414 431 414 423.5 366 c 0
 416 318 416 318 398 279.5 c 0
 380 241 380 241 350 211 c 0
 320 181 320 181 276 158 c 1
 876 158 l 2
 935 158 935 158 963.5 184.5 c 0
 992 211 992 211 1003 264 c 1
 1171 240 l 1
 1162 197 1162 197 1146 154 c 0
 1130 111 1130 111 1103 77 c 0
 1076 43 1076 43 1035.5 21.5 c 0
 995 0 995 0 937 0 c 2
 56 0 l 1
EndSplineSet
Validated: 1
EndChar

StartChar: currency
Encoding: 99 164 98
Width: 1229
VWidth: 1024
LayerCount: 2
Fore
SplineSet
158 330 m 1
 260 432 l 1
 223 486 223 486 202.5 549.5 c 0
 182 613 182 613 182 684 c 0
 182 755 182 755 202.5 818.5 c 0
 223 882 223 882 260 936 c 1
 160 1036 l 1
 264 1139 l 1
 363 1038 l 1
 417 1077 417 1077 480.5 1098.5 c 0
 544 1120 544 1120 617 1120 c 0
 688 1120 688 1120 751 1099 c 0
 814 1078 814 1078 868 1040 c 1
 965 1137 l 1
 1069 1032 l 1
 973 936 l 1
 1010 882 1010 882 1031.5 818.5 c 0
 1053 755 1053 755 1053 684 c 0
 1053 613 1053 613 1031 549 c 0
 1009 485 1009 485 971 432 c 1
 1071 332 l 1
 969 227 l 1
 868 328 l 1
 814 291 814 291 751 270.5 c 0
 688 250 688 250 617 250 c 0
 545 250 545 250 481 271 c 0
 417 292 417 292 365 330 c 1
 260 225 l 1
 158 330 l 1
336 686 m 0
 336 628 336 628 358.5 577 c 0
 381 526 381 526 419 488 c 0
 457 450 457 450 508 428 c 0
 559 406 559 406 617 406 c 0
 674 406 674 406 725 428 c 0
 776 450 776 450 814.5 488 c 0
 853 526 853 526 875 577 c 0
 897 628 897 628 897 686 c 0
 897 744 897 744 875 795 c 0
 853 846 853 846 814.5 884.5 c 0
 776 923 776 923 725 945 c 0
 674 967 674 967 617 967 c 0
 559 967 559 967 508 945 c 0
 457 923 457 923 419 884.5 c 0
 381 846 381 846 358.5 795 c 0
 336 744 336 744 336 686 c 0
EndSplineSet
Validated: 1
EndChar

StartChar: yen
Encoding: 100 165 99
Width: 1229
VWidth: 1024
LayerCount: 2
Fore
SplineSet
52 1349 m 1
 251 1349 l 1
 612 732 l 1
 977 1349 l 1
 1176 1349 l 1
 764 679 l 1
 1085 679 l 1
 1085 537 l 1
 702 537 l 1
 702 400 l 1
 1085 400 l 1
 1085 256 l 1
 702 256 l 1
 702 0 l 1
 524 0 l 1
 524 256 l 1
 143 256 l 1
 143 400 l 1
 524 400 l 1
 526 537 l 1
 143 537 l 1
 143 679 l 1
 463 679 l 1
 52 1349 l 1
EndSplineSet
Validated: 1
EndChar

StartChar: brokenbar
Encoding: 101 166 100
Width: 1229
VWidth: 1024
LayerCount: 2
Fore
SplineSet
531 324 m 1
 697 324 l 1
 697 -455 l 1
 531 -455 l 1
 531 324 l 1
531 676 m 1
 531 1454 l 1
 697 1454 l 1
 697 676 l 1
 531 676 l 1
EndSplineSet
Validated: 1
EndChar

StartChar: section
Encoding: 102 167 101
Width: 1229
VWidth: 1024
LayerCount: 2
Fore
SplineSet
159 100 m 1
 320 131 l 1
 332 76 332 76 359.5 40.5 c 0
 387 5 387 5 426 -15.5 c 0
 465 -36 465 -36 514.5 -44 c 0
 564 -52 564 -52 621 -52 c 0
 679 -52 679 -52 730 -41.5 c 0
 781 -31 781 -31 819.5 -8.5 c 0
 858 14 858 14 880 48 c 0
 902 82 902 82 902 129 c 0
 902 183 902 183 873.5 219.5 c 0
 845 256 845 256 797.5 281.5 c 0
 750 307 750 307 688.5 324.5 c 0
 627 342 627 342 562 358 c 0
 497 373 497 373 431.5 396 c 0
 366 419 366 419 314 455.5 c 0
 262 492 262 492 229.5 545 c 0
 197 598 197 598 197 671 c 0
 197 716 197 716 213 757.5 c 0
 229 799 229 799 258.5 834.5 c 0
 288 870 288 870 330 896.5 c 0
 372 923 372 923 425 938 c 1
 383 952 383 952 345.5 975 c 0
 308 998 308 998 279.5 1030 c 0
 251 1062 251 1062 234.5 1102 c 0
 218 1142 218 1142 218 1190 c 0
 218 1329 218 1329 323.5 1406.5 c 0
 429 1484 429 1484 632 1484 c 0
 711 1484 711 1484 780 1469 c 0
 849 1454 849 1454 903 1422.5 c 0
 957 1391 957 1391 993.5 1342 c 0
 1030 1293 1030 1293 1045 1224 c 1
 884 1204 l 1
 876 1249 876 1249 853 1279.5 c 0
 830 1310 830 1310 796.5 1328.5 c 0
 763 1347 763 1347 720.5 1355.5 c 0
 678 1364 678 1364 632 1364 c 0
 507 1364 507 1364 442.5 1319.5 c 0
 378 1275 378 1275 378 1204 c 0
 378 1159 378 1159 403 1127 c 0
 428 1095 428 1095 469.5 1072 c 0
 511 1049 511 1049 565.5 1033 c 0
 620 1017 620 1017 679 1003 c 0
 747 987 747 987 816.5 964 c 0
 886 941 886 941 942 904.5 c 0
 998 868 998 868 1033 815 c 0
 1068 762 1068 762 1068 686 c 0
 1068 641 1068 641 1054 597.5 c 0
 1040 554 1040 554 1012.5 517.5 c 0
 985 481 985 481 944 453.5 c 0
 903 426 903 426 849 413 c 1
 898 392 898 392 937.5 366.5 c 0
 977 341 977 341 1004.5 309 c 0
 1032 277 1032 277 1047 236.5 c 0
 1062 196 1062 196 1062 145 c 0
 1062 72 1062 72 1033 13.5 c 0
 1004 -45 1004 -45 948 -86.5 c 0
 892 -128 892 -128 810 -150 c 0
 728 -172 728 -172 621 -172 c 0
 528 -172 528 -172 451 -158.5 c 0
 374 -145 374 -145 315.5 -113 c 0
 257 -81 257 -81 217.5 -29 c 0
 178 23 178 23 159 100 c 1
357 684 m 0
 357 638 357 638 381.5 605 c 0
 406 572 406 572 447 548 c 0
 488 524 488 524 542 507 c 0
 596 490 596 490 656 475 c 1
 710 476 710 476 756.5 488 c 0
 803 500 803 500 837 523.5 c 0
 871 547 871 547 890.5 582 c 0
 910 617 910 617 910 663 c 0
 910 711 910 711 883.5 745.5 c 0
 857 780 857 780 813 805.5 c 0
 769 831 769 831 712.5 848.5 c 0
 656 866 656 866 595 880 c 1
 537 877 537 877 492.5 860.5 c 0
 448 844 448 844 418 818 c 0
 388 792 388 792 372.5 757.5 c 0
 357 723 357 723 357 684 c 0
EndSplineSet
Validated: 1
EndChar

StartChar: dieresis
Encoding: 103 168 102
Width: 1229
VWidth: 1024
LayerCount: 2
Fore
SplineSet
335 1219 m 1
 335 1403 l 1
 500 1403 l 1
 500 1219 l 1
 335 1219 l 1
729 1219 m 1
 729 1403 l 1
 892 1403 l 1
 892 1219 l 1
 729 1219 l 1
EndSplineSet
Validated: 1
EndChar

StartChar: copyright
Encoding: 104 169 103
Width: 1229
VWidth: 1024
LayerCount: 2
Fore
SplineSet
31 761 m 0
 31 948 31 948 77 1084.5 c 0
 123 1221 123 1221 202 1309.5 c 0
 281 1398 281 1398 387 1441 c 0
 493 1484 493 1484 614 1484 c 0
 735 1484 735 1484 841.5 1441 c 0
 948 1398 948 1398 1027 1309.5 c 0
 1106 1221 1106 1221 1151.5 1084.5 c 0
 1197 948 1197 948 1197 761 c 0
 1197 574 1197 574 1151.5 437.5 c 0
 1106 301 1106 301 1027 212 c 0
 948 123 948 123 841.5 80.5 c 0
 735 38 735 38 614 38 c 0
 494 38 494 38 388 80.5 c 0
 282 123 282 123 202.5 212 c 0
 123 301 123 301 77 437.5 c 0
 31 574 31 574 31 761 c 0
126 761 m 0
 126 593 126 593 164.5 473.5 c 0
 203 354 203 354 269 278 c 0
 335 202 335 202 424 167 c 0
 513 132 513 132 614 132 c 0
 716 132 716 132 805 167 c 0
 894 202 894 202 961 278 c 0
 1028 354 1028 354 1066.5 473.5 c 0
 1105 593 1105 593 1105 761 c 0
 1105 928 1105 928 1066.5 1047 c 0
 1028 1166 1028 1166 961 1242 c 0
 894 1318 894 1318 805 1353.5 c 0
 716 1389 716 1389 614 1389 c 0
 513 1389 513 1389 424 1353.5 c 0
 335 1318 335 1318 269 1242 c 0
 203 1166 203 1166 164.5 1047 c 0
 126 928 126 928 126 761 c 0
269 763 m 0
 269 861 269 861 290.5 939 c 0
 312 1017 312 1017 355 1072.5 c 0
 398 1128 398 1128 463 1157.5 c 0
 528 1187 528 1187 615 1187 c 0
 682 1187 682 1187 731.5 1169 c 0
 781 1151 781 1151 817 1121.5 c 0
 853 1092 853 1092 877.5 1054.5 c 0
 902 1017 902 1017 918 978 c 1
 804 945 l 1
 794 971 794 971 778 996 c 0
 762 1021 762 1021 739 1040 c 0
 716 1059 716 1059 686 1070.5 c 0
 656 1082 656 1082 617 1082 c 0
 559 1082 559 1082 517.5 1059 c 0
 476 1036 476 1036 449.5 994.5 c 0
 423 953 423 953 410.5 894 c 0
 398 835 398 835 398 763 c 0
 398 691 398 691 412 631 c 0
 426 571 426 571 454 528 c 0
 482 485 482 485 524 461 c 0
 566 437 566 437 622 437 c 0
 663 437 663 437 694.5 450.5 c 0
 726 464 726 464 749.5 486.5 c 0
 773 509 773 509 789.5 537 c 0
 806 565 806 565 818 593 c 1
 933 558 l 1
 914 515 914 515 888 474.5 c 0
 862 434 862 434 825 402.5 c 0
 788 371 788 371 738.5 352 c 0
 689 333 689 333 622 333 c 0
 532 333 532 333 465.5 365 c 0
 399 397 399 397 355.5 454 c 0
 312 511 312 511 290.5 590 c 0
 269 669 269 669 269 763 c 0
EndSplineSet
Validated: 1
EndChar

StartChar: ordfeminine
Encoding: 105 170 104
Width: 1229
VWidth: 1024
LayerCount: 2
Fore
SplineSet
206 870 m 0
 206 939 206 939 235 985 c 0
 264 1031 264 1031 313.5 1059 c 0
 363 1087 363 1087 428 1099 c 0
 493 1111 493 1111 564 1112 c 2
 755 1116 l 1
 755 1159 l 2
 755 1252 755 1252 708 1296.5 c 0
 661 1341 661 1341 575 1341 c 0
 491 1341 491 1341 445 1307 c 0
 399 1273 399 1273 388 1196 c 1
 239 1206 l 1
 247 1253 247 1253 271 1294 c 0
 295 1335 295 1335 337 1366 c 0
 379 1397 379 1397 439.5 1414.5 c 0
 500 1432 500 1432 579 1432 c 0
 732 1432 732 1432 815 1365 c 0
 898 1298 898 1298 898 1165 c 2
 898 874 l 2
 898 816 898 816 913.5 786 c 0
 929 756 929 756 972 756 c 0
 984 756 984 756 998 758.5 c 0
 1012 761 1012 761 1021 764 c 1
 1021 670 l 1
 998 664 998 664 970 660.5 c 0
 942 657 942 657 919 657 c 0
 837 657 837 657 799.5 699.5 c 0
 762 742 762 742 759 817 c 1
 755 817 l 1
 712 740 712 740 639 695.5 c 0
 566 651 566 651 464 651 c 0
 343 651 343 651 274.5 708 c 0
 206 765 206 765 206 870 c 0
353 890 m 0
 353 862 353 862 362 837 c 0
 371 812 371 812 390 793 c 0
 409 774 409 774 437.5 763 c 0
 466 752 466 752 505 752 c 0
 564 752 564 752 610 774.5 c 0
 656 797 656 797 688.5 831 c 0
 721 865 721 865 738 905.5 c 0
 755 946 755 946 755 983 c 2
 755 1034 l 1
 601 1030 l 2
 551 1029 551 1029 506 1022.5 c 0
 461 1016 461 1016 427 1001 c 0
 393 986 393 986 373 959.5 c 0
 353 933 353 933 353 890 c 0
EndSplineSet
Validated: 1
EndChar

StartChar: guillemotleft
Encoding: 106 171 105
Width: 1229
VWidth: 1024
LayerCount: 2
Fore
SplineSet
127 506 m 1
 127 569 l 1
 463 940 l 1
 640 940 l 1
 640 909 l 1
 305 537 l 1
 642 170 l 1
 642 141 l 1
 463 141 l 1
 127 506 l 1
602 506 m 1
 602 569 l 1
 940 940 l 1
 1118 940 l 1
 1118 909 l 1
 780 537 l 1
 1120 170 l 1
 1120 141 l 1
 940 141 l 1
 602 506 l 1
EndSplineSet
Validated: 1
EndChar

StartChar: logicalnot
Encoding: 107 172 106
Width: 1229
VWidth: 1024
LayerCount: 2
Fore
SplineSet
116 608 m 1
 116 754 l 1
 1111 754 l 1
 1111 180 l 1
 966 180 l 1
 966 608 l 1
 116 608 l 1
EndSplineSet
Validated: 1
EndChar

StartChar: uni00AD
Encoding: 108 173 107
Width: 1229
VWidth: 1024
LayerCount: 2
Fore
SplineSet
334 464 m 1
 334 624 l 1
 894 624 l 1
 894 464 l 1
 334 464 l 1
EndSplineSet
Validated: 1
EndChar

StartChar: registered
Encoding: 109 174 108
Width: 1229
VWidth: 1024
LayerCount: 2
Fore
SplineSet
31 761 m 0
 31 948 31 948 77 1084.5 c 0
 123 1221 123 1221 202 1309.5 c 0
 281 1398 281 1398 387 1441 c 0
 493 1484 493 1484 614 1484 c 0
 735 1484 735 1484 841.5 1441 c 0
 948 1398 948 1398 1027 1309.5 c 0
 1106 1221 1106 1221 1151.5 1084.5 c 0
 1197 948 1197 948 1197 761 c 0
 1197 574 1197 574 1151.5 437.5 c 0
 1106 301 1106 301 1027 212 c 0
 948 123 948 123 841.5 80.5 c 0
 735 38 735 38 614 38 c 0
 494 38 494 38 388 80.5 c 0
 282 123 282 123 202.5 212 c 0
 123 301 123 301 77 437.5 c 0
 31 574 31 574 31 761 c 0
126 761 m 0
 126 593 126 593 164.5 473.5 c 0
 203 354 203 354 269 278 c 0
 335 202 335 202 424 167 c 0
 513 132 513 132 614 132 c 0
 716 132 716 132 805 167 c 0
 894 202 894 202 961 278 c 0
 1028 354 1028 354 1066.5 473.5 c 0
 1105 593 1105 593 1105 761 c 0
 1105 928 1105 928 1066.5 1047 c 0
 1028 1166 1028 1166 961 1242 c 0
 894 1318 894 1318 805 1353.5 c 0
 716 1389 716 1389 614 1389 c 0
 513 1389 513 1389 424 1353.5 c 0
 335 1318 335 1318 269 1242 c 0
 203 1166 203 1166 164.5 1047 c 0
 126 928 126 928 126 761 c 0
328 343 m 1
 328 1174 l 1
 635 1174 l 2
 777 1174 777 1174 852.5 1111 c 0
 928 1048 928 1048 928 937 c 0
 928 835 928 835 876 773.5 c 0
 824 712 824 712 739 693 c 1
 960 343 l 1
 815 343 l 1
 616 679 l 1
 455 679 l 1
 455 343 l 1
 328 343 l 1
455 775 m 1
 637 775 l 2
 717 775 717 775 759 817.5 c 0
 801 860 801 860 801 935 c 0
 801 1004 801 1004 753.5 1040 c 0
 706 1076 706 1076 625 1076 c 2
 455 1076 l 1
 455 775 l 1
EndSplineSet
Validated: 1
EndChar

StartChar: macron
Encoding: 110 175 109
Width: 1229
VWidth: 1024
LayerCount: 2
Fore
SplineSet
-5 1522 m 1
 -5 1618 l 1
 1233 1618 l 1
 1233 1522 l 1
 -5 1522 l 1
EndSplineSet
Validated: 1
EndChar

StartChar: degree
Encoding: 111 176 110
Width: 1229
VWidth: 1024
LayerCount: 2
Fore
SplineSet
327 1085 m 0
 327 1145 327 1145 350 1197 c 0
 373 1249 373 1249 412 1287.5 c 0
 451 1326 451 1326 503 1348 c 0
 555 1370 555 1370 614 1370 c 0
 673 1370 673 1370 725.5 1348 c 0
 778 1326 778 1326 817 1287.5 c 0
 856 1249 856 1249 878.5 1197 c 0
 901 1145 901 1145 901 1085 c 0
 901 1026 901 1026 878.5 974 c 0
 856 922 856 922 817 883.5 c 0
 778 845 778 845 725.5 822.5 c 0
 673 800 673 800 614 800 c 0
 555 800 555 800 503 822.5 c 0
 451 845 451 845 412 883.5 c 0
 373 922 373 922 350 974 c 0
 327 1026 327 1026 327 1085 c 0
436 1085 m 0
 436 1048 436 1048 450 1015.5 c 0
 464 983 464 983 488 958.5 c 0
 512 934 512 934 544.5 919.5 c 0
 577 905 577 905 614 905 c 0
 652 905 652 905 684.5 919.5 c 0
 717 934 717 934 741 958.5 c 0
 765 983 765 983 778.5 1015.5 c 0
 792 1048 792 1048 792 1085 c 0
 792 1123 792 1123 778.5 1155.5 c 0
 765 1188 765 1188 741 1212.5 c 0
 717 1237 717 1237 684.5 1251 c 0
 652 1265 652 1265 614 1265 c 0
 577 1265 577 1265 544.5 1251 c 0
 512 1237 512 1237 488 1212.5 c 0
 464 1188 464 1188 450 1155.5 c 0
 436 1123 436 1123 436 1085 c 0
EndSplineSet
Validated: 1
EndChar

StartChar: plusminus
Encoding: 112 177 111
Width: 1229
VWidth: 1024
LayerCount: 2
Fore
SplineSet
116 0 m 1
 116 145 l 1
 1111 145 l 1
 1111 0 l 1
 116 0 l 1
116 680 m 1
 116 825 l 1
 540 825 l 1
 540 1219 l 1
 687 1219 l 1
 687 825 l 1
 1111 825 l 1
 1111 680 l 1
 687 680 l 1
 687 285 l 1
 540 285 l 1
 540 680 l 1
 116 680 l 1
EndSplineSet
Validated: 1
EndChar

StartChar: uni00B2
Encoding: 113 178 112
Width: 1229
VWidth: 1024
LayerCount: 2
Fore
SplineSet
312 666 m 1
 339 727 339 727 383 774.5 c 0
 427 822 427 822 477 862 c 0
 527 902 527 902 578.5 937.5 c 0
 630 973 630 973 671 1009.5 c 0
 712 1046 712 1046 738 1087 c 0
 764 1128 764 1128 764 1178 c 0
 764 1240 764 1240 728.5 1277.5 c 0
 693 1315 693 1315 619 1315 c 0
 551 1315 551 1315 507 1278.5 c 0
 463 1242 463 1242 455 1174 c 1
 322 1182 l 1
 328 1233 328 1233 351 1276.5 c 0
 374 1320 374 1320 412 1352 c 0
 450 1384 450 1384 504 1402.5 c 0
 558 1421 558 1421 625 1421 c 0
 756 1421 756 1421 828.5 1357.5 c 0
 901 1294 901 1294 901 1182 c 0
 901 1121 901 1121 874 1072 c 0
 847 1023 847 1023 804.5 982 c 0
 762 941 762 941 710.5 904.5 c 0
 659 868 659 868 609.5 831.5 c 0
 560 795 560 795 518.5 756 c 0
 477 717 477 717 455 670 c 1
 914 670 l 1
 916 563 l 1
 314 563 l 1
 312 666 l 1
EndSplineSet
Validated: 1
EndChar

StartChar: uni00B3
Encoding: 114 179 113
Width: 1229
VWidth: 1024
LayerCount: 2
Fore
SplineSet
306 778 m 1
 442 791 l 1
 451 724 451 724 495 689.5 c 0
 539 655 539 655 624 655 c 0
 701 655 701 655 742.5 691 c 0
 784 727 784 727 784 803 c 0
 784 848 784 848 765.5 875 c 0
 747 902 747 902 719 916.5 c 0
 691 931 691 931 657.5 935.5 c 0
 624 940 624 940 595 940 c 2
 534 940 l 1
 534 1049 l 1
 591 1049 l 2
 620 1049 620 1049 650.5 1055.5 c 0
 681 1062 681 1062 706 1077.5 c 0
 731 1093 731 1093 747 1119.5 c 0
 763 1146 763 1146 763 1186 c 0
 763 1246 763 1246 726 1280.5 c 0
 689 1315 689 1315 618 1315 c 0
 550 1315 550 1315 508 1280 c 0
 466 1245 466 1245 460 1180 c 1
 325 1192 l 1
 332 1250 332 1250 357 1293 c 0
 382 1336 382 1336 421.5 1364.5 c 0
 461 1393 461 1393 512.5 1407 c 0
 564 1421 564 1421 622 1421 c 0
 691 1421 691 1421 743 1404.5 c 0
 795 1388 795 1388 830 1358.5 c 0
 865 1329 865 1329 882.5 1289.5 c 0
 900 1250 900 1250 900 1204 c 0
 900 1129 900 1129 857 1074 c 0
 814 1019 814 1019 724 999 c 1
 724 997 l 1
 776 992 776 992 813.5 973.5 c 0
 851 955 851 955 875 928 c 0
 899 901 899 901 910 867 c 0
 921 833 921 833 921 795 c 0
 921 679 921 679 843.5 615 c 0
 766 551 766 551 624 551 c 0
 537 551 537 551 479 570.5 c 0
 421 590 421 590 384.5 622 c 0
 348 654 348 654 330 694.5 c 0
 312 735 312 735 306 778 c 1
EndSplineSet
Validated: 1
EndChar

StartChar: acute
Encoding: 115 180 114
Width: 1229
VWidth: 1024
LayerCount: 2
Fore
SplineSet
402 1201 m 1
 402 1221 l 1
 629 1460 l 1
 826 1460 l 1
 826 1431 l 1
 526 1201 l 1
 402 1201 l 1
EndSplineSet
Validated: 1
EndChar

StartChar: mu
Encoding: 116 181 115
Width: 1229
VWidth: 1024
LayerCount: 2
Fore
SplineSet
144 -393 m 1
 144 1082 l 1
 326 1082 l 1
 326 438 l 2
 326 369 326 369 339.5 311 c 0
 353 253 353 253 384.5 210.5 c 0
 416 168 416 168 466.5 144.5 c 0
 517 121 517 121 590 121 c 0
 657 121 657 121 713 147 c 0
 769 173 769 173 810 218.5 c 0
 851 264 851 264 874 327 c 0
 897 390 897 390 897 465 c 2
 897 1082 l 1
 1078 1082 l 1
 1078 233 l 2
 1078 199 1078 199 1078.5 161 c 0
 1079 123 1079 123 1080 89.5 c 0
 1081 56 1081 56 1082 31.5 c 0
 1083 7 1083 7 1084 0 c 1
 916 0 l 1
 915 6 915 6 913.5 30.5 c 0
 912 55 912 55 910.5 86 c 0
 909 117 909 117 907.5 148.5 c 0
 906 180 906 180 906 199 c 1
 902 199 l 1
 849 90 849 90 765.5 35 c 0
 682 -20 682 -20 568 -20 c 0
 486 -20 486 -20 422 12 c 0
 358 44 358 44 326 102 c 1
 322 102 l 1
 325 70 325 70 325.5 38.5 c 0
 326 7 326 7 326 -20 c 2
 326 -393 l 1
 144 -393 l 1
EndSplineSet
Validated: 1
EndChar

StartChar: paragraph
Encoding: 117 182 116
Width: 1229
VWidth: 1024
LayerCount: 2
Fore
SplineSet
127 989 m 0
 127 1073 127 1073 152 1139.5 c 0
 177 1206 177 1206 224.5 1252.5 c 0
 272 1299 272 1299 341 1324 c 0
 410 1349 410 1349 497 1349 c 2
 1080 1349 l 1
 1080 1227 l 1
 951 1227 l 1
 951 -324 l 1
 819 -324 l 1
 819 1227 l 1
 622 1227 l 1
 622 -324 l 1
 489 -324 l 1
 489 634 l 1
 409 634 409 634 342.5 656.5 c 0
 276 679 276 679 228 723 c 0
 180 767 180 767 153.5 834 c 0
 127 901 127 901 127 989 c 0
EndSplineSet
Validated: 1
EndChar

StartChar: periodcentered
Encoding: 118 183 117
Width: 1229
VWidth: 1024
LayerCount: 2
Fore
SplineSet
496 420 m 1
 496 719 l 1
 731 719 l 1
 731 420 l 1
 496 420 l 1
EndSplineSet
Validated: 1
EndChar

StartChar: cedilla
Encoding: 119 184 118
Width: 1229
VWidth: 1024
LayerCount: 2
Fore
SplineSet
119 -342 m 1
 169 -348 169 -348 205 -348 c 0
 246 -348 246 -348 274.5 -341.5 c 0
 303 -335 303 -335 320 -324 c 0
 337 -313 337 -313 344.5 -297 c 0
 352 -281 352 -281 352 -262 c 0
 352 -222 352 -222 321.5 -201 c 0
 291 -180 291 -180 219 -180 c 2
 190.5 -180 l 1
 162 -182 l 1
 227 0 l 1
 334 0 l 1
 295 -100 l 1
 389 -103 389 -103 436 -144.5 c 0
 483 -186 483 -186 483 -258 c 0
 483 -300 483 -300 468 -334.5 c 0
 453 -369 453 -369 420.5 -393.5 c 0
 388 -418 388 -418 336 -431 c 0
 284 -444 284 -444 209 -444 c 0
 189 -444 189 -444 166.5 -443.5 c 0
 144 -443 144 -443 119 -440 c 1
 119 -342 l 1
EndSplineSet
Validated: 524289
EndChar

StartChar: uni00B9
Encoding: 120 185 119
Width: 1229
VWidth: 1024
LayerCount: 2
Fore
SplineSet
285 1165 m 1
 285 1274 l 1
 333 1274 333 1274 376.5 1283 c 0
 420 1292 420 1292 456.5 1309.5 c 0
 493 1327 493 1327 521 1352 c 0
 549 1377 549 1377 566 1410 c 1
 687 1410 l 1
 687 670 l 1
 923 670 l 1
 923 563 l 1
 291 563 l 1
 291 670 l 1
 556 670 l 1
 556 1280 l 1
 543 1254 543 1254 515.5 1233 c 0
 488 1212 488 1212 451 1197 c 0
 414 1182 414 1182 371 1173.5 c 0
 328 1165 328 1165 285 1165 c 1
EndSplineSet
Validated: 1
EndChar

StartChar: ordmasculine
Encoding: 121 186 120
Width: 1229
VWidth: 1024
LayerCount: 2
Fore
SplineSet
226 1042 m 0
 226 1126 226 1126 250 1197.5 c 0
 274 1269 274 1269 322.5 1321 c 0
 371 1373 371 1373 444 1402.5 c 0
 517 1432 517 1432 615 1432 c 0
 718 1432 718 1432 791.5 1403 c 0
 865 1374 865 1374 911.5 1322 c 0
 958 1270 958 1270 980 1198.5 c 0
 1002 1127 1002 1127 1002 1042 c 0
 1002 955 1002 955 977.5 883.5 c 0
 953 812 953 812 904 760 c 0
 855 708 855 708 782 679.5 c 0
 709 651 709 651 611 651 c 0
 518 651 518 651 446 679.5 c 0
 374 708 374 708 325.5 760 c 0
 277 812 277 812 251.5 883.5 c 0
 226 955 226 955 226 1042 c 0
378 1042 m 0
 378 966 378 966 395 911.5 c 0
 412 857 412 857 442.5 822.5 c 0
 473 788 473 788 515.5 772 c 0
 558 756 558 756 609 756 c 0
 726 756 726 756 789.5 822.5 c 0
 853 889 853 889 853 1042 c 0
 853 1193 853 1193 793 1260 c 0
 733 1327 733 1327 619 1327 c 0
 503 1327 503 1327 440.5 1259 c 0
 378 1191 378 1191 378 1042 c 0
EndSplineSet
Validated: 1
EndChar

StartChar: guillemotright
Encoding: 122 187 121
Width: 1229
VWidth: 1024
LayerCount: 2
Fore
SplineSet
107 141 m 1
 107 170 l 1
 445 537 l 1
 109 909 l 1
 109 940 l 1
 287 940 l 1
 622 569 l 1
 622 506 l 1
 287 141 l 1
 107 141 l 1
584 141 m 1
 584 170 l 1
 922 537 l 1
 586 909 l 1
 586 940 l 1
 762 940 l 1
 1100 569 l 1
 1100 506 l 1
 762 141 l 1
 584 141 l 1
EndSplineSet
Validated: 1
EndChar

StartChar: onequarter
Encoding: 123 188 122
Width: 1229
VWidth: 1024
LayerCount: 2
Fore
SplineSet
27 1114 m 1
 27 1233 l 1
 45 1233 45 1233 69 1239 c 0
 93 1245 93 1245 118.5 1258.5 c 0
 144 1272 144 1272 167.5 1294 c 0
 191 1316 191 1316 208 1349 c 1
 329 1349 l 1
 329 696 l 1
 445 696 l 1
 445 589 l 1
 63 589 l 1
 63 696 l 1
 198 696 l 1
 198 1209 l 1
 185 1183 185 1183 161.5 1165 c 0
 138 1147 138 1147 112.5 1135.5 c 0
 87 1124 87 1124 63.5 1119 c 0
 40 1114 40 1114 27 1114 c 1
204 0 m 1
 907 1349 l 1
 1022 1349 l 1
 322 0 l 1
 204 0 l 1
605 162 m 1
 605 261 l 1
 966 763 l 1
 1107 763 l 1
 1107 263 l 1
 1229 263 l 1
 1229 162 l 1
 1107 162 l 1
 1107 1 l 1
 980 1 l 1
 980 162 l 1
 605 162 l 1
715 263 m 1
 980 263 l 1
 980 523 l 1
 980 552 l 1
 980 583.5 l 1
 980.5 612.5 l 1
 981 635 l 1
 975 626 975 626 964.5 610.5 c 0
 954 595 954 595 942 578 c 0
 930 561 930 561 918.5 545 c 0
 907 529 907 529 900 519 c 2
 715 263 l 1
EndSplineSet
Validated: 524289
EndChar

StartChar: onehalf
Encoding: 124 189 123
Width: 1229
VWidth: 1024
LayerCount: 2
Fore
SplineSet
17 1114 m 1
 17 1233 l 1
 35 1233 35 1233 59 1239 c 0
 83 1245 83 1245 108.5 1258.5 c 0
 134 1272 134 1272 157.5 1294 c 0
 181 1316 181 1316 198 1349 c 1
 319 1349 l 1
 319 696 l 1
 435 696 l 1
 435 589 l 1
 53 589 l 1
 53 696 l 1
 188 696 l 1
 188 1209 l 1
 175 1183 175 1183 151.5 1165 c 0
 128 1147 128 1147 102.5 1135.5 c 0
 77 1124 77 1124 53.5 1119 c 0
 30 1114 30 1114 17 1114 c 1
188 0 m 1
 891 1349 l 1
 1006 1349 l 1
 306 0 l 1
 188 0 l 1
678 1 m 1
 678 98 l 1
 702 153 702 153 739 195.5 c 0
 776 238 776 238 818 274 c 0
 860 310 860 310 902 341.5 c 0
 944 373 944 373 978 405 c 0
 1012 437 1012 437 1033 472.5 c 0
 1054 508 1054 508 1054 552 c 0
 1054 609 1054 609 1028.5 641 c 0
 1003 673 1003 673 943 673 c 0
 882 673 882 673 852.5 642 c 0
 823 611 823 611 815 550 c 1
 685 555 l 1
 691 602 691 602 710.5 642 c 0
 730 682 730 682 762.5 711 c 0
 795 740 795 740 841 756.5 c 0
 887 773 887 773 948 773 c 0
 1068 773 1068 773 1128.5 717 c 0
 1189 661 1189 661 1189 558 c 0
 1189 503 1189 503 1166 458.5 c 0
 1143 414 1143 414 1107.5 376.5 c 0
 1072 339 1072 339 1029 306.5 c 0
 986 274 986 274 945 242.5 c 0
 904 211 904 211 870 178.5 c 0
 836 146 836 146 820 108 c 1
 1200 108 l 1
 1200 1 l 1
 678 1 l 1
EndSplineSet
Validated: 1
EndChar

StartChar: threequarters
Encoding: 125 190 124
Width: 1229
VWidth: 1024
LayerCount: 2
Fore
SplineSet
11 783 m 1
 147 796 l 1
 156 736 156 736 188.5 705.5 c 0
 221 675 221 675 269 675 c 0
 323 675 323 675 356 705 c 0
 389 735 389 735 389 800 c 0
 389 837 389 837 376.5 860.5 c 0
 364 884 364 884 343.5 897 c 0
 323 910 323 910 296 915 c 0
 269 920 269 920 240 920 c 2
 199 920 l 1
 199 1029 l 1
 236 1029 l 2
 304 1029 304 1029 336 1057.5 c 0
 368 1086 368 1086 368 1152 c 0
 368 1205 368 1205 341 1230 c 0
 314 1255 314 1255 273 1255 c 0
 228 1255 228 1255 195 1223.5 c 0
 162 1192 162 1192 156 1135 c 1
 21 1147 l 1
 28 1201 28 1201 50 1241 c 0
 72 1281 72 1281 106 1308 c 0
 140 1335 140 1335 182.5 1348 c 0
 225 1361 225 1361 273 1361 c 0
 331 1361 331 1361 374.5 1345.5 c 0
 418 1330 418 1330 447 1302.5 c 0
 476 1275 476 1275 490.5 1238 c 0
 505 1201 505 1201 505 1159 c 0
 505 1093 505 1093 471.5 1050.5 c 0
 438 1008 438 1008 369 982 c 1
 369 980 l 1
 451 962 451 962 488.5 912 c 0
 526 862 526 862 526 794 c 0
 526 740 526 740 506.5 698.5 c 0
 487 657 487 657 453 628.5 c 0
 419 600 419 600 372 585.5 c 0
 325 571 325 571 269 571 c 0
 205 571 205 571 159 589.5 c 0
 113 608 113 608 82 638 c 0
 51 668 51 668 34 706 c 0
 17 744 17 744 11 783 c 1
229 0 m 1
 932 1349 l 1
 1047 1349 l 1
 347 0 l 1
 229 0 l 1
605 162 m 1
 605 261 l 1
 966 763 l 1
 1107 763 l 1
 1107 263 l 1
 1229 263 l 1
 1229 162 l 1
 1107 162 l 1
 1107 1 l 1
 980 1 l 1
 980 162 l 1
 605 162 l 1
715 263 m 1
 980 263 l 1
 980 523 l 1
 980 552 l 1
 980 583.5 l 1
 980.5 612.5 l 1
 981 635 l 1
 975 626 975 626 964.5 610.5 c 0
 954 595 954 595 942 578 c 0
 930 561 930 561 918.5 545 c 0
 907 529 907 529 900 519 c 2
 715 263 l 1
EndSplineSet
Validated: 524289
EndChar

StartChar: questiondown
Encoding: 126 191 125
Width: 1229
VWidth: 1024
LayerCount: 2
Fore
SplineSet
153 79 m 0
 153 148 153 148 171.5 200 c 0
 190 252 190 252 221 293 c 0
 252 334 252 334 291.5 367 c 0
 331 400 331 400 372 429.5 c 0
 413 459 413 459 452.5 488.5 c 0
 492 518 492 518 523.5 552 c 0
 555 586 555 586 574.5 627.5 c 0
 594 669 594 669 595 724 c 1
 770 724 l 1
 768 657 768 657 748.5 606 c 0
 729 555 729 555 698 514.5 c 0
 667 474 667 474 628 441.5 c 0
 589 409 589 409 549 379.5 c 0
 509 350 509 350 470.5 320.5 c 0
 432 291 432 291 402 257 c 0
 372 223 372 223 353.5 181.5 c 0
 335 140 335 140 335 87 c 0
 335 32 335 32 355.5 -10 c 0
 376 -52 376 -52 414.5 -80.5 c 0
 453 -109 453 -109 507.5 -124 c 0
 562 -139 562 -139 630 -139 c 0
 698 -139 698 -139 753.5 -120 c 0
 809 -101 809 -101 850 -65.5 c 0
 891 -30 891 -30 916 20.5 c 0
 941 71 941 71 948 133 c 1
 1132 121 l 1
 1120 31 1120 31 1083 -44.5 c 0
 1046 -120 1046 -120 983 -174 c 0
 920 -228 920 -228 832.5 -258.5 c 0
 745 -289 745 -289 632 -289 c 0
 524 -289 524 -289 435.5 -265 c 0
 347 -241 347 -241 284 -194.5 c 0
 221 -148 221 -148 187 -79.5 c 0
 153 -11 153 -11 153 79 c 0
583 880 m 1
 583 1081 l 1
 778 1081 l 1
 778 880 l 1
 583 880 l 1
EndSplineSet
Validated: 1
EndChar

StartChar: Agrave
Encoding: 127 192 126
Width: 1229
VWidth: 1024
LayerCount: 2
Fore
SplineSet
0 0 m 1
 510 1349 l 1
 727 1349 l 1
 1228 0 l 1
 1034 0 l 1
 896 382 l 1
 333 382 l 1
 196 0 l 1
 0 0 l 1
309 1674 m 1
 309 1703 l 1
 506 1703 l 1
 733 1464 l 1
 733 1444 l 1
 609 1444 l 1
 309 1674 l 1
384 531 m 1
 847 531 l 1
 701 954 l 2
 688 992 688 992 674 1031 c 0
 660 1070 660 1070 648.5 1105 c 0
 637 1140 637 1140 628.5 1166.5 c 0
 620 1193 620 1193 616 1205 c 1
 612 1193 612 1193 604 1166 c 0
 596 1139 596 1139 584.5 1104 c 0
 573 1069 573 1069 560.5 1030 c 0
 548 991 548 991 535 954 c 2
 384 531 l 1
EndSplineSet
Validated: 1
EndChar

StartChar: Aacute
Encoding: 128 193 127
Width: 1229
VWidth: 1024
LayerCount: 2
Fore
SplineSet
0 0 m 1
 510 1349 l 1
 727 1349 l 1
 1228 0 l 1
 1034 0 l 1
 896 382 l 1
 333 382 l 1
 196 0 l 1
 0 0 l 1
384 531 m 1
 847 531 l 1
 701 954 l 2
 688 992 688 992 674 1031 c 0
 660 1070 660 1070 648.5 1105 c 0
 637 1140 637 1140 628.5 1166.5 c 0
 620 1193 620 1193 616 1205 c 1
 612 1193 612 1193 604 1166 c 0
 596 1139 596 1139 584.5 1104 c 0
 573 1069 573 1069 560.5 1030 c 0
 548 991 548 991 535 954 c 2
 384 531 l 1
495 1445 m 1
 495 1465 l 1
 722 1704 l 1
 919 1704 l 1
 919 1675 l 1
 619 1445 l 1
 495 1445 l 1
EndSplineSet
Validated: 1
EndChar

StartChar: Acircumflex
Encoding: 129 194 128
Width: 1229
VWidth: 1024
LayerCount: 2
Fore
SplineSet
0 0 m 1
 510 1349 l 1
 727 1349 l 1
 1228 0 l 1
 1034 0 l 1
 896 382 l 1
 333 382 l 1
 196 0 l 1
 0 0 l 1
283 1445 m 1
 283 1465 l 1
 537 1704 l 1
 701 1704 l 1
 945 1465 l 1
 945 1445 l 1
 840 1445 l 1
 621 1583 l 1
 619 1583 l 1
 387 1445 l 1
 283 1445 l 1
384 531 m 1
 847 531 l 1
 701 954 l 2
 688 992 688 992 674 1031 c 0
 660 1070 660 1070 648.5 1105 c 0
 637 1140 637 1140 628.5 1166.5 c 0
 620 1193 620 1193 616 1205 c 1
 612 1193 612 1193 604 1166 c 0
 596 1139 596 1139 584.5 1104 c 0
 573 1069 573 1069 560.5 1030 c 0
 548 991 548 991 535 954 c 2
 384 531 l 1
EndSplineSet
Validated: 1
EndChar

StartChar: Atilde
Encoding: 130 195 129
Width: 1229
VWidth: 1024
LayerCount: 2
Fore
SplineSet
0 0 m 1
 510 1349 l 1
 727 1349 l 1
 1228 0 l 1
 1034 0 l 1
 896 382 l 1
 333 382 l 1
 196 0 l 1
 0 0 l 1
255 1445 m 1
 260 1490 260 1490 270 1534 c 0
 280 1578 280 1578 302.5 1613.5 c 0
 325 1649 325 1649 362 1671 c 0
 399 1693 399 1693 458 1693 c 0
 502 1693 502 1693 544 1674.5 c 0
 586 1656 586 1656 626 1633.5 c 0
 666 1611 666 1611 703 1592.5 c 0
 740 1574 740 1574 773 1574 c 0
 796 1574 796 1574 811 1582 c 0
 826 1590 826 1590 836 1605.5 c 0
 846 1621 846 1621 851 1643 c 0
 856 1665 856 1665 860 1693 c 1
 972 1693 l 1
 967 1649 967 1649 957 1605 c 0
 947 1561 947 1561 925.5 1525.5 c 0
 904 1490 904 1490 867 1467.5 c 0
 830 1445 830 1445 770 1445 c 0
 728 1445 728 1445 686 1463.5 c 0
 644 1482 644 1482 604 1504.5 c 0
 564 1527 564 1527 525.5 1545.5 c 0
 487 1564 487 1564 452 1564 c 0
 429 1564 429 1564 414.5 1556 c 0
 400 1548 400 1548 390.5 1533 c 0
 381 1518 381 1518 376 1496 c 0
 371 1474 371 1474 366 1445 c 1
 255 1445 l 1
384 531 m 1
 847 531 l 1
 701 954 l 2
 688 992 688 992 674 1031 c 0
 660 1070 660 1070 648.5 1105 c 0
 637 1140 637 1140 628.5 1166.5 c 0
 620 1193 620 1193 616 1205 c 1
 612 1193 612 1193 604 1166 c 0
 596 1139 596 1139 584.5 1104 c 0
 573 1069 573 1069 560.5 1030 c 0
 548 991 548 991 535 954 c 2
 384 531 l 1
EndSplineSet
Validated: 1
EndChar

StartChar: Adieresis
Encoding: 131 196 130
Width: 1229
VWidth: 1024
LayerCount: 2
Fore
SplineSet
0 0 m 1
 510 1349 l 1
 727 1349 l 1
 1228 0 l 1
 1034 0 l 1
 896 382 l 1
 333 382 l 1
 196 0 l 1
 0 0 l 1
335 1445 m 1
 335 1629 l 1
 500 1629 l 1
 500 1445 l 1
 335 1445 l 1
384 531 m 1
 847 531 l 1
 701 954 l 2
 688 992 688 992 674 1031 c 0
 660 1070 660 1070 648.5 1105 c 0
 637 1140 637 1140 628.5 1166.5 c 0
 620 1193 620 1193 616 1205 c 1
 612 1193 612 1193 604 1166 c 0
 596 1139 596 1139 584.5 1104 c 0
 573 1069 573 1069 560.5 1030 c 0
 548 991 548 991 535 954 c 2
 384 531 l 1
729 1445 m 1
 729 1629 l 1
 892 1629 l 1
 892 1445 l 1
 729 1445 l 1
EndSplineSet
Validated: 1
EndChar

StartChar: Aring
Encoding: 132 197 131
Width: 1229
VWidth: 1024
LayerCount: 2
Fore
SplineSet
0 0 m 1
 510 1349 l 1
 727 1349 l 1
 1228 0 l 1
 1034 0 l 1
 896 382 l 1
 333 382 l 1
 196 0 l 1
 0 0 l 1
375 1433 m 0
 375 1472 375 1472 390 1508 c 0
 405 1544 405 1544 435 1571.5 c 0
 465 1599 465 1599 510.5 1615.5 c 0
 556 1632 556 1632 617 1632 c 0
 678 1632 678 1632 723.5 1615.5 c 0
 769 1599 769 1599 799 1571.5 c 0
 829 1544 829 1544 844 1508 c 0
 859 1472 859 1472 859 1433 c 0
 859 1394 859 1394 844 1358 c 0
 829 1322 829 1322 799 1294 c 0
 769 1266 769 1266 723.5 1249.5 c 0
 678 1233 678 1233 617 1233 c 0
 556 1233 556 1233 510.5 1249.5 c 0
 465 1266 465 1266 435 1294 c 0
 405 1322 405 1322 390 1358 c 0
 375 1394 375 1394 375 1433 c 0
384 531 m 1
 847 531 l 1
 701 954 l 2
 688 992 688 992 674 1031 c 0
 660 1070 660 1070 648.5 1105 c 0
 637 1140 637 1140 628.5 1166.5 c 0
 620 1193 620 1193 616 1205 c 1
 612 1193 612 1193 604 1166 c 0
 596 1139 596 1139 584.5 1104 c 0
 573 1069 573 1069 560.5 1030 c 0
 548 991 548 991 535 954 c 2
 384 531 l 1
495 1433 m 0
 495 1418 495 1418 501.5 1403 c 0
 508 1388 508 1388 523 1376 c 0
 538 1364 538 1364 561 1356.5 c 0
 584 1349 584 1349 617 1349 c 0
 650 1349 650 1349 673 1356.5 c 0
 696 1364 696 1364 710.5 1376 c 0
 725 1388 725 1388 731.5 1403 c 0
 738 1418 738 1418 738 1433 c 0
 738 1448 738 1448 731.5 1462.5 c 0
 725 1477 725 1477 710.5 1489 c 0
 696 1501 696 1501 673 1508.5 c 0
 650 1516 650 1516 617 1516 c 0
 584 1516 584 1516 561 1508.5 c 0
 538 1501 538 1501 523 1489 c 0
 508 1477 508 1477 501.5 1462.5 c 0
 495 1448 495 1448 495 1433 c 0
EndSplineSet
Validated: 5
EndChar

StartChar: AE
Encoding: 133 198 132
Width: 1229
VWidth: 1024
LayerCount: 2
Fore
SplineSet
1 0 m 1
 487 1349 l 1
 1154 1349 l 1
 1154 1197 l 1
 817 1197 l 1
 817 767 l 1
 1144 767 l 1
 1144 617 l 1
 817 617 l 1
 817 152 l 1
 1195 152 l 1
 1195 0 l 1
 646 0 l 1
 646 412 l 1
 311 412 l 1
 169 0 l 1
 1 0 l 1
362 561 m 1
 646 561 l 1
 646 1202 l 1
 573 1202 l 1
 569 1186 569 1186 559 1153 c 0
 549 1120 549 1120 538.5 1084 c 0
 528 1048 528 1048 517.5 1014 c 0
 507 980 507 980 501 962 c 2
 362 561 l 1
EndSplineSet
Validated: 1
EndChar

StartChar: Ccedilla
Encoding: 134 199 133
Width: 1229
VWidth: 1024
LayerCount: 2
Fore
SplineSet
113 681 m 0
 113 847 113 847 145 975.5 c 0
 177 1104 177 1104 243 1191.5 c 0
 309 1279 309 1279 410 1324.5 c 0
 511 1370 511 1370 649 1370 c 0
 750 1370 750 1370 826 1342.5 c 0
 902 1315 902 1315 957.5 1268.5 c 0
 1013 1222 1013 1222 1051.5 1161.5 c 0
 1090 1101 1090 1101 1115 1035 c 1
 947 970 l 1
 932 1016 932 1016 906 1060 c 0
 880 1104 880 1104 843.5 1138 c 0
 807 1172 807 1172 758.5 1193 c 0
 710 1214 710 1214 650 1214 c 0
 561 1214 561 1214 497.5 1180 c 0
 434 1146 434 1146 393 1078.5 c 0
 352 1011 352 1011 333 911.5 c 0
 314 812 314 812 314 681 c 0
 314 550 314 550 334 448.5 c 0
 354 347 354 347 396 277 c 0
 438 207 438 207 503.5 171 c 0
 569 135 569 135 661 135 c 0
 724 135 724 135 774.5 159 c 0
 825 183 825 183 864.5 222 c 0
 904 261 904 261 933 312 c 0
 962 363 962 363 983 417 c 1
 1142 352 l 1
 1114 282 1114 282 1073 215.5 c 0
 1032 149 1032 149 974 96.5 c 0
 916 44 916 44 838.5 12 c 0
 761 -20 761 -20 659 -20 c 0
 518 -20 518 -20 415.5 30.5 c 0
 313 81 313 81 245.5 173 c 0
 178 265 178 265 145.5 394 c 0
 113 523 113 523 113 681 c 0
473 -342 m 1
 523 -348 523 -348 559 -348 c 0
 600 -348 600 -348 628.5 -341.5 c 0
 657 -335 657 -335 674 -324 c 0
 691 -313 691 -313 698.5 -297 c 0
 706 -281 706 -281 706 -262 c 0
 706 -222 706 -222 675.5 -201 c 0
 645 -180 645 -180 573 -180 c 2
 544.5 -180 l 1
 516 -182 l 1
 581 0 l 1
 688 0 l 1
 649 -100 l 1
 743 -103 743 -103 790 -144.5 c 0
 837 -186 837 -186 837 -258 c 0
 837 -300 837 -300 822 -334.5 c 0
 807 -369 807 -369 774.5 -393.5 c 0
 742 -418 742 -418 690 -431 c 0
 638 -444 638 -444 563 -444 c 0
 543 -444 543 -444 520.5 -443.5 c 0
 498 -443 498 -443 473 -440 c 1
 473 -342 l 1
EndSplineSet
Validated: 524293
EndChar

StartChar: Egrave
Encoding: 135 200 134
Width: 1229
VWidth: 1024
LayerCount: 2
Fore
SplineSet
162 0 m 1
 162 1349 l 1
 1081 1349 l 1
 1081 1193 l 1
 353 1193 l 1
 353 771 l 1
 1021 771 l 1
 1021 617 l 1
 353 617 l 1
 353 156 l 1
 1122 156 l 1
 1122 0 l 1
 162 0 l 1
331 1675 m 1
 331 1704 l 1
 528 1704 l 1
 755 1465 l 1
 755 1445 l 1
 631 1445 l 1
 331 1675 l 1
EndSplineSet
Validated: 1
EndChar

StartChar: Eacute
Encoding: 136 201 135
Width: 1229
VWidth: 1024
LayerCount: 2
Fore
SplineSet
162 0 m 1
 162 1349 l 1
 1081 1349 l 1
 1081 1193 l 1
 353 1193 l 1
 353 771 l 1
 1021 771 l 1
 1021 617 l 1
 353 617 l 1
 353 156 l 1
 1122 156 l 1
 1122 0 l 1
 162 0 l 1
493 1445 m 1
 493 1465 l 1
 720 1704 l 1
 917 1704 l 1
 917 1675 l 1
 617 1445 l 1
 493 1445 l 1
EndSplineSet
Validated: 1
EndChar

StartChar: Ecircumflex
Encoding: 137 202 136
Width: 1229
VWidth: 1024
LayerCount: 2
Fore
SplineSet
162 0 m 1
 162 1349 l 1
 1081 1349 l 1
 1081 1193 l 1
 353 1193 l 1
 353 771 l 1
 1021 771 l 1
 1021 617 l 1
 353 617 l 1
 353 156 l 1
 1122 156 l 1
 1122 0 l 1
 162 0 l 1
283 1445 m 1
 283 1465 l 1
 537 1704 l 1
 701 1704 l 1
 945 1465 l 1
 945 1445 l 1
 840 1445 l 1
 621 1583 l 1
 619 1583 l 1
 387 1445 l 1
 283 1445 l 1
EndSplineSet
Validated: 1
EndChar

StartChar: Edieresis
Encoding: 138 203 137
Width: 1229
VWidth: 1024
LayerCount: 2
Fore
SplineSet
162 0 m 1
 162 1349 l 1
 1081 1349 l 1
 1081 1193 l 1
 353 1193 l 1
 353 771 l 1
 1021 771 l 1
 1021 617 l 1
 353 617 l 1
 353 156 l 1
 1122 156 l 1
 1122 0 l 1
 162 0 l 1
355 1445 m 1
 355 1629 l 1
 520 1629 l 1
 520 1445 l 1
 355 1445 l 1
749 1445 m 1
 749 1629 l 1
 912 1629 l 1
 912 1445 l 1
 749 1445 l 1
EndSplineSet
Validated: 1
EndChar

StartChar: Igrave
Encoding: 139 204 138
Width: 1229
VWidth: 1024
LayerCount: 2
Fore
SplineSet
202 0 m 1
 202 156 l 1
 518 156 l 1
 518 1193 l 1
 202 1193 l 1
 202 1349 l 1
 1025 1349 l 1
 1025 1193 l 1
 709 1193 l 1
 709 156 l 1
 1025 156 l 1
 1025 0 l 1
 202 0 l 1
321 1675 m 1
 321 1704 l 1
 518 1704 l 1
 745 1465 l 1
 745 1445 l 1
 621 1445 l 1
 321 1675 l 1
EndSplineSet
Validated: 1
EndChar

StartChar: Iacute
Encoding: 140 205 139
Width: 1229
VWidth: 1024
LayerCount: 2
Fore
SplineSet
202 0 m 1
 202 156 l 1
 518 156 l 1
 518 1193 l 1
 202 1193 l 1
 202 1349 l 1
 1025 1349 l 1
 1025 1193 l 1
 709 1193 l 1
 709 156 l 1
 1025 156 l 1
 1025 0 l 1
 202 0 l 1
505 1445 m 1
 505 1465 l 1
 732 1704 l 1
 929 1704 l 1
 929 1675 l 1
 629 1445 l 1
 505 1445 l 1
EndSplineSet
Validated: 1
EndChar

StartChar: Icircumflex
Encoding: 141 206 140
Width: 1229
VWidth: 1024
LayerCount: 2
Fore
SplineSet
202 0 m 1
 202 156 l 1
 518 156 l 1
 518 1193 l 1
 202 1193 l 1
 202 1349 l 1
 1025 1349 l 1
 1025 1193 l 1
 709 1193 l 1
 709 156 l 1
 1025 156 l 1
 1025 0 l 1
 202 0 l 1
283 1445 m 1
 283 1465 l 1
 537 1704 l 1
 701 1704 l 1
 945 1465 l 1
 945 1445 l 1
 840 1445 l 1
 621 1583 l 1
 619 1583 l 1
 387 1445 l 1
 283 1445 l 1
EndSplineSet
Validated: 1
EndChar

StartChar: Idieresis
Encoding: 142 207 141
Width: 1229
VWidth: 1024
LayerCount: 2
Fore
SplineSet
202 0 m 1
 202 156 l 1
 518 156 l 1
 518 1193 l 1
 202 1193 l 1
 202 1349 l 1
 1025 1349 l 1
 1025 1193 l 1
 709 1193 l 1
 709 156 l 1
 1025 156 l 1
 1025 0 l 1
 202 0 l 1
335 1445 m 1
 335 1629 l 1
 500 1629 l 1
 500 1445 l 1
 335 1445 l 1
729 1445 m 1
 729 1629 l 1
 892 1629 l 1
 892 1445 l 1
 729 1445 l 1
EndSplineSet
Validated: 1
EndChar

StartChar: Eth
Encoding: 143 208 142
Width: 1229
VWidth: 1024
LayerCount: 2
Fore
SplineSet
27 597 m 1
 27 746 l 1
 162 746 l 1
 162 1349 l 1
 473 1349 l 2
 631 1349 631 1349 752.5 1310.5 c 0
 874 1272 874 1272 957 1191 c 0
 1040 1110 1040 1110 1082.5 985 c 0
 1125 860 1125 860 1125 688 c 0
 1125 520 1125 520 1085 391.5 c 0
 1045 263 1045 263 969 176 c 0
 893 89 893 89 782.5 44.5 c 0
 672 0 672 0 532 0 c 2
 162 0 l 1
 162 597 l 1
 27 597 l 1
353 156 m 1
 515 156 l 2
 727 156 727 156 830 289 c 0
 933 422 933 422 933 688 c 0
 933 823 933 823 905 919 c 0
 877 1015 877 1015 820 1075.5 c 0
 763 1136 763 1136 677 1164.5 c 0
 591 1193 591 1193 474 1193 c 2
 353 1193 l 1
 353 746 l 1
 642 746 l 1
 642 597 l 1
 353 597 l 1
 353 156 l 1
EndSplineSet
Validated: 1
EndChar

StartChar: Ntilde
Encoding: 144 209 143
Width: 1229
VWidth: 1024
LayerCount: 2
Fore
SplineSet
162 0 m 1
 162 1349 l 1
 384 1349 l 1
 912 211 l 1
 907 251 907 251 903 297 c 0
 899 336 899 336 896.5 385 c 0
 894 434 894 434 894 485 c 2
 894 1349 l 1
 1066 1349 l 1
 1066 0 l 1
 836 0 l 1
 316 1130 l 1
 320 1087 320 1087 324 1042 c 0
 327 1004 327 1004 329.5 959.5 c 0
 332 915 332 915 332 876 c 2
 332 0 l 1
 162 0 l 1
255 1446 m 1
 260 1491 260 1491 270 1535 c 0
 280 1579 280 1579 302.5 1614.5 c 0
 325 1650 325 1650 362 1672 c 0
 399 1694 399 1694 458 1694 c 0
 502 1694 502 1694 544 1675.5 c 0
 586 1657 586 1657 626 1634.5 c 0
 666 1612 666 1612 703 1593.5 c 0
 740 1575 740 1575 773 1575 c 0
 796 1575 796 1575 811 1583 c 0
 826 1591 826 1591 836 1606.5 c 0
 846 1622 846 1622 851 1644 c 0
 856 1666 856 1666 860 1694 c 1
 972 1694 l 1
 967 1650 967 1650 957 1606 c 0
 947 1562 947 1562 925.5 1526.5 c 0
 904 1491 904 1491 867 1468.5 c 0
 830 1446 830 1446 770 1446 c 0
 728 1446 728 1446 686 1464.5 c 0
 644 1483 644 1483 604 1505.5 c 0
 564 1528 564 1528 525.5 1546.5 c 0
 487 1565 487 1565 452 1565 c 0
 429 1565 429 1565 414.5 1557 c 0
 400 1549 400 1549 390.5 1534 c 0
 381 1519 381 1519 376 1497 c 0
 371 1475 371 1475 366 1446 c 1
 255 1446 l 1
EndSplineSet
Validated: 1
EndChar

StartChar: Ograve
Encoding: 145 210 144
Width: 1229
VWidth: 1024
LayerCount: 2
Fore
SplineSet
102 681 m 0
 102 854 102 854 136 983 c 0
 170 1112 170 1112 235 1198 c 0
 300 1284 300 1284 395.5 1327 c 0
 491 1370 491 1370 615 1370 c 0
 862 1370 862 1370 994 1196.5 c 0
 1126 1023 1126 1023 1126 681 c 0
 1126 508 1126 508 1091 377 c 0
 1056 246 1056 246 990 157.5 c 0
 924 69 924 69 828.5 24.5 c 0
 733 -20 733 -20 613 -20 c 0
 486 -20 486 -20 390 27 c 0
 294 74 294 74 230 163.5 c 0
 166 253 166 253 134 383.5 c 0
 102 514 102 514 102 681 c 0
303 681 m 0
 303 411 303 411 382 273 c 0
 461 135 461 135 614 135 c 0
 777 135 777 135 851 275 c 0
 925 415 925 415 925 681 c 0
 925 951 925 951 846 1082.5 c 0
 767 1214 767 1214 615 1214 c 0
 459 1214 459 1214 381 1082.5 c 0
 303 951 303 951 303 681 c 0
316 1675 m 1
 316 1704 l 1
 513 1704 l 1
 740 1465 l 1
 740 1445 l 1
 616 1445 l 1
 316 1675 l 1
EndSplineSet
Validated: 1
EndChar

StartChar: Oacute
Encoding: 146 211 145
Width: 1229
VWidth: 1024
LayerCount: 2
Fore
SplineSet
102 681 m 0
 102 854 102 854 136 983 c 0
 170 1112 170 1112 235 1198 c 0
 300 1284 300 1284 395.5 1327 c 0
 491 1370 491 1370 615 1370 c 0
 862 1370 862 1370 994 1196.5 c 0
 1126 1023 1126 1023 1126 681 c 0
 1126 508 1126 508 1091 377 c 0
 1056 246 1056 246 990 157.5 c 0
 924 69 924 69 828.5 24.5 c 0
 733 -20 733 -20 613 -20 c 0
 486 -20 486 -20 390 27 c 0
 294 74 294 74 230 163.5 c 0
 166 253 166 253 134 383.5 c 0
 102 514 102 514 102 681 c 0
303 681 m 0
 303 411 303 411 382 273 c 0
 461 135 461 135 614 135 c 0
 777 135 777 135 851 275 c 0
 925 415 925 415 925 681 c 0
 925 951 925 951 846 1082.5 c 0
 767 1214 767 1214 615 1214 c 0
 459 1214 459 1214 381 1082.5 c 0
 303 951 303 951 303 681 c 0
500 1445 m 1
 500 1465 l 1
 727 1704 l 1
 924 1704 l 1
 924 1675 l 1
 624 1445 l 1
 500 1445 l 1
EndSplineSet
Validated: 1
EndChar

StartChar: Ocircumflex
Encoding: 147 212 146
Width: 1229
VWidth: 1024
LayerCount: 2
Fore
SplineSet
102 681 m 0
 102 854 102 854 136 983 c 0
 170 1112 170 1112 235 1198 c 0
 300 1284 300 1284 395.5 1327 c 0
 491 1370 491 1370 615 1370 c 0
 862 1370 862 1370 994 1196.5 c 0
 1126 1023 1126 1023 1126 681 c 0
 1126 508 1126 508 1091 377 c 0
 1056 246 1056 246 990 157.5 c 0
 924 69 924 69 828.5 24.5 c 0
 733 -20 733 -20 613 -20 c 0
 486 -20 486 -20 390 27 c 0
 294 74 294 74 230 163.5 c 0
 166 253 166 253 134 383.5 c 0
 102 514 102 514 102 681 c 0
283 1445 m 1
 283 1465 l 1
 537 1704 l 1
 701 1704 l 1
 945 1465 l 1
 945 1445 l 1
 840 1445 l 1
 621 1583 l 1
 619 1583 l 1
 387 1445 l 1
 283 1445 l 1
303 681 m 0
 303 411 303 411 382 273 c 0
 461 135 461 135 614 135 c 0
 777 135 777 135 851 275 c 0
 925 415 925 415 925 681 c 0
 925 951 925 951 846 1082.5 c 0
 767 1214 767 1214 615 1214 c 0
 459 1214 459 1214 381 1082.5 c 0
 303 951 303 951 303 681 c 0
EndSplineSet
Validated: 1
EndChar

StartChar: Otilde
Encoding: 148 213 147
Width: 1229
VWidth: 1024
LayerCount: 2
Fore
SplineSet
102 681 m 0
 102 854 102 854 136 983 c 0
 170 1112 170 1112 235 1198 c 0
 300 1284 300 1284 395.5 1327 c 0
 491 1370 491 1370 615 1370 c 0
 862 1370 862 1370 994 1196.5 c 0
 1126 1023 1126 1023 1126 681 c 0
 1126 508 1126 508 1091 377 c 0
 1056 246 1056 246 990 157.5 c 0
 924 69 924 69 828.5 24.5 c 0
 733 -20 733 -20 613 -20 c 0
 486 -20 486 -20 390 27 c 0
 294 74 294 74 230 163.5 c 0
 166 253 166 253 134 383.5 c 0
 102 514 102 514 102 681 c 0
255 1445 m 1
 260 1490 260 1490 270 1534 c 0
 280 1578 280 1578 302.5 1613.5 c 0
 325 1649 325 1649 362 1671 c 0
 399 1693 399 1693 458 1693 c 0
 502 1693 502 1693 544 1674.5 c 0
 586 1656 586 1656 626 1633.5 c 0
 666 1611 666 1611 703 1592.5 c 0
 740 1574 740 1574 773 1574 c 0
 796 1574 796 1574 811 1582 c 0
 826 1590 826 1590 836 1605.5 c 0
 846 1621 846 1621 851 1643 c 0
 856 1665 856 1665 860 1693 c 1
 972 1693 l 1
 967 1649 967 1649 957 1605 c 0
 947 1561 947 1561 925.5 1525.5 c 0
 904 1490 904 1490 867 1467.5 c 0
 830 1445 830 1445 770 1445 c 0
 728 1445 728 1445 686 1463.5 c 0
 644 1482 644 1482 604 1504.5 c 0
 564 1527 564 1527 525.5 1545.5 c 0
 487 1564 487 1564 452 1564 c 0
 429 1564 429 1564 414.5 1556 c 0
 400 1548 400 1548 390.5 1533 c 0
 381 1518 381 1518 376 1496 c 0
 371 1474 371 1474 366 1445 c 1
 255 1445 l 1
303 681 m 0
 303 411 303 411 382 273 c 0
 461 135 461 135 614 135 c 0
 777 135 777 135 851 275 c 0
 925 415 925 415 925 681 c 0
 925 951 925 951 846 1082.5 c 0
 767 1214 767 1214 615 1214 c 0
 459 1214 459 1214 381 1082.5 c 0
 303 951 303 951 303 681 c 0
EndSplineSet
Validated: 1
EndChar

StartChar: Odieresis
Encoding: 149 214 148
Width: 1229
VWidth: 1024
LayerCount: 2
Fore
SplineSet
102 681 m 0
 102 854 102 854 136 983 c 0
 170 1112 170 1112 235 1198 c 0
 300 1284 300 1284 395.5 1327 c 0
 491 1370 491 1370 615 1370 c 0
 862 1370 862 1370 994 1196.5 c 0
 1126 1023 1126 1023 1126 681 c 0
 1126 508 1126 508 1091 377 c 0
 1056 246 1056 246 990 157.5 c 0
 924 69 924 69 828.5 24.5 c 0
 733 -20 733 -20 613 -20 c 0
 486 -20 486 -20 390 27 c 0
 294 74 294 74 230 163.5 c 0
 166 253 166 253 134 383.5 c 0
 102 514 102 514 102 681 c 0
303 681 m 0
 303 411 303 411 382 273 c 0
 461 135 461 135 614 135 c 0
 777 135 777 135 851 275 c 0
 925 415 925 415 925 681 c 0
 925 951 925 951 846 1082.5 c 0
 767 1214 767 1214 615 1214 c 0
 459 1214 459 1214 381 1082.5 c 0
 303 951 303 951 303 681 c 0
338 1445 m 1
 338 1629 l 1
 503 1629 l 1
 503 1445 l 1
 338 1445 l 1
732 1445 m 1
 732 1629 l 1
 895 1629 l 1
 895 1445 l 1
 732 1445 l 1
EndSplineSet
Validated: 1
EndChar

StartChar: multiply
Encoding: 150 215 149
Width: 1229
VWidth: 1024
LayerCount: 2
Fore
SplineSet
157 330 m 1
 511 684 l 1
 159 1036 l 1
 263 1139 l 1
 613 786 l 1
 963 1137 l 1
 1068 1032 l 1
 718 684 l 1
 1070 332 l 1
 968 227 l 1
 615 580 l 1
 259 225 l 1
 157 330 l 1
EndSplineSet
Validated: 1
EndChar

StartChar: Oslash
Encoding: 151 216 150
Width: 1229
VWidth: 1024
LayerCount: 2
Fore
SplineSet
56 27 m 1
 197 216 l 1
 149 304 149 304 125.5 420 c 0
 102 536 102 536 102 681 c 0
 102 854 102 854 136 983 c 0
 170 1112 170 1112 235 1198 c 0
 300 1284 300 1284 395.5 1327 c 0
 491 1370 491 1370 615 1370 c 0
 832 1370 832 1370 960 1236 c 1
 1076 1392 l 1
 1170 1327 l 1
 1030 1140 l 1
 1078 1055 1078 1055 1102 941 c 0
 1126 827 1126 827 1126 681 c 0
 1126 508 1126 508 1091 377 c 0
 1056 246 1056 246 990 157.5 c 0
 924 69 924 69 828.5 24.5 c 0
 733 -20 733 -20 613 -20 c 0
 502 -20 502 -20 416 15 c 0
 330 50 330 50 267 118 c 1
 150 -38 l 1
 56 27 l 1
303 681 m 0
 303 515 303 515 333 399 c 1
 845 1083 l 1
 806 1149 806 1149 748 1181.5 c 0
 690 1214 690 1214 615 1214 c 0
 459 1214 459 1214 381 1082.5 c 0
 303 951 303 951 303 681 c 0
383 273 m 1
 462 135 462 135 614 135 c 0
 777 135 777 135 851 275 c 0
 925 415 925 415 925 681 c 0
 925 845 925 845 895 959 c 1
 383 273 l 1
EndSplineSet
Validated: 1
EndChar

StartChar: Ugrave
Encoding: 152 217 151
Width: 1229
VWidth: 1024
LayerCount: 2
Fore
SplineSet
142 472 m 2
 142 1349 l 1
 333 1349 l 1
 333 498 l 2
 333 401 333 401 345.5 332 c 0
 358 263 358 263 388.5 219 c 0
 419 175 419 175 471.5 155 c 0
 524 135 524 135 604 135 c 0
 687 135 687 135 742.5 155 c 0
 798 175 798 175 832 219.5 c 0
 866 264 866 264 880.5 336 c 0
 895 408 895 408 895 511 c 2
 895 1349 l 1
 1085 1349 l 1
 1085 490 l 2
 1085 353 1085 353 1056 256 c 0
 1027 159 1027 159 967.5 97.5 c 0
 908 36 908 36 817.5 8 c 0
 727 -20 727 -20 605 -20 c 0
 489 -20 489 -20 402 6.5 c 0
 315 33 315 33 257.5 91.5 c 0
 200 150 200 150 171 243.5 c 0
 142 337 142 337 142 472 c 2
305 1675 m 1
 305 1704 l 1
 502 1704 l 1
 729 1465 l 1
 729 1445 l 1
 605 1445 l 1
 305 1675 l 1
EndSplineSet
Validated: 1
EndChar

StartChar: Uacute
Encoding: 153 218 152
Width: 1229
VWidth: 1024
LayerCount: 2
Fore
SplineSet
142 472 m 2
 142 1349 l 1
 333 1349 l 1
 333 498 l 2
 333 401 333 401 345.5 332 c 0
 358 263 358 263 388.5 219 c 0
 419 175 419 175 471.5 155 c 0
 524 135 524 135 604 135 c 0
 687 135 687 135 742.5 155 c 0
 798 175 798 175 832 219.5 c 0
 866 264 866 264 880.5 336 c 0
 895 408 895 408 895 511 c 2
 895 1349 l 1
 1085 1349 l 1
 1085 490 l 2
 1085 353 1085 353 1056 256 c 0
 1027 159 1027 159 967.5 97.5 c 0
 908 36 908 36 817.5 8 c 0
 727 -20 727 -20 605 -20 c 0
 489 -20 489 -20 402 6.5 c 0
 315 33 315 33 257.5 91.5 c 0
 200 150 200 150 171 243.5 c 0
 142 337 142 337 142 472 c 2
488 1445 m 1
 488 1465 l 1
 715 1704 l 1
 912 1704 l 1
 912 1675 l 1
 612 1445 l 1
 488 1445 l 1
EndSplineSet
Validated: 1
EndChar

StartChar: Ucircumflex
Encoding: 154 219 153
Width: 1229
VWidth: 1024
LayerCount: 2
Fore
SplineSet
142 472 m 2
 142 1349 l 1
 333 1349 l 1
 333 498 l 2
 333 401 333 401 345.5 332 c 0
 358 263 358 263 388.5 219 c 0
 419 175 419 175 471.5 155 c 0
 524 135 524 135 604 135 c 0
 687 135 687 135 742.5 155 c 0
 798 175 798 175 832 219.5 c 0
 866 264 866 264 880.5 336 c 0
 895 408 895 408 895 511 c 2
 895 1349 l 1
 1085 1349 l 1
 1085 490 l 2
 1085 353 1085 353 1056 256 c 0
 1027 159 1027 159 967.5 97.5 c 0
 908 36 908 36 817.5 8 c 0
 727 -20 727 -20 605 -20 c 0
 489 -20 489 -20 402 6.5 c 0
 315 33 315 33 257.5 91.5 c 0
 200 150 200 150 171 243.5 c 0
 142 337 142 337 142 472 c 2
283 1445 m 1
 283 1465 l 1
 537 1704 l 1
 701 1704 l 1
 945 1465 l 1
 945 1445 l 1
 840 1445 l 1
 621 1583 l 1
 619 1583 l 1
 387 1445 l 1
 283 1445 l 1
EndSplineSet
Validated: 1
EndChar

StartChar: Udieresis
Encoding: 155 220 154
Width: 1229
VWidth: 1024
LayerCount: 2
Fore
SplineSet
142 472 m 2
 142 1349 l 1
 333 1349 l 1
 333 498 l 2
 333 401 333 401 345.5 332 c 0
 358 263 358 263 388.5 219 c 0
 419 175 419 175 471.5 155 c 0
 524 135 524 135 604 135 c 0
 687 135 687 135 742.5 155 c 0
 798 175 798 175 832 219.5 c 0
 866 264 866 264 880.5 336 c 0
 895 408 895 408 895 511 c 2
 895 1349 l 1
 1085 1349 l 1
 1085 490 l 2
 1085 353 1085 353 1056 256 c 0
 1027 159 1027 159 967.5 97.5 c 0
 908 36 908 36 817.5 8 c 0
 727 -20 727 -20 605 -20 c 0
 489 -20 489 -20 402 6.5 c 0
 315 33 315 33 257.5 91.5 c 0
 200 150 200 150 171 243.5 c 0
 142 337 142 337 142 472 c 2
335 1445 m 1
 335 1629 l 1
 500 1629 l 1
 500 1445 l 1
 335 1445 l 1
729 1445 m 1
 729 1629 l 1
 892 1629 l 1
 892 1445 l 1
 729 1445 l 1
EndSplineSet
Validated: 1
EndChar

StartChar: Yacute
Encoding: 156 221 155
Width: 1229
VWidth: 1024
LayerCount: 2
Fore
SplineSet
36 1349 m 1
 241 1349 l 1
 615 738 l 1
 987 1349 l 1
 1192 1349 l 1
 708 584 l 1
 708 0 l 1
 520 0 l 1
 520 584 l 1
 36 1349 l 1
503 1445 m 1
 503 1465 l 1
 730 1704 l 1
 927 1704 l 1
 927 1675 l 1
 627 1445 l 1
 503 1445 l 1
EndSplineSet
Validated: 1
EndChar

StartChar: Thorn
Encoding: 157 222 156
Width: 1229
VWidth: 1024
LayerCount: 2
Fore
SplineSet
162 0 m 1
 162 1349 l 1
 353 1349 l 1
 353 1114 l 1
 622 1114 l 2
 747 1114 747 1114 840 1084 c 0
 933 1054 933 1054 995 998.5 c 0
 1057 943 1057 943 1088 865 c 0
 1119 787 1119 787 1119 692 c 0
 1119 604 1119 604 1089.5 524.5 c 0
 1060 445 1060 445 999.5 385 c 0
 939 325 939 325 848 289.5 c 0
 757 254 757 254 634 254 c 2
 353 254 l 1
 353 0 l 1
 162 0 l 1
353 395 m 1
 607 395 l 2
 689 395 689 395 749.5 417 c 0
 810 439 810 439 849.5 478.5 c 0
 889 518 889 518 908 571.5 c 0
 927 625 927 625 927 688 c 0
 927 822 927 822 845 896.5 c 0
 763 971 763 971 599 971 c 2
 353 971 l 1
 353 395 l 1
EndSplineSet
Validated: 1
EndChar

StartChar: germandbls
Encoding: 158 223 157
Width: 1229
VWidth: 1024
LayerCount: 2
Fore
SplineSet
142 0 m 1
 142 1027 l 2
 142 1146 142 1146 173.5 1232 c 0
 205 1318 205 1318 265 1374 c 0
 325 1430 325 1430 412 1457 c 0
 499 1484 499 1484 609 1484 c 0
 711 1484 711 1484 788.5 1461 c 0
 866 1438 866 1438 918.5 1398 c 0
 971 1358 971 1358 997.5 1303.5 c 0
 1024 1249 1024 1249 1024 1187 c 0
 1024 1128 1024 1128 1007.5 1084.5 c 0
 991 1041 991 1041 965.5 1007.5 c 0
 940 974 940 974 911 948 c 0
 882 922 882 922 856.5 897.5 c 0
 831 873 831 873 814.5 848 c 0
 798 823 798 823 798 791 c 0
 798 751 798 751 825.5 720.5 c 0
 853 690 853 690 894 661 c 0
 935 632 935 632 982.5 600 c 0
 1030 568 1030 568 1071 526 c 0
 1112 484 1112 484 1139.5 428.5 c 0
 1167 373 1167 373 1167 295 c 0
 1167 229 1167 229 1146.5 170 c 0
 1126 111 1126 111 1082.5 67 c 0
 1039 23 1039 23 971.5 -3 c 0
 904 -29 904 -29 809 -29 c 0
 729 -29 729 -29 655 -16.5 c 0
 581 -4 581 -4 526 20 c 1
 524 184 l 1
 550 169 550 169 583 156 c 0
 616 143 616 143 653 134 c 0
 690 125 690 125 729 120 c 0
 768 115 768 115 805 115 c 0
 897 115 897 115 946 162.5 c 0
 995 210 995 210 995 289 c 0
 995 348 995 348 968 389 c 0
 941 430 941 430 900.5 461.5 c 0
 860 493 860 493 812.5 521.5 c 0
 765 550 765 550 724.5 585.5 c 0
 684 621 684 621 657 668 c 0
 630 715 630 715 630 785 c 0
 630 836 630 836 646.5 872.5 c 0
 663 909 663 909 687.5 938 c 0
 712 967 712 967 741 991 c 0
 770 1015 770 1015 794.5 1041 c 0
 819 1067 819 1067 835.5 1098.5 c 0
 852 1130 852 1130 852 1173 c 0
 852 1210 852 1210 835.5 1241 c 0
 819 1272 819 1272 787.5 1294.5 c 0
 756 1317 756 1317 711 1330 c 0
 666 1343 666 1343 609 1343 c 0
 541 1343 541 1343 487.5 1325.5 c 0
 434 1308 434 1308 397.5 1269.5 c 0
 361 1231 361 1231 341.5 1170 c 0
 322 1109 322 1109 322 1021 c 2
 322 0 l 1
 142 0 l 1
EndSplineSet
Validated: 1
EndChar

StartChar: agrave
Encoding: 159 224 158
Width: 1229
VWidth: 1024
LayerCount: 2
Fore
SplineSet
128 302 m 0
 128 409 128 409 167.5 477.5 c 0
 207 546 207 546 271 585 c 0
 335 624 335 624 416.5 639.5 c 0
 498 655 498 655 582 656 c 2
 818 660 l 1
 818 719 l 2
 818 786 818 786 804.5 833 c 0
 791 880 791 880 763.5 909 c 0
 736 938 736 938 694 951.5 c 0
 652 965 652 965 596 965 c 0
 546 965 546 965 505.5 957.5 c 0
 465 950 465 950 436 930.5 c 0
 407 911 407 911 388.5 877.5 c 0
 370 844 370 844 364 793 c 1
 176 810 l 1
 186 874 186 874 213.5 927.5 c 0
 241 981 241 981 291 1020 c 0
 341 1059 341 1059 416.5 1080.5 c 0
 492 1102 492 1102 599 1102 c 0
 799 1102 799 1102 899.5 1008.5 c 0
 1000 915 1000 915 1000 738 c 2
 1000 272 l 2
 1000 192 1000 192 1021 151.5 c 0
 1042 111 1042 111 1101 111 c 0
 1116 111 1116 111 1131 113 c 0
 1146 115 1146 115 1160 118 c 1
 1160 6 l 1
 1126 -2 1126 -2 1092.5 -6 c 0
 1059 -10 1059 -10 1021 -10 c 0
 970 -10 970 -10 933.5 3.5 c 0
 897 17 897 17 874 44.5 c 0
 851 72 851 72 839 112.5 c 0
 827 153 827 153 824 207 c 1
 818 207 l 1
 790 155 790 155 756 113 c 0
 722 71 722 71 678 41.5 c 0
 634 12 634 12 577 -4 c 0
 520 -20 520 -20 446 -20 c 0
 288 -20 288 -20 208 66 c 0
 128 152 128 152 128 302 c 0
288 1431 m 1
 288 1460 l 1
 485 1460 l 1
 712 1221 l 1
 712 1201 l 1
 588 1201 l 1
 288 1431 l 1
317 299 m 0
 317 217 317 217 361.5 167 c 0
 406 117 406 117 492 117 c 0
 575 117 575 117 636 148.5 c 0
 697 180 697 180 737.5 228 c 0
 778 276 778 276 798 334 c 0
 818 392 818 392 818 445 c 2
 818 534 l 1
 628 530 l 2
 573 529 573 529 517.5 521.5 c 0
 462 514 462 514 417.5 490 c 0
 373 466 373 466 345 420.5 c 0
 317 375 317 375 317 299 c 0
EndSplineSet
Validated: 1
EndChar

StartChar: aacute
Encoding: 160 225 159
Width: 1229
VWidth: 1024
LayerCount: 2
Fore
SplineSet
128 302 m 0
 128 409 128 409 167.5 477.5 c 0
 207 546 207 546 271 585 c 0
 335 624 335 624 416.5 639.5 c 0
 498 655 498 655 582 656 c 2
 818 660 l 1
 818 719 l 2
 818 786 818 786 804.5 833 c 0
 791 880 791 880 763.5 909 c 0
 736 938 736 938 694 951.5 c 0
 652 965 652 965 596 965 c 0
 546 965 546 965 505.5 957.5 c 0
 465 950 465 950 436 930.5 c 0
 407 911 407 911 388.5 877.5 c 0
 370 844 370 844 364 793 c 1
 176 810 l 1
 186 874 186 874 213.5 927.5 c 0
 241 981 241 981 291 1020 c 0
 341 1059 341 1059 416.5 1080.5 c 0
 492 1102 492 1102 599 1102 c 0
 799 1102 799 1102 899.5 1008.5 c 0
 1000 915 1000 915 1000 738 c 2
 1000 272 l 2
 1000 192 1000 192 1021 151.5 c 0
 1042 111 1042 111 1101 111 c 0
 1116 111 1116 111 1131 113 c 0
 1146 115 1146 115 1160 118 c 1
 1160 6 l 1
 1126 -2 1126 -2 1092.5 -6 c 0
 1059 -10 1059 -10 1021 -10 c 0
 970 -10 970 -10 933.5 3.5 c 0
 897 17 897 17 874 44.5 c 0
 851 72 851 72 839 112.5 c 0
 827 153 827 153 824 207 c 1
 818 207 l 1
 790 155 790 155 756 113 c 0
 722 71 722 71 678 41.5 c 0
 634 12 634 12 577 -4 c 0
 520 -20 520 -20 446 -20 c 0
 288 -20 288 -20 208 66 c 0
 128 152 128 152 128 302 c 0
317 299 m 0
 317 217 317 217 361.5 167 c 0
 406 117 406 117 492 117 c 0
 575 117 575 117 636 148.5 c 0
 697 180 697 180 737.5 228 c 0
 778 276 778 276 798 334 c 0
 818 392 818 392 818 445 c 2
 818 534 l 1
 628 530 l 2
 573 529 573 529 517.5 521.5 c 0
 462 514 462 514 417.5 490 c 0
 373 466 373 466 345 420.5 c 0
 317 375 317 375 317 299 c 0
479 1201 m 1
 479 1221 l 1
 706 1460 l 1
 903 1460 l 1
 903 1431 l 1
 603 1201 l 1
 479 1201 l 1
EndSplineSet
Validated: 1
EndChar

StartChar: acircumflex
Encoding: 161 226 160
Width: 1229
VWidth: 1024
LayerCount: 2
Fore
SplineSet
128 302 m 0
 128 409 128 409 167.5 477.5 c 0
 207 546 207 546 271 585 c 0
 335 624 335 624 416.5 639.5 c 0
 498 655 498 655 582 656 c 2
 818 660 l 1
 818 719 l 2
 818 786 818 786 804.5 833 c 0
 791 880 791 880 763.5 909 c 0
 736 938 736 938 694 951.5 c 0
 652 965 652 965 596 965 c 0
 546 965 546 965 505.5 957.5 c 0
 465 950 465 950 436 930.5 c 0
 407 911 407 911 388.5 877.5 c 0
 370 844 370 844 364 793 c 1
 176 810 l 1
 186 874 186 874 213.5 927.5 c 0
 241 981 241 981 291 1020 c 0
 341 1059 341 1059 416.5 1080.5 c 0
 492 1102 492 1102 599 1102 c 0
 799 1102 799 1102 899.5 1008.5 c 0
 1000 915 1000 915 1000 738 c 2
 1000 272 l 2
 1000 192 1000 192 1021 151.5 c 0
 1042 111 1042 111 1101 111 c 0
 1116 111 1116 111 1131 113 c 0
 1146 115 1146 115 1160 118 c 1
 1160 6 l 1
 1126 -2 1126 -2 1092.5 -6 c 0
 1059 -10 1059 -10 1021 -10 c 0
 970 -10 970 -10 933.5 3.5 c 0
 897 17 897 17 874 44.5 c 0
 851 72 851 72 839 112.5 c 0
 827 153 827 153 824 207 c 1
 818 207 l 1
 790 155 790 155 756 113 c 0
 722 71 722 71 678 41.5 c 0
 634 12 634 12 577 -4 c 0
 520 -20 520 -20 446 -20 c 0
 288 -20 288 -20 208 66 c 0
 128 152 128 152 128 302 c 0
265 1201 m 1
 265 1221 l 1
 519 1460 l 1
 683 1460 l 1
 927 1221 l 1
 927 1201 l 1
 822 1201 l 1
 603 1339 l 1
 601 1339 l 1
 369 1201 l 1
 265 1201 l 1
317 299 m 0
 317 217 317 217 361.5 167 c 0
 406 117 406 117 492 117 c 0
 575 117 575 117 636 148.5 c 0
 697 180 697 180 737.5 228 c 0
 778 276 778 276 798 334 c 0
 818 392 818 392 818 445 c 2
 818 534 l 1
 628 530 l 2
 573 529 573 529 517.5 521.5 c 0
 462 514 462 514 417.5 490 c 0
 373 466 373 466 345 420.5 c 0
 317 375 317 375 317 299 c 0
EndSplineSet
Validated: 1
EndChar

StartChar: atilde
Encoding: 162 227 161
Width: 1229
VWidth: 1024
LayerCount: 2
Fore
SplineSet
128 302 m 0
 128 409 128 409 167.5 477.5 c 0
 207 546 207 546 271 585 c 0
 335 624 335 624 416.5 639.5 c 0
 498 655 498 655 582 656 c 2
 818 660 l 1
 818 719 l 2
 818 786 818 786 804.5 833 c 0
 791 880 791 880 763.5 909 c 0
 736 938 736 938 694 951.5 c 0
 652 965 652 965 596 965 c 0
 546 965 546 965 505.5 957.5 c 0
 465 950 465 950 436 930.5 c 0
 407 911 407 911 388.5 877.5 c 0
 370 844 370 844 364 793 c 1
 176 810 l 1
 186 874 186 874 213.5 927.5 c 0
 241 981 241 981 291 1020 c 0
 341 1059 341 1059 416.5 1080.5 c 0
 492 1102 492 1102 599 1102 c 0
 799 1102 799 1102 899.5 1008.5 c 0
 1000 915 1000 915 1000 738 c 2
 1000 272 l 2
 1000 192 1000 192 1021 151.5 c 0
 1042 111 1042 111 1101 111 c 0
 1116 111 1116 111 1131 113 c 0
 1146 115 1146 115 1160 118 c 1
 1160 6 l 1
 1126 -2 1126 -2 1092.5 -6 c 0
 1059 -10 1059 -10 1021 -10 c 0
 970 -10 970 -10 933.5 3.5 c 0
 897 17 897 17 874 44.5 c 0
 851 72 851 72 839 112.5 c 0
 827 153 827 153 824 207 c 1
 818 207 l 1
 790 155 790 155 756 113 c 0
 722 71 722 71 678 41.5 c 0
 634 12 634 12 577 -4 c 0
 520 -20 520 -20 446 -20 c 0
 288 -20 288 -20 208 66 c 0
 128 152 128 152 128 302 c 0
247 1201 m 1
 252 1246 252 1246 262 1290 c 0
 272 1334 272 1334 294.5 1369.5 c 0
 317 1405 317 1405 354 1427 c 0
 391 1449 391 1449 450 1449 c 0
 494 1449 494 1449 536 1430.5 c 0
 578 1412 578 1412 618 1389.5 c 0
 658 1367 658 1367 695 1348.5 c 0
 732 1330 732 1330 765 1330 c 0
 788 1330 788 1330 803 1338 c 0
 818 1346 818 1346 828 1361.5 c 0
 838 1377 838 1377 843 1399 c 0
 848 1421 848 1421 852 1449 c 1
 964 1449 l 1
 959 1405 959 1405 949 1361 c 0
 939 1317 939 1317 917.5 1281.5 c 0
 896 1246 896 1246 859 1223.5 c 0
 822 1201 822 1201 762 1201 c 0
 720 1201 720 1201 678 1219.5 c 0
 636 1238 636 1238 596 1260.5 c 0
 556 1283 556 1283 517.5 1301.5 c 0
 479 1320 479 1320 444 1320 c 0
 421 1320 421 1320 406.5 1312 c 0
 392 1304 392 1304 382.5 1289 c 0
 373 1274 373 1274 368 1252 c 0
 363 1230 363 1230 358 1201 c 1
 247 1201 l 1
317 299 m 0
 317 217 317 217 361.5 167 c 0
 406 117 406 117 492 117 c 0
 575 117 575 117 636 148.5 c 0
 697 180 697 180 737.5 228 c 0
 778 276 778 276 798 334 c 0
 818 392 818 392 818 445 c 2
 818 534 l 1
 628 530 l 2
 573 529 573 529 517.5 521.5 c 0
 462 514 462 514 417.5 490 c 0
 373 466 373 466 345 420.5 c 0
 317 375 317 375 317 299 c 0
EndSplineSet
Validated: 1
EndChar

StartChar: adieresis
Encoding: 163 228 162
Width: 1229
VWidth: 1024
LayerCount: 2
Fore
SplineSet
128 302 m 0
 128 409 128 409 167.5 477.5 c 0
 207 546 207 546 271 585 c 0
 335 624 335 624 416.5 639.5 c 0
 498 655 498 655 582 656 c 2
 818 660 l 1
 818 719 l 2
 818 786 818 786 804.5 833 c 0
 791 880 791 880 763.5 909 c 0
 736 938 736 938 694 951.5 c 0
 652 965 652 965 596 965 c 0
 546 965 546 965 505.5 957.5 c 0
 465 950 465 950 436 930.5 c 0
 407 911 407 911 388.5 877.5 c 0
 370 844 370 844 364 793 c 1
 176 810 l 1
 186 874 186 874 213.5 927.5 c 0
 241 981 241 981 291 1020 c 0
 341 1059 341 1059 416.5 1080.5 c 0
 492 1102 492 1102 599 1102 c 0
 799 1102 799 1102 899.5 1008.5 c 0
 1000 915 1000 915 1000 738 c 2
 1000 272 l 2
 1000 192 1000 192 1021 151.5 c 0
 1042 111 1042 111 1101 111 c 0
 1116 111 1116 111 1131 113 c 0
 1146 115 1146 115 1160 118 c 1
 1160 6 l 1
 1126 -2 1126 -2 1092.5 -6 c 0
 1059 -10 1059 -10 1021 -10 c 0
 970 -10 970 -10 933.5 3.5 c 0
 897 17 897 17 874 44.5 c 0
 851 72 851 72 839 112.5 c 0
 827 153 827 153 824 207 c 1
 818 207 l 1
 790 155 790 155 756 113 c 0
 722 71 722 71 678 41.5 c 0
 634 12 634 12 577 -4 c 0
 520 -20 520 -20 446 -20 c 0
 288 -20 288 -20 208 66 c 0
 128 152 128 152 128 302 c 0
317 299 m 0
 317 217 317 217 361.5 167 c 0
 406 117 406 117 492 117 c 0
 575 117 575 117 636 148.5 c 0
 697 180 697 180 737.5 228 c 0
 778 276 778 276 798 334 c 0
 818 392 818 392 818 445 c 2
 818 534 l 1
 628 530 l 2
 573 529 573 529 517.5 521.5 c 0
 462 514 462 514 417.5 490 c 0
 373 466 373 466 345 420.5 c 0
 317 375 317 375 317 299 c 0
319 1219 m 1
 319 1403 l 1
 484 1403 l 1
 484 1219 l 1
 319 1219 l 1
713 1219 m 1
 713 1403 l 1
 876 1403 l 1
 876 1219 l 1
 713 1219 l 1
EndSplineSet
Validated: 1
EndChar

StartChar: aring
Encoding: 164 229 163
Width: 1229
VWidth: 1024
LayerCount: 2
Fore
SplineSet
128 302 m 0
 128 409 128 409 167.5 477.5 c 0
 207 546 207 546 271 585 c 0
 335 624 335 624 416.5 639.5 c 0
 498 655 498 655 582 656 c 2
 818 660 l 1
 818 719 l 2
 818 786 818 786 804.5 833 c 0
 791 880 791 880 763.5 909 c 0
 736 938 736 938 694 951.5 c 0
 652 965 652 965 596 965 c 0
 546 965 546 965 505.5 957.5 c 0
 465 950 465 950 436 930.5 c 0
 407 911 407 911 388.5 877.5 c 0
 370 844 370 844 364 793 c 1
 176 810 l 1
 186 874 186 874 213.5 927.5 c 0
 241 981 241 981 291 1020 c 0
 341 1059 341 1059 416.5 1080.5 c 0
 492 1102 492 1102 599 1102 c 0
 799 1102 799 1102 899.5 1008.5 c 0
 1000 915 1000 915 1000 738 c 2
 1000 272 l 2
 1000 192 1000 192 1021 151.5 c 0
 1042 111 1042 111 1101 111 c 0
 1116 111 1116 111 1131 113 c 0
 1146 115 1146 115 1160 118 c 1
 1160 6 l 1
 1126 -2 1126 -2 1092.5 -6 c 0
 1059 -10 1059 -10 1021 -10 c 0
 970 -10 970 -10 933.5 3.5 c 0
 897 17 897 17 874 44.5 c 0
 851 72 851 72 839 112.5 c 0
 827 153 827 153 824 207 c 1
 818 207 l 1
 790 155 790 155 756 113 c 0
 722 71 722 71 678 41.5 c 0
 634 12 634 12 577 -4 c 0
 520 -20 520 -20 446 -20 c 0
 288 -20 288 -20 208 66 c 0
 128 152 128 152 128 302 c 0
317 299 m 0
 317 217 317 217 361.5 167 c 0
 406 117 406 117 492 117 c 0
 575 117 575 117 636 148.5 c 0
 697 180 697 180 737.5 228 c 0
 778 276 778 276 798 334 c 0
 818 392 818 392 818 445 c 2
 818 534 l 1
 628 530 l 2
 573 529 573 529 517.5 521.5 c 0
 462 514 462 514 417.5 490 c 0
 373 466 373 466 345 420.5 c 0
 317 375 317 375 317 299 c 0
364 1348 m 0
 364 1387 364 1387 379 1423 c 0
 394 1459 394 1459 424 1486.5 c 0
 454 1514 454 1514 499.5 1530.5 c 0
 545 1547 545 1547 606 1547 c 0
 667 1547 667 1547 712.5 1530.5 c 0
 758 1514 758 1514 788 1486.5 c 0
 818 1459 818 1459 833 1423 c 0
 848 1387 848 1387 848 1348 c 0
 848 1309 848 1309 833 1273 c 0
 818 1237 818 1237 788 1209 c 0
 758 1181 758 1181 712.5 1164.5 c 0
 667 1148 667 1148 606 1148 c 0
 545 1148 545 1148 499.5 1164.5 c 0
 454 1181 454 1181 424 1209 c 0
 394 1237 394 1237 379 1273 c 0
 364 1309 364 1309 364 1348 c 0
484 1348 m 0
 484 1333 484 1333 490.5 1318 c 0
 497 1303 497 1303 512 1291 c 0
 527 1279 527 1279 550 1271.5 c 0
 573 1264 573 1264 606 1264 c 0
 639 1264 639 1264 662 1271.5 c 0
 685 1279 685 1279 699.5 1291 c 0
 714 1303 714 1303 720.5 1318 c 0
 727 1333 727 1333 727 1348 c 0
 727 1363 727 1363 720.5 1377.5 c 0
 714 1392 714 1392 699.5 1404 c 0
 685 1416 685 1416 662 1423.5 c 0
 639 1431 639 1431 606 1431 c 0
 573 1431 573 1431 550 1423.5 c 0
 527 1416 527 1416 512 1404 c 0
 497 1392 497 1392 490.5 1377.5 c 0
 484 1363 484 1363 484 1348 c 0
EndSplineSet
Validated: 1
EndChar

StartChar: ae
Encoding: 165 230 164
Width: 1229
VWidth: 1024
LayerCount: 2
Fore
SplineSet
20 302 m 0
 20 409 20 409 48.5 477.5 c 0
 77 546 77 546 123.5 585 c 0
 170 624 170 624 229 639.5 c 0
 288 655 288 655 350 656 c 2
 517 660 l 1
 517 719 l 2
 517 786 517 786 509.5 833 c 0
 502 880 502 880 485.5 909 c 0
 469 938 469 938 443 951.5 c 0
 417 965 417 965 381 965 c 0
 349 965 349 965 323.5 957.5 c 0
 298 950 298 950 279 930.5 c 0
 260 911 260 911 248.5 877.5 c 0
 237 844 237 844 233 793 c 1
 65 810 l 1
 73 874 73 874 93 927.5 c 0
 113 981 113 981 150 1020 c 0
 187 1059 187 1059 243.5 1080.5 c 0
 300 1102 300 1102 380 1102 c 0
 471 1102 471 1102 531.5 1067 c 0
 592 1032 592 1032 627 963 c 1
 672 1037 672 1037 734.5 1069.5 c 0
 797 1102 797 1102 873 1102 c 0
 969 1102 969 1102 1033.5 1058 c 0
 1098 1014 1098 1014 1137 936.5 c 0
 1176 859 1176 859 1192 754 c 0
 1208 649 1208 649 1208 527 c 2
 1208 503 l 1
 679 503 l 1
 679 486 l 2
 680 404 680 404 690.5 336 c 0
 701 268 701 268 723 219 c 0
 745 170 745 170 780 142.5 c 0
 815 115 815 115 864 115 c 0
 939 115 939 115 983.5 162 c 0
 1028 209 1028 209 1044 281 c 1
 1182 236 l 1
 1170 191 1170 191 1148.5 145.5 c 0
 1127 100 1127 100 1090.5 63.5 c 0
 1054 27 1054 27 999.5 3.5 c 0
 945 -20 945 -20 868 -20 c 0
 811 -20 811 -20 765 -8 c 0
 719 4 719 4 683 31.5 c 0
 647 59 647 59 620.5 103.5 c 0
 594 148 594 148 576 212 c 1
 555 163 555 163 528 120.5 c 0
 501 78 501 78 464.5 47 c 0
 428 16 428 16 382 -2 c 0
 336 -20 336 -20 278 -20 c 0
 210 -20 210 -20 161.5 2 c 0
 113 24 113 24 81.5 66 c 0
 50 108 50 108 35 167.5 c 0
 20 227 20 227 20 302 c 0
189 299 m 0
 189 217 189 217 217.5 167 c 0
 246 117 246 117 303 117 c 0
 359 117 359 117 399.5 148.5 c 0
 440 180 440 180 466 228 c 0
 492 276 492 276 504.5 334 c 0
 517 392 517 392 517 445 c 2
 517 534 l 1
 395 530 l 2
 358 529 358 529 321 521.5 c 0
 284 514 284 514 255 490 c 0
 226 466 226 466 207.5 420.5 c 0
 189 375 189 375 189 299 c 0
681 641 m 1
 1042 641 l 1
 1033 812 1033 812 989 890.5 c 0
 945 969 945 969 859 969 c 0
 831 969 831 969 800 954.5 c 0
 769 940 769 940 743.5 903 c 0
 718 866 718 866 700.5 802.5 c 0
 683 739 683 739 681 641 c 1
EndSplineSet
Validated: 1
EndChar

StartChar: ccedilla
Encoding: 166 231 165
Width: 1229
VWidth: 1024
LayerCount: 2
Fore
SplineSet
130 542 m 0
 130 705 130 705 173 813 c 0
 216 921 216 921 286.5 985 c 0
 357 1049 357 1049 447 1075.5 c 0
 537 1102 537 1102 632 1102 c 0
 730 1102 730 1102 807 1077 c 0
 884 1052 884 1052 939.5 1008.5 c 0
 995 965 995 965 1030 906 c 0
 1065 847 1065 847 1078 779 c 1
 886 765 l 1
 870 856 870 856 806 908.5 c 0
 742 961 742 961 624 961 c 0
 538 961 538 961 479.5 933.5 c 0
 421 906 421 906 385.5 853.5 c 0
 350 801 350 801 334.5 723.5 c 0
 319 646 319 646 319 546 c 0
 319 446 319 446 334.5 366.5 c 0
 350 287 350 287 385.5 232 c 0
 421 177 421 177 479.5 148 c 0
 538 119 538 119 623 119 c 0
 731 119 731 119 802 172 c 0
 873 225 873 225 890 334 c 1
 1080 322 l 1
 1071 255 1071 255 1037 193 c 0
 1003 131 1003 131 946 84 c 0
 889 37 889 37 810 8.5 c 0
 731 -20 731 -20 631 -20 c 0
 494 -20 494 -20 398.5 23 c 0
 303 66 303 66 243.5 141.5 c 0
 184 217 184 217 157 319.5 c 0
 130 422 130 422 130 542 c 0
456 -342 m 1
 506 -348 506 -348 542 -348 c 0
 583 -348 583 -348 611.5 -341.5 c 0
 640 -335 640 -335 657 -324 c 0
 674 -313 674 -313 681.5 -297 c 0
 689 -281 689 -281 689 -262 c 0
 689 -222 689 -222 658.5 -201 c 0
 628 -180 628 -180 556 -180 c 2
 527.5 -180 l 1
 499 -182 l 1
 564 0 l 1
 671 0 l 1
 632 -100 l 1
 726 -103 726 -103 773 -144.5 c 0
 820 -186 820 -186 820 -258 c 0
 820 -300 820 -300 805 -334.5 c 0
 790 -369 790 -369 757.5 -393.5 c 0
 725 -418 725 -418 673 -431 c 0
 621 -444 621 -444 546 -444 c 0
 526 -444 526 -444 503.5 -443.5 c 0
 481 -443 481 -443 456 -440 c 1
 456 -342 l 1
EndSplineSet
Validated: 524293
EndChar

StartChar: egrave
Encoding: 167 232 166
Width: 1229
VWidth: 1024
LayerCount: 2
Fore
SplineSet
133 548 m 0
 133 704 133 704 172.5 810 c 0
 212 916 212 916 279 981 c 0
 346 1046 346 1046 433.5 1074 c 0
 521 1102 521 1102 617 1102 c 0
 748 1102 748 1102 838.5 1060 c 0
 929 1018 929 1018 986 942.5 c 0
 1043 867 1043 867 1068.5 761 c 0
 1094 655 1094 655 1094 527 c 2
 1094 503 l 1
 322 503 l 1
 322 418 322 418 341 346.5 c 0
 360 275 360 275 398 223.5 c 0
 436 172 436 172 492.5 143.5 c 0
 549 115 549 115 623 115 c 0
 678 115 678 115 724.5 127.5 c 0
 771 140 771 140 808 162 c 0
 845 184 845 184 870 214.5 c 0
 895 245 895 245 907 281 c 1
 1065 236 l 1
 1049 191 1049 191 1017 145.5 c 0
 985 100 985 100 932 63.5 c 0
 879 27 879 27 803 3.5 c 0
 727 -20 727 -20 623 -20 c 0
 508 -20 508 -20 417 16 c 0
 326 52 326 52 263 123 c 0
 200 194 200 194 166.5 300.5 c 0
 133 407 133 407 133 548 c 0
323 1431 m 1
 323 1460 l 1
 520 1460 l 1
 747 1221 l 1
 747 1201 l 1
 623 1201 l 1
 323 1431 l 1
324 641 m 1
 908 641 l 1
 900 735 900 735 874 798 c 0
 848 861 848 861 809.5 899 c 0
 771 937 771 937 722 953 c 0
 673 969 673 969 619 969 c 0
 573 969 573 969 522.5 954.5 c 0
 472 940 472 940 429 903 c 0
 386 866 386 866 356.5 802.5 c 0
 327 739 327 739 324 641 c 1
EndSplineSet
Validated: 1
EndChar

StartChar: eacute
Encoding: 168 233 167
Width: 1229
VWidth: 1024
LayerCount: 2
Fore
SplineSet
133 548 m 0
 133 704 133 704 172.5 810 c 0
 212 916 212 916 279 981 c 0
 346 1046 346 1046 433.5 1074 c 0
 521 1102 521 1102 617 1102 c 0
 748 1102 748 1102 838.5 1060 c 0
 929 1018 929 1018 986 942.5 c 0
 1043 867 1043 867 1068.5 761 c 0
 1094 655 1094 655 1094 527 c 2
 1094 503 l 1
 322 503 l 1
 322 418 322 418 341 346.5 c 0
 360 275 360 275 398 223.5 c 0
 436 172 436 172 492.5 143.5 c 0
 549 115 549 115 623 115 c 0
 678 115 678 115 724.5 127.5 c 0
 771 140 771 140 808 162 c 0
 845 184 845 184 870 214.5 c 0
 895 245 895 245 907 281 c 1
 1065 236 l 1
 1049 191 1049 191 1017 145.5 c 0
 985 100 985 100 932 63.5 c 0
 879 27 879 27 803 3.5 c 0
 727 -20 727 -20 623 -20 c 0
 508 -20 508 -20 417 16 c 0
 326 52 326 52 263 123 c 0
 200 194 200 194 166.5 300.5 c 0
 133 407 133 407 133 548 c 0
324 641 m 1
 908 641 l 1
 900 735 900 735 874 798 c 0
 848 861 848 861 809.5 899 c 0
 771 937 771 937 722 953 c 0
 673 969 673 969 619 969 c 0
 573 969 573 969 522.5 954.5 c 0
 472 940 472 940 429 903 c 0
 386 866 386 866 356.5 802.5 c 0
 327 739 327 739 324 641 c 1
513 1201 m 1
 513 1221 l 1
 740 1460 l 1
 937 1460 l 1
 937 1431 l 1
 637 1201 l 1
 513 1201 l 1
EndSplineSet
Validated: 1
EndChar

StartChar: ecircumflex
Encoding: 169 234 168
Width: 1229
VWidth: 1024
LayerCount: 2
Fore
SplineSet
133 548 m 0
 133 704 133 704 172.5 810 c 0
 212 916 212 916 279 981 c 0
 346 1046 346 1046 433.5 1074 c 0
 521 1102 521 1102 617 1102 c 0
 748 1102 748 1102 838.5 1060 c 0
 929 1018 929 1018 986 942.5 c 0
 1043 867 1043 867 1068.5 761 c 0
 1094 655 1094 655 1094 527 c 2
 1094 503 l 1
 322 503 l 1
 322 418 322 418 341 346.5 c 0
 360 275 360 275 398 223.5 c 0
 436 172 436 172 492.5 143.5 c 0
 549 115 549 115 623 115 c 0
 678 115 678 115 724.5 127.5 c 0
 771 140 771 140 808 162 c 0
 845 184 845 184 870 214.5 c 0
 895 245 895 245 907 281 c 1
 1065 236 l 1
 1049 191 1049 191 1017 145.5 c 0
 985 100 985 100 932 63.5 c 0
 879 27 879 27 803 3.5 c 0
 727 -20 727 -20 623 -20 c 0
 508 -20 508 -20 417 16 c 0
 326 52 326 52 263 123 c 0
 200 194 200 194 166.5 300.5 c 0
 133 407 133 407 133 548 c 0
290 1201 m 1
 290 1221 l 1
 544 1460 l 1
 708 1460 l 1
 952 1221 l 1
 952 1201 l 1
 847 1201 l 1
 628 1339 l 1
 626 1339 l 1
 394 1201 l 1
 290 1201 l 1
324 641 m 1
 908 641 l 1
 900 735 900 735 874 798 c 0
 848 861 848 861 809.5 899 c 0
 771 937 771 937 722 953 c 0
 673 969 673 969 619 969 c 0
 573 969 573 969 522.5 954.5 c 0
 472 940 472 940 429 903 c 0
 386 866 386 866 356.5 802.5 c 0
 327 739 327 739 324 641 c 1
EndSplineSet
Validated: 1
EndChar

StartChar: edieresis
Encoding: 170 235 169
Width: 1229
VWidth: 1024
LayerCount: 2
Fore
SplineSet
133 548 m 0
 133 704 133 704 172.5 810 c 0
 212 916 212 916 279 981 c 0
 346 1046 346 1046 433.5 1074 c 0
 521 1102 521 1102 617 1102 c 0
 748 1102 748 1102 838.5 1060 c 0
 929 1018 929 1018 986 942.5 c 0
 1043 867 1043 867 1068.5 761 c 0
 1094 655 1094 655 1094 527 c 2
 1094 503 l 1
 322 503 l 1
 322 418 322 418 341 346.5 c 0
 360 275 360 275 398 223.5 c 0
 436 172 436 172 492.5 143.5 c 0
 549 115 549 115 623 115 c 0
 678 115 678 115 724.5 127.5 c 0
 771 140 771 140 808 162 c 0
 845 184 845 184 870 214.5 c 0
 895 245 895 245 907 281 c 1
 1065 236 l 1
 1049 191 1049 191 1017 145.5 c 0
 985 100 985 100 932 63.5 c 0
 879 27 879 27 803 3.5 c 0
 727 -20 727 -20 623 -20 c 0
 508 -20 508 -20 417 16 c 0
 326 52 326 52 263 123 c 0
 200 194 200 194 166.5 300.5 c 0
 133 407 133 407 133 548 c 0
324 641 m 1
 908 641 l 1
 900 735 900 735 874 798 c 0
 848 861 848 861 809.5 899 c 0
 771 937 771 937 722 953 c 0
 673 969 673 969 619 969 c 0
 573 969 573 969 522.5 954.5 c 0
 472 940 472 940 429 903 c 0
 386 866 386 866 356.5 802.5 c 0
 327 739 327 739 324 641 c 1
343 1219 m 1
 343 1403 l 1
 508 1403 l 1
 508 1219 l 1
 343 1219 l 1
737 1219 m 1
 737 1403 l 1
 900 1403 l 1
 900 1219 l 1
 737 1219 l 1
EndSplineSet
Validated: 1
EndChar

StartChar: igrave
Encoding: 171 236 170
Width: 1229
VWidth: 1024
LayerCount: 2
Fore
SplineSet
143 0 m 1
 143 142 l 1
 565 142 l 1
 565 940 l 1
 246 940 l 1
 246 1082 l 1
 745 1082 l 1
 745 142 l 1
 1125 142 l 1
 1125 0 l 1
 143 0 l 1
335 1431 m 1
 335 1460 l 1
 532 1460 l 1
 759 1221 l 1
 759 1201 l 1
 635 1201 l 1
 335 1431 l 1
EndSplineSet
Validated: 1
EndChar

StartChar: iacute
Encoding: 172 237 171
Width: 1229
VWidth: 1024
LayerCount: 2
Fore
SplineSet
143 0 m 1
 143 142 l 1
 565 142 l 1
 565 940 l 1
 246 940 l 1
 246 1082 l 1
 745 1082 l 1
 745 142 l 1
 1125 142 l 1
 1125 0 l 1
 143 0 l 1
506 1201 m 1
 506 1221 l 1
 733 1460 l 1
 930 1460 l 1
 930 1431 l 1
 630 1201 l 1
 506 1201 l 1
EndSplineSet
Validated: 1
EndChar

StartChar: icircumflex
Encoding: 173 238 172
Width: 1229
VWidth: 1024
LayerCount: 2
Fore
SplineSet
143 0 m 1
 143 142 l 1
 565 142 l 1
 565 940 l 1
 246 940 l 1
 246 1082 l 1
 745 1082 l 1
 745 142 l 1
 1125 142 l 1
 1125 0 l 1
 143 0 l 1
293 1201 m 1
 293 1221 l 1
 547 1460 l 1
 711 1460 l 1
 955 1221 l 1
 955 1201 l 1
 850 1201 l 1
 631 1339 l 1
 629 1339 l 1
 397 1201 l 1
 293 1201 l 1
EndSplineSet
Validated: 1
EndChar

StartChar: idieresis
Encoding: 174 239 173
Width: 1229
VWidth: 1024
LayerCount: 2
Fore
SplineSet
143 0 m 1
 143 142 l 1
 565 142 l 1
 565 940 l 1
 246 940 l 1
 246 1082 l 1
 745 1082 l 1
 745 142 l 1
 1125 142 l 1
 1125 0 l 1
 143 0 l 1
376 1219 m 1
 376 1403 l 1
 541 1403 l 1
 541 1219 l 1
 376 1219 l 1
770 1219 m 1
 770 1403 l 1
 933 1403 l 1
 933 1219 l 1
 770 1219 l 1
EndSplineSet
Validated: 1
EndChar

StartChar: eth
Encoding: 175 240 174
Width: 1229
VWidth: 1024
LayerCount: 2
Fore
SplineSet
125 481 m 0
 125 588 125 588 151 679 c 0
 177 770 177 770 235 837 c 0
 293 904 293 904 386 941.5 c 0
 479 979 479 979 612 979 c 0
 683 979 683 979 741.5 963 c 0
 800 947 800 947 843 920 c 1
 804 1009 804 1009 751.5 1088.5 c 0
 699 1168 699 1168 623 1237 c 1
 363 1122 l 1
 308 1232 l 1
 526 1326 l 1
 470 1371 470 1371 410 1410 c 0
 350 1449 350 1449 284 1484 c 1
 493 1484 l 1
 538 1464 538 1464 579.5 1438.5 c 0
 621 1413 621 1413 663 1382 c 1
 927 1496 l 1
 982 1388 l 1
 771 1296 l 1
 935 1147 935 1147 1018.5 953.5 c 0
 1102 760 1102 760 1102 516 c 2
 1102 510 l 2
 1102 389 1102 389 1073.5 291 c 0
 1045 193 1045 193 985 124 c 0
 925 55 925 55 831 17.5 c 0
 737 -20 737 -20 605 -20 c 0
 480 -20 480 -20 389.5 16.5 c 0
 299 53 299 53 240 119 c 0
 181 185 181 185 153 277.5 c 0
 125 370 125 370 125 481 c 0
314 481 m 0
 314 291 314 291 386 202 c 0
 458 113 458 113 603 113 c 0
 684 113 684 113 743 135 c 0
 802 157 802 157 839.5 202 c 0
 877 247 877 247 895 316.5 c 0
 913 386 913 386 913 481 c 0
 913 575 913 575 896.5 643.5 c 0
 880 712 880 712 844.5 757 c 0
 809 802 809 802 752.5 824 c 0
 696 846 696 846 616 846 c 0
 535 846 535 846 477.5 823.5 c 0
 420 801 420 801 383.5 755 c 0
 347 709 347 709 330.5 641 c 0
 314 573 314 573 314 481 c 0
EndSplineSet
Validated: 1
EndChar

StartChar: ntilde
Encoding: 176 241 175
Width: 1229
VWidth: 1024
LayerCount: 2
Fore
SplineSet
179 1082 m 1
 349 1082 l 1
 350 1077 350 1077 351 1055 c 0
 352 1033 352 1033 353.5 1004.5 c 0
 355 976 355 976 356 946.5 c 0
 357 917 357 917 357 897 c 1
 360 897 l 1
 384 944 384 944 416.5 982 c 0
 449 1020 449 1020 491.5 1046.5 c 0
 534 1073 534 1073 587 1087.5 c 0
 640 1102 640 1102 706 1102 c 0
 789 1102 789 1102 853 1080 c 0
 917 1058 917 1058 960.5 1012 c 0
 1004 966 1004 966 1026.5 894 c 0
 1049 822 1049 822 1049 721 c 2
 1049 0 l 1
 868 0 l 1
 868 695 l 2
 868 775 868 775 851.5 826.5 c 0
 835 878 835 878 805.5 908.5 c 0
 776 939 776 939 736 951 c 0
 696 963 696 963 648 963 c 0
 589 963 589 963 537.5 940.5 c 0
 486 918 486 918 447.5 875.5 c 0
 409 833 409 833 387 770.5 c 0
 365 708 365 708 365 627 c 2
 365 0 l 1
 185 0 l 1
 185 851 l 2
 185 885 185 885 184.5 922.5 c 0
 184 960 184 960 183 993.5 c 0
 182 1027 182 1027 181 1051 c 0
 180 1075 180 1075 179 1082 c 1
265 1201 m 1
 270 1246 270 1246 280 1290 c 0
 290 1334 290 1334 312.5 1369.5 c 0
 335 1405 335 1405 372 1427 c 0
 409 1449 409 1449 468 1449 c 0
 512 1449 512 1449 554 1430.5 c 0
 596 1412 596 1412 636 1389.5 c 0
 676 1367 676 1367 713 1348.5 c 0
 750 1330 750 1330 783 1330 c 0
 806 1330 806 1330 821 1338 c 0
 836 1346 836 1346 846 1361.5 c 0
 856 1377 856 1377 861 1399 c 0
 866 1421 866 1421 870 1449 c 1
 982 1449 l 1
 977 1405 977 1405 967 1361 c 0
 957 1317 957 1317 935.5 1281.5 c 0
 914 1246 914 1246 877 1223.5 c 0
 840 1201 840 1201 780 1201 c 0
 738 1201 738 1201 696 1219.5 c 0
 654 1238 654 1238 614 1260.5 c 0
 574 1283 574 1283 535.5 1301.5 c 0
 497 1320 497 1320 462 1320 c 0
 439 1320 439 1320 424.5 1312 c 0
 410 1304 410 1304 400.5 1289 c 0
 391 1274 391 1274 386 1252 c 0
 381 1230 381 1230 376 1201 c 1
 265 1201 l 1
EndSplineSet
Validated: 1
EndChar

StartChar: ograve
Encoding: 177 242 176
Width: 1229
VWidth: 1024
LayerCount: 2
Fore
SplineSet
130 542 m 0
 130 821 130 821 256.5 961.5 c 0
 383 1102 383 1102 615 1102 c 0
 859 1102 859 1102 978 963 c 0
 1097 824 1097 824 1097 542 c 0
 1097 400 1097 400 1063.5 294.5 c 0
 1030 189 1030 189 967 119 c 0
 904 49 904 49 813.5 14.5 c 0
 723 -20 723 -20 609 -20 c 0
 500 -20 500 -20 411.5 14 c 0
 323 48 323 48 260.5 118 c 0
 198 188 198 188 164 293.5 c 0
 130 399 130 399 130 542 c 0
319 542 m 0
 319 416 319 416 342.5 333.5 c 0
 366 251 366 251 405.5 202 c 0
 445 153 445 153 497.5 133 c 0
 550 113 550 113 607 113 c 0
 672 113 672 113 727.5 132.5 c 0
 783 152 783 152 823 201 c 0
 863 250 863 250 885.5 333 c 0
 908 416 908 416 908 542 c 0
 908 668 908 668 886.5 750 c 0
 865 832 865 832 826.5 881 c 0
 788 930 788 930 735 949.5 c 0
 682 969 682 969 618 969 c 0
 553 969 553 969 498 948.5 c 0
 443 928 443 928 403.5 878.5 c 0
 364 829 364 829 341.5 747 c 0
 319 665 319 665 319 542 c 0
332 1431 m 1
 332 1460 l 1
 529 1460 l 1
 756 1221 l 1
 756 1201 l 1
 632 1201 l 1
 332 1431 l 1
EndSplineSet
Validated: 1
EndChar

StartChar: oacute
Encoding: 178 243 177
Width: 1229
VWidth: 1024
LayerCount: 2
Fore
SplineSet
130 542 m 0
 130 821 130 821 256.5 961.5 c 0
 383 1102 383 1102 615 1102 c 0
 859 1102 859 1102 978 963 c 0
 1097 824 1097 824 1097 542 c 0
 1097 400 1097 400 1063.5 294.5 c 0
 1030 189 1030 189 967 119 c 0
 904 49 904 49 813.5 14.5 c 0
 723 -20 723 -20 609 -20 c 0
 500 -20 500 -20 411.5 14 c 0
 323 48 323 48 260.5 118 c 0
 198 188 198 188 164 293.5 c 0
 130 399 130 399 130 542 c 0
319 542 m 0
 319 416 319 416 342.5 333.5 c 0
 366 251 366 251 405.5 202 c 0
 445 153 445 153 497.5 133 c 0
 550 113 550 113 607 113 c 0
 672 113 672 113 727.5 132.5 c 0
 783 152 783 152 823 201 c 0
 863 250 863 250 885.5 333 c 0
 908 416 908 416 908 542 c 0
 908 668 908 668 886.5 750 c 0
 865 832 865 832 826.5 881 c 0
 788 930 788 930 735 949.5 c 0
 682 969 682 969 618 969 c 0
 553 969 553 969 498 948.5 c 0
 443 928 443 928 403.5 878.5 c 0
 364 829 364 829 341.5 747 c 0
 319 665 319 665 319 542 c 0
503 1201 m 1
 503 1221 l 1
 730 1460 l 1
 927 1460 l 1
 927 1431 l 1
 627 1201 l 1
 503 1201 l 1
EndSplineSet
Validated: 1
EndChar

StartChar: ocircumflex
Encoding: 179 244 178
Width: 1229
VWidth: 1024
LayerCount: 2
Fore
SplineSet
130 542 m 0
 130 821 130 821 256.5 961.5 c 0
 383 1102 383 1102 615 1102 c 0
 859 1102 859 1102 978 963 c 0
 1097 824 1097 824 1097 542 c 0
 1097 400 1097 400 1063.5 294.5 c 0
 1030 189 1030 189 967 119 c 0
 904 49 904 49 813.5 14.5 c 0
 723 -20 723 -20 609 -20 c 0
 500 -20 500 -20 411.5 14 c 0
 323 48 323 48 260.5 118 c 0
 198 188 198 188 164 293.5 c 0
 130 399 130 399 130 542 c 0
283 1201 m 1
 283 1221 l 1
 537 1460 l 1
 701 1460 l 1
 945 1221 l 1
 945 1201 l 1
 840 1201 l 1
 621 1339 l 1
 619 1339 l 1
 387 1201 l 1
 283 1201 l 1
319 542 m 0
 319 416 319 416 342.5 333.5 c 0
 366 251 366 251 405.5 202 c 0
 445 153 445 153 497.5 133 c 0
 550 113 550 113 607 113 c 0
 672 113 672 113 727.5 132.5 c 0
 783 152 783 152 823 201 c 0
 863 250 863 250 885.5 333 c 0
 908 416 908 416 908 542 c 0
 908 668 908 668 886.5 750 c 0
 865 832 865 832 826.5 881 c 0
 788 930 788 930 735 949.5 c 0
 682 969 682 969 618 969 c 0
 553 969 553 969 498 948.5 c 0
 443 928 443 928 403.5 878.5 c 0
 364 829 364 829 341.5 747 c 0
 319 665 319 665 319 542 c 0
EndSplineSet
Validated: 1
EndChar

StartChar: otilde
Encoding: 180 245 179
Width: 1229
VWidth: 1024
LayerCount: 2
Fore
SplineSet
130 542 m 0
 130 821 130 821 256.5 961.5 c 0
 383 1102 383 1102 615 1102 c 0
 859 1102 859 1102 978 963 c 0
 1097 824 1097 824 1097 542 c 0
 1097 400 1097 400 1063.5 294.5 c 0
 1030 189 1030 189 967 119 c 0
 904 49 904 49 813.5 14.5 c 0
 723 -20 723 -20 609 -20 c 0
 500 -20 500 -20 411.5 14 c 0
 323 48 323 48 260.5 118 c 0
 198 188 198 188 164 293.5 c 0
 130 399 130 399 130 542 c 0
255 1201 m 1
 260 1246 260 1246 270 1290 c 0
 280 1334 280 1334 302.5 1369.5 c 0
 325 1405 325 1405 362 1427 c 0
 399 1449 399 1449 458 1449 c 0
 502 1449 502 1449 544 1430.5 c 0
 586 1412 586 1412 626 1389.5 c 0
 666 1367 666 1367 703 1348.5 c 0
 740 1330 740 1330 773 1330 c 0
 796 1330 796 1330 811 1338 c 0
 826 1346 826 1346 836 1361.5 c 0
 846 1377 846 1377 851 1399 c 0
 856 1421 856 1421 860 1449 c 1
 972 1449 l 1
 967 1405 967 1405 957 1361 c 0
 947 1317 947 1317 925.5 1281.5 c 0
 904 1246 904 1246 867 1223.5 c 0
 830 1201 830 1201 770 1201 c 0
 728 1201 728 1201 686 1219.5 c 0
 644 1238 644 1238 604 1260.5 c 0
 564 1283 564 1283 525.5 1301.5 c 0
 487 1320 487 1320 452 1320 c 0
 429 1320 429 1320 414.5 1312 c 0
 400 1304 400 1304 390.5 1289 c 0
 381 1274 381 1274 376 1252 c 0
 371 1230 371 1230 366 1201 c 1
 255 1201 l 1
319 542 m 0
 319 416 319 416 342.5 333.5 c 0
 366 251 366 251 405.5 202 c 0
 445 153 445 153 497.5 133 c 0
 550 113 550 113 607 113 c 0
 672 113 672 113 727.5 132.5 c 0
 783 152 783 152 823 201 c 0
 863 250 863 250 885.5 333 c 0
 908 416 908 416 908 542 c 0
 908 668 908 668 886.5 750 c 0
 865 832 865 832 826.5 881 c 0
 788 930 788 930 735 949.5 c 0
 682 969 682 969 618 969 c 0
 553 969 553 969 498 948.5 c 0
 443 928 443 928 403.5 878.5 c 0
 364 829 364 829 341.5 747 c 0
 319 665 319 665 319 542 c 0
EndSplineSet
Validated: 1
EndChar

StartChar: odieresis
Encoding: 181 246 180
Width: 1229
VWidth: 1024
LayerCount: 2
Fore
SplineSet
130 542 m 0
 130 821 130 821 256.5 961.5 c 0
 383 1102 383 1102 615 1102 c 0
 859 1102 859 1102 978 963 c 0
 1097 824 1097 824 1097 542 c 0
 1097 400 1097 400 1063.5 294.5 c 0
 1030 189 1030 189 967 119 c 0
 904 49 904 49 813.5 14.5 c 0
 723 -20 723 -20 609 -20 c 0
 500 -20 500 -20 411.5 14 c 0
 323 48 323 48 260.5 118 c 0
 198 188 198 188 164 293.5 c 0
 130 399 130 399 130 542 c 0
319 542 m 0
 319 416 319 416 342.5 333.5 c 0
 366 251 366 251 405.5 202 c 0
 445 153 445 153 497.5 133 c 0
 550 113 550 113 607 113 c 0
 672 113 672 113 727.5 132.5 c 0
 783 152 783 152 823 201 c 0
 863 250 863 250 885.5 333 c 0
 908 416 908 416 908 542 c 0
 908 668 908 668 886.5 750 c 0
 865 832 865 832 826.5 881 c 0
 788 930 788 930 735 949.5 c 0
 682 969 682 969 618 969 c 0
 553 969 553 969 498 948.5 c 0
 443 928 443 928 403.5 878.5 c 0
 364 829 364 829 341.5 747 c 0
 319 665 319 665 319 542 c 0
335 1219 m 1
 335 1403 l 1
 500 1403 l 1
 500 1219 l 1
 335 1219 l 1
729 1219 m 1
 729 1403 l 1
 892 1403 l 1
 892 1219 l 1
 729 1219 l 1
EndSplineSet
Validated: 1
EndChar

StartChar: divide
Encoding: 182 247 181
Width: 1229
VWidth: 1024
LayerCount: 2
Fore
SplineSet
116 608 m 1
 116 754 l 1
 1111 754 l 1
 1111 608 l 1
 116 608 l 1
529 223 m 1
 529 406 l 1
 697 406 l 1
 697 223 l 1
 529 223 l 1
529 958 m 1
 529 1141 l 1
 697 1141 l 1
 697 958 l 1
 529 958 l 1
EndSplineSet
Validated: 1
EndChar

StartChar: oslash
Encoding: 183 248 182
Width: 1229
VWidth: 1024
LayerCount: 2
Fore
SplineSet
110 542 m 0
 110 682 110 682 143.5 786.5 c 0
 177 891 177 891 241.5 961.5 c 0
 306 1032 306 1032 400 1067 c 0
 494 1102 494 1102 615 1102 c 0
 828 1102 828 1102 950 1002 c 1
 1022 1084 l 1
 1100 1016 l 1
 1020 926 l 1
 1117 789 1117 789 1117 542 c 0
 1117 400 1117 400 1082 294.5 c 0
 1047 189 1047 189 981.5 119 c 0
 916 49 916 49 822 14.5 c 0
 728 -20 728 -20 609 -20 c 0
 508 -20 508 -20 425 6.5 c 0
 342 33 342 33 278 87 c 1
 201 0 l 1
 125 68 l 1
 209 163 l 1
 161 232 161 232 135.5 326 c 0
 110 420 110 420 110 542 c 0
299 542 m 0
 299 467 299 467 307.5 408.5 c 0
 316 350 316 350 333 304 c 1
 842 880 l 1
 800 930 800 930 743.5 949.5 c 0
 687 969 687 969 618 969 c 0
 549 969 549 969 490.5 948.5 c 0
 432 928 432 928 389.5 878.5 c 0
 347 829 347 829 323 747 c 0
 299 665 299 665 299 542 c 0
386 208 m 1
 429 155 429 155 486 134 c 0
 543 113 543 113 607 113 c 0
 676 113 676 113 735 132.5 c 0
 794 152 794 152 837 201 c 0
 880 250 880 250 904 333 c 0
 928 416 928 416 928 542 c 0
 928 618 928 618 919.5 678 c 0
 911 738 911 738 895 784 c 1
 386 208 l 1
EndSplineSet
Validated: 1
EndChar

StartChar: ugrave
Encoding: 184 249 183
Width: 1229
VWidth: 1024
LayerCount: 2
Fore
SplineSet
185 361 m 2
 185 1082 l 1
 365 1082 l 1
 365 396 l 2
 365 317 365 317 376.5 264 c 0
 388 211 388 211 414.5 178.5 c 0
 441 146 441 146 483.5 132.5 c 0
 526 119 526 119 589 119 c 0
 653 119 653 119 704.5 141.5 c 0
 756 164 756 164 792.5 206.5 c 0
 829 249 829 249 848.5 311.5 c 0
 868 374 868 374 868 455 c 2
 868 1082 l 1
 1049 1082 l 1
 1049 231 l 2
 1049 197 1049 197 1049.5 159.5 c 0
 1050 122 1050 122 1051 88.5 c 0
 1052 55 1052 55 1053 31 c 0
 1054 7 1054 7 1055 0 c 1
 885 0 l 1
 884 5 884 5 883 27 c 0
 882 49 882 49 880.5 77.5 c 0
 879 106 879 106 878 135.5 c 0
 877 165 877 165 877 185 c 1
 874 185 l 1
 848 138 848 138 817 100 c 0
 786 62 786 62 745 35.5 c 0
 704 9 704 9 651 -5.5 c 0
 598 -20 598 -20 528 -20 c 0
 438 -20 438 -20 373 2 c 0
 308 24 308 24 266 70 c 0
 224 116 224 116 204.5 188.5 c 0
 185 261 185 261 185 361 c 2
308 1431 m 1
 308 1460 l 1
 505 1460 l 1
 732 1221 l 1
 732 1201 l 1
 608 1201 l 1
 308 1431 l 1
EndSplineSet
Validated: 1
EndChar

StartChar: uacute
Encoding: 185 250 184
Width: 1229
VWidth: 1024
LayerCount: 2
Fore
SplineSet
185 361 m 2
 185 1082 l 1
 365 1082 l 1
 365 396 l 2
 365 317 365 317 376.5 264 c 0
 388 211 388 211 414.5 178.5 c 0
 441 146 441 146 483.5 132.5 c 0
 526 119 526 119 589 119 c 0
 653 119 653 119 704.5 141.5 c 0
 756 164 756 164 792.5 206.5 c 0
 829 249 829 249 848.5 311.5 c 0
 868 374 868 374 868 455 c 2
 868 1082 l 1
 1049 1082 l 1
 1049 231 l 2
 1049 197 1049 197 1049.5 159.5 c 0
 1050 122 1050 122 1051 88.5 c 0
 1052 55 1052 55 1053 31 c 0
 1054 7 1054 7 1055 0 c 1
 885 0 l 1
 884 5 884 5 883 27 c 0
 882 49 882 49 880.5 77.5 c 0
 879 106 879 106 878 135.5 c 0
 877 165 877 165 877 185 c 1
 874 185 l 1
 848 138 848 138 817 100 c 0
 786 62 786 62 745 35.5 c 0
 704 9 704 9 651 -5.5 c 0
 598 -20 598 -20 528 -20 c 0
 438 -20 438 -20 373 2 c 0
 308 24 308 24 266 70 c 0
 224 116 224 116 204.5 188.5 c 0
 185 261 185 261 185 361 c 2
492 1201 m 1
 492 1221 l 1
 719 1460 l 1
 916 1460 l 1
 916 1431 l 1
 616 1201 l 1
 492 1201 l 1
EndSplineSet
Validated: 1
EndChar

StartChar: ucircumflex
Encoding: 186 251 185
Width: 1229
VWidth: 1024
LayerCount: 2
Fore
SplineSet
185 361 m 2
 185 1082 l 1
 365 1082 l 1
 365 396 l 2
 365 317 365 317 376.5 264 c 0
 388 211 388 211 414.5 178.5 c 0
 441 146 441 146 483.5 132.5 c 0
 526 119 526 119 589 119 c 0
 653 119 653 119 704.5 141.5 c 0
 756 164 756 164 792.5 206.5 c 0
 829 249 829 249 848.5 311.5 c 0
 868 374 868 374 868 455 c 2
 868 1082 l 1
 1049 1082 l 1
 1049 231 l 2
 1049 197 1049 197 1049.5 159.5 c 0
 1050 122 1050 122 1051 88.5 c 0
 1052 55 1052 55 1053 31 c 0
 1054 7 1054 7 1055 0 c 1
 885 0 l 1
 884 5 884 5 883 27 c 0
 882 49 882 49 880.5 77.5 c 0
 879 106 879 106 878 135.5 c 0
 877 165 877 165 877 185 c 1
 874 185 l 1
 848 138 848 138 817 100 c 0
 786 62 786 62 745 35.5 c 0
 704 9 704 9 651 -5.5 c 0
 598 -20 598 -20 528 -20 c 0
 438 -20 438 -20 373 2 c 0
 308 24 308 24 266 70 c 0
 224 116 224 116 204.5 188.5 c 0
 185 261 185 261 185 361 c 2
283 1201 m 1
 283 1221 l 1
 537 1460 l 1
 701 1460 l 1
 945 1221 l 1
 945 1201 l 1
 840 1201 l 1
 621 1339 l 1
 619 1339 l 1
 387 1201 l 1
 283 1201 l 1
EndSplineSet
Validated: 1
EndChar

StartChar: udieresis
Encoding: 187 252 186
Width: 1229
VWidth: 1024
LayerCount: 2
Fore
SplineSet
185 361 m 2
 185 1082 l 1
 365 1082 l 1
 365 396 l 2
 365 317 365 317 376.5 264 c 0
 388 211 388 211 414.5 178.5 c 0
 441 146 441 146 483.5 132.5 c 0
 526 119 526 119 589 119 c 0
 653 119 653 119 704.5 141.5 c 0
 756 164 756 164 792.5 206.5 c 0
 829 249 829 249 848.5 311.5 c 0
 868 374 868 374 868 455 c 2
 868 1082 l 1
 1049 1082 l 1
 1049 231 l 2
 1049 197 1049 197 1049.5 159.5 c 0
 1050 122 1050 122 1051 88.5 c 0
 1052 55 1052 55 1053 31 c 0
 1054 7 1054 7 1055 0 c 1
 885 0 l 1
 884 5 884 5 883 27 c 0
 882 49 882 49 880.5 77.5 c 0
 879 106 879 106 878 135.5 c 0
 877 165 877 165 877 185 c 1
 874 185 l 1
 848 138 848 138 817 100 c 0
 786 62 786 62 745 35.5 c 0
 704 9 704 9 651 -5.5 c 0
 598 -20 598 -20 528 -20 c 0
 438 -20 438 -20 373 2 c 0
 308 24 308 24 266 70 c 0
 224 116 224 116 204.5 188.5 c 0
 185 261 185 261 185 361 c 2
335 1219 m 1
 335 1403 l 1
 500 1403 l 1
 500 1219 l 1
 335 1219 l 1
729 1219 m 1
 729 1403 l 1
 892 1403 l 1
 892 1219 l 1
 729 1219 l 1
EndSplineSet
Validated: 1
EndChar

StartChar: yacute
Encoding: 188 253 187
Width: 1229
VWidth: 1024
LayerCount: 2
Fore
SplineSet
66 1082 m 1
 258 1082 l 1
 522 440 l 2
 533 413 533 413 549 373.5 c 0
 565 334 565 334 580 295.5 c 0
 595 257 595 257 606.5 226 c 0
 618 195 618 195 620 186 c 1
 623 197 623 197 634.5 227.5 c 0
 646 258 646 258 661 295.5 c 0
 676 333 676 333 691.5 372.5 c 0
 707 412 707 412 719 441 c 2
 971 1082 l 1
 1161 1082 l 1
 705 0 l 2
 668 -98 668 -98 628 -176.5 c 0
 588 -255 588 -255 539 -310.5 c 0
 490 -366 490 -366 430 -395.5 c 0
 370 -425 370 -425 292 -425 c 0
 258 -425 258 -425 229 -423 c 0
 200 -421 200 -421 168 -414 c 1
 168 -279 l 1
 187 -282 187 -282 211 -283.5 c 0
 235 -285 235 -285 252 -285 c 0
 331 -285 331 -285 400.5 -226 c 0
 470 -167 470 -167 518 -38 c 2
 536 11 l 1
 66 1082 l 1
509 1201 m 1
 509 1221 l 1
 736 1460 l 1
 933 1460 l 1
 933 1431 l 1
 633 1201 l 1
 509 1201 l 1
EndSplineSet
Validated: 1
EndChar

StartChar: thorn
Encoding: 189 254 188
Width: 1229
VWidth: 1024
LayerCount: 2
Fore
SplineSet
185 -425 m 1
 185 1484 l 1
 365 1484 l 1
 365 1061 l 2
 365 1032 365 1032 364.5 1003.5 c 0
 364 975 364 975 363 953 c 0
 362 927 362 927 361 904 c 1
 368 904 l 1
 393 956 393 956 424.5 994 c 0
 456 1032 456 1032 496 1056.5 c 0
 536 1081 536 1081 586 1092.5 c 0
 636 1104 636 1104 698 1104 c 0
 808 1104 808 1104 883 1064 c 0
 958 1024 958 1024 1004 950.5 c 0
 1050 877 1050 877 1070 774 c 0
 1090 671 1090 671 1090 546 c 0
 1090 423 1090 423 1070 319 c 0
 1050 215 1050 215 1004 140 c 0
 958 65 958 65 883 22.5 c 0
 808 -20 808 -20 698 -20 c 0
 643 -20 643 -20 593 -10 c 0
 543 0 543 0 500 22 c 0
 457 44 457 44 423.5 79 c 0
 390 114 390 114 367 164 c 1
 362 164 l 1
 363 162 363 162 363.5 146.5 c 0
 364 131 364 131 364.5 108 c 0
 365 85 365 85 365.5 56 c 0
 366 27 366 27 366 -2 c 2
 366 -425 l 1
 185 -425 l 1
366 524 m 0
 366 409 366 409 384.5 330.5 c 0
 403 252 403 252 439 203.5 c 0
 475 155 475 155 528 134 c 0
 581 113 581 113 649 113 c 0
 722 113 722 113 771 141.5 c 0
 820 170 820 170 849.5 225 c 0
 879 280 879 280 891.5 361 c 0
 904 442 904 442 904 546 c 0
 904 646 904 646 892 724 c 0
 880 802 880 802 850.5 855.5 c 0
 821 909 821 909 772.5 937 c 0
 724 965 724 965 651 965 c 0
 592 965 592 965 540 946.5 c 0
 488 928 488 928 449.5 879.5 c 0
 411 831 411 831 388.5 745 c 0
 366 659 366 659 366 524 c 0
EndSplineSet
Validated: 1
EndChar

StartChar: ydieresis
Encoding: 190 255 189
Width: 1229
VWidth: 1024
LayerCount: 2
Fore
SplineSet
66 1082 m 1
 258 1082 l 1
 522 440 l 2
 533 413 533 413 549 373.5 c 0
 565 334 565 334 580 295.5 c 0
 595 257 595 257 606.5 226 c 0
 618 195 618 195 620 186 c 1
 623 197 623 197 634.5 227.5 c 0
 646 258 646 258 661 295.5 c 0
 676 333 676 333 691.5 372.5 c 0
 707 412 707 412 719 441 c 2
 971 1082 l 1
 1161 1082 l 1
 705 0 l 2
 668 -98 668 -98 628 -176.5 c 0
 588 -255 588 -255 539 -310.5 c 0
 490 -366 490 -366 430 -395.5 c 0
 370 -425 370 -425 292 -425 c 0
 258 -425 258 -425 229 -423 c 0
 200 -421 200 -421 168 -414 c 1
 168 -279 l 1
 187 -282 187 -282 211 -283.5 c 0
 235 -285 235 -285 252 -285 c 0
 331 -285 331 -285 400.5 -226 c 0
 470 -167 470 -167 518 -38 c 2
 536 11 l 1
 66 1082 l 1
340 1219 m 1
 340 1403 l 1
 505 1403 l 1
 505 1219 l 1
 340 1219 l 1
734 1219 m 1
 734 1403 l 1
 897 1403 l 1
 897 1219 l 1
 734 1219 l 1
EndSplineSet
Validated: 1
EndChar

StartChar: OE
Encoding: 191 338 190
Width: 1229
VWidth: 1024
LayerCount: 2
Fore
SplineSet
20 681 m 0
 20 861 20 861 50.5 989 c 0
 81 1117 81 1117 142.5 1198 c 0
 204 1279 204 1279 296.5 1317 c 0
 389 1355 389 1355 513 1355 c 0
 571 1355 571 1355 622 1349 c 1
 1180 1349 l 1
 1180 1197 l 1
 782 1197 l 1
 782 757 l 1
 1149 757 l 1
 1149 607 l 1
 782 607 l 1
 782 152 l 1
 1221 152 l 1
 1221 0 l 1
 609 0 l 2
 586 -2 586 -2 561.5 -3.5 c 0
 537 -5 537 -5 511 -5 c 0
 256 -5 256 -5 138 164 c 0
 20 333 20 333 20 681 c 0
201 681 m 0
 201 539 201 539 221 437 c 0
 241 335 241 335 280.5 269 c 0
 320 203 320 203 378 171.5 c 0
 436 140 436 140 512 140 c 0
 534 140 534 140 563.5 141 c 0
 593 142 593 142 612 146 c 1
 612 1203 l 1
 593 1206 593 1206 563.5 1207.5 c 0
 534 1209 534 1209 513 1209 c 0
 435 1209 435 1209 376.5 1180 c 0
 318 1151 318 1151 279 1087.5 c 0
 240 1024 240 1024 220.5 924 c 0
 201 824 201 824 201 681 c 0
EndSplineSet
Validated: 1
EndChar

StartChar: oe
Encoding: 192 339 191
Width: 1229
VWidth: 1024
LayerCount: 2
Fore
SplineSet
28 542 m 0
 28 821 28 821 113 961.5 c 0
 198 1102 198 1102 360 1102 c 0
 547 1102 547 1102 626 925 c 1
 671 1019 671 1019 737.5 1060.5 c 0
 804 1102 804 1102 885 1102 c 0
 976 1102 976 1102 1037.5 1058 c 0
 1099 1014 1099 1014 1136 936.5 c 0
 1173 859 1173 859 1188.5 754 c 0
 1204 649 1204 649 1204 527 c 2
 1204 503 l 1
 712 503 l 1
 712 418 712 418 721.5 346.5 c 0
 731 275 731 275 751.5 223.5 c 0
 772 172 772 172 804 143.5 c 0
 836 115 836 115 880 115 c 0
 945 115 945 115 984 162 c 0
 1023 209 1023 209 1037 281 c 1
 1175 236 l 1
 1164 191 1164 191 1144 145.5 c 0
 1124 100 1124 100 1090 63.5 c 0
 1056 27 1056 27 1005 3.5 c 0
 954 -20 954 -20 882 -20 c 0
 700 -20 700 -20 619 163 c 1
 577 70 577 70 510.5 25 c 0
 444 -20 444 -20 353 -20 c 0
 278 -20 278 -20 218 14 c 0
 158 48 158 48 115.5 118 c 0
 73 188 73 188 50.5 293.5 c 0
 28 399 28 399 28 542 c 0
197 542 m 0
 197 416 197 416 210.5 333.5 c 0
 224 251 224 251 247 202 c 0
 270 153 270 153 301 133 c 0
 332 113 332 113 367 113 c 0
 407 113 407 113 439.5 132.5 c 0
 472 152 472 152 495 201 c 0
 518 250 518 250 530.5 333 c 0
 543 416 543 416 543 542 c 0
 543 668 543 668 531 750 c 0
 519 832 519 832 497 881 c 0
 475 930 475 930 443.5 949.5 c 0
 412 969 412 969 373 969 c 0
 334 969 334 969 301.5 948.5 c 0
 269 928 269 928 245.5 878.5 c 0
 222 829 222 829 209.5 747 c 0
 197 665 197 665 197 542 c 0
714 641 m 1
 1038 641 l 1
 1030 812 1030 812 990 890.5 c 0
 950 969 950 969 875 969 c 0
 850 969 850 969 822.5 954.5 c 0
 795 940 795 940 771.5 903 c 0
 748 866 748 866 732 802.5 c 0
 716 739 716 739 714 641 c 1
EndSplineSet
Validated: 1
EndChar

StartChar: Ydieresis
Encoding: 193 376 192
Width: 1229
VWidth: 1024
LayerCount: 2
Fore
SplineSet
36 1349 m 1
 241 1349 l 1
 615 738 l 1
 987 1349 l 1
 1192 1349 l 1
 708 584 l 1
 708 0 l 1
 520 0 l 1
 520 584 l 1
 36 1349 l 1
336 1445 m 1
 336 1629 l 1
 501 1629 l 1
 501 1445 l 1
 336 1445 l 1
730 1445 m 1
 730 1629 l 1
 893 1629 l 1
 893 1445 l 1
 730 1445 l 1
EndSplineSet
Validated: 1
EndChar

StartChar: circumflex
Encoding: 194 710 193
Width: 1229
VWidth: 1024
LayerCount: 2
Fore
SplineSet
283 1201 m 1
 283 1221 l 1
 537 1460 l 1
 701 1460 l 1
 945 1221 l 1
 945 1201 l 1
 840 1201 l 1
 621 1339 l 1
 619 1339 l 1
 387 1201 l 1
 283 1201 l 1
EndSplineSet
Validated: 1
EndChar

StartChar: tilde
Encoding: 195 732 194
Width: 1229
VWidth: 1024
LayerCount: 2
Fore
SplineSet
255 1201 m 1
 260 1246 260 1246 270 1290 c 0
 280 1334 280 1334 302.5 1369.5 c 0
 325 1405 325 1405 362 1427 c 0
 399 1449 399 1449 458 1449 c 0
 502 1449 502 1449 544 1430.5 c 0
 586 1412 586 1412 626 1389.5 c 0
 666 1367 666 1367 703 1348.5 c 0
 740 1330 740 1330 773 1330 c 0
 796 1330 796 1330 811 1338 c 0
 826 1346 826 1346 836 1361.5 c 0
 846 1377 846 1377 851 1399 c 0
 856 1421 856 1421 860 1449 c 1
 972 1449 l 1
 967 1405 967 1405 957 1361 c 0
 947 1317 947 1317 925.5 1281.5 c 0
 904 1246 904 1246 867 1223.5 c 0
 830 1201 830 1201 770 1201 c 0
 728 1201 728 1201 686 1219.5 c 0
 644 1238 644 1238 604 1260.5 c 0
 564 1283 564 1283 525.5 1301.5 c 0
 487 1320 487 1320 452 1320 c 0
 429 1320 429 1320 414.5 1312 c 0
 400 1304 400 1304 390.5 1289 c 0
 381 1274 381 1274 376 1252 c 0
 371 1230 371 1230 366 1201 c 1
 255 1201 l 1
EndSplineSet
Validated: 1
EndChar

StartChar: endash
Encoding: 207 8211 206
Width: 1229
VWidth: 1024
LayerCount: 2
Fore
SplineSet
170 451 m 1
 170 588 l 1
 1058 588 l 1
 1058 451 l 1
 170 451 l 1
EndSplineSet
Validated: 1
EndChar

StartChar: emdash
Encoding: 208 8212 207
Width: 1229
VWidth: 1024
LayerCount: 2
Fore
SplineSet
-10 451 m 1
 -10 588 l 1
 1238 588 l 1
 1238 451 l 1
 -10 451 l 1
EndSplineSet
Validated: 1
EndChar

StartChar: quoteleft
Encoding: 209 8216 208
Width: 1229
VWidth: 1024
LayerCount: 2
Fore
SplineSet
397 862 m 1
 708 1484 l 1
 831 1484 l 1
 662 862 l 1
 397 862 l 1
EndSplineSet
Validated: 1
EndChar

StartChar: quoteright
Encoding: 210 8217 209
Width: 1229
VWidth: 1024
LayerCount: 2
Fore
SplineSet
399 862 m 1
 568 1484 l 1
 833 1484 l 1
 522 862 l 1
 399 862 l 1
EndSplineSet
Validated: 1
EndChar

StartChar: quotesinglbase
Encoding: 211 8218 210
Width: 1229
VWidth: 1024
Flags: W
LayerCount: 2
Fore
SplineSet
349 -363 m 1
 518 259 l 1
 783 259 l 1
 472 -363 l 1
 349 -363 l 1
EndSplineSet
Validated: 1
EndChar

StartChar: quotedblleft
Encoding: 212 8220 211
Width: 1229
VWidth: 1024
LayerCount: 2
Fore
SplineSet
177 862 m 1
 488 1484 l 1
 611 1484 l 1
 442 862 l 1
 177 862 l 1
616 862 m 1
 927 1484 l 1
 1050 1484 l 1
 881 862 l 1
 616 862 l 1
EndSplineSet
Validated: 1
EndChar

StartChar: quotedblright
Encoding: 213 8221 212
Width: 1229
VWidth: 1024
LayerCount: 2
Fore
SplineSet
178 862 m 1
 347 1484 l 1
 612 1484 l 1
 301 862 l 1
 178 862 l 1
617 862 m 1
 786 1484 l 1
 1051 1484 l 1
 740 862 l 1
 617 862 l 1
EndSplineSet
Validated: 1
EndChar

StartChar: quotedblbase
Encoding: 214 8222 213
Width: 1229
VWidth: 1024
LayerCount: 2
Fore
SplineSet
178 -364 m 1
 347 258 l 1
 612 258 l 1
 301 -364 l 1
 178 -364 l 1
617 -364 m 1
 786 258 l 1
 1051 258 l 1
 740 -364 l 1
 617 -364 l 1
EndSplineSet
Validated: 1
EndChar

StartChar: bullet
Encoding: 215 8226 214
Width: 1229
VWidth: 1024
LayerCount: 2
Fore
SplineSet
336 682 m 0
 336 739 336 739 357.5 789 c 0
 379 839 379 839 416.5 876 c 0
 454 913 454 913 503.5 934.5 c 0
 553 956 553 956 610 956 c 0
 668 956 668 956 719 934.5 c 0
 770 913 770 913 808.5 876 c 0
 847 839 847 839 869 789 c 0
 891 739 891 739 891 682 c 0
 891 624 891 624 869 573 c 0
 847 522 847 522 808.5 484 c 0
 770 446 770 446 719 423.5 c 0
 668 401 668 401 610 401 c 0
 553 401 553 401 503.5 423.5 c 0
 454 446 454 446 416.5 484 c 0
 379 522 379 522 357.5 573 c 0
 336 624 336 624 336 682 c 0
EndSplineSet
Validated: 1
EndChar

StartChar: ellipsis
Encoding: 216 8230 215
Width: 1229
VWidth: 1024
LayerCount: 2
Fore
SplineSet
117 0 m 1
 117 219 l 1
 292 219 l 1
 292 0 l 1
 117 0 l 1
529 0 m 1
 529 219 l 1
 701 219 l 1
 701 0 l 1
 529 0 l 1
938 0 m 1
 938 219 l 1
 1112 219 l 1
 1112 0 l 1
 938 0 l 1
EndSplineSet
Validated: 1
EndChar

StartChar: guilsinglleft
Encoding: 218 8249 217
Width: 1229
VWidth: 1024
LayerCount: 2
Fore
SplineSet
346 506 m 1
 346 569 l 1
 682 940 l 1
 859 940 l 1
 859 909 l 1
 524 537 l 1
 861 170 l 1
 861 141 l 1
 682 141 l 1
 346 506 l 1
EndSplineSet
Validated: 1
EndChar

StartChar: guilsinglright
Encoding: 219 8250 218
Width: 1229
VWidth: 1024
LayerCount: 2
Fore
SplineSet
366 141 m 1
 366 170 l 1
 704 537 l 1
 368 909 l 1
 368 940 l 1
 544 940 l 1
 881 569 l 1
 881 506 l 1
 544 141 l 1
 366 141 l 1
EndSplineSet
Validated: 1
EndChar

StartChar: Euro
Encoding: 221 8364 220
Width: 1229
VWidth: 1024
LayerCount: 2
Fore
SplineSet
91 460 m 1
 91 604 l 1
 210 604 l 1
 208 627 208 627 207 644 c 0
 206 661 206 661 206 679 c 0
 206 705 206 705 207 722.5 c 0
 208 740 208 740 210 758 c 1
 91 758 l 1
 91 900 l 1
 220 900 l 1
 249 1134 249 1134 374.5 1252 c 0
 500 1370 500 1370 729 1370 c 0
 785 1370 785 1370 835 1363 c 0
 885 1356 885 1356 931.5 1342 c 0
 978 1328 978 1328 1021.5 1306 c 0
 1065 1284 1065 1284 1108 1254 c 1
 1026 1114 l 1
 968 1156 968 1156 899 1185 c 0
 830 1214 830 1214 744 1214 c 0
 671 1214 671 1214 614 1200 c 0
 557 1186 557 1186 515.5 1150.5 c 0
 474 1115 474 1115 448.5 1054 c 0
 423 993 423 993 412 898 c 1
 873 898 l 1
 873 757 l 1
 398 757 l 1
 397 743 397 743 396.5 721.5 c 0
 396 700 396 700 396 679 c 0
 396 637 396 637 399 605 c 1
 873 605 l 1
 873 463 l 1
 414 463 l 1
 422 384 422 384 443 323 c 0
 464 262 464 262 502.5 220 c 0
 541 178 541 178 599 156.5 c 0
 657 135 657 135 737 135 c 0
 789 135 789 135 832.5 144 c 0
 876 153 876 153 913.5 168 c 0
 951 183 951 183 984 201.5 c 0
 1017 220 1017 220 1047 239 c 1
 1123 104 l 1
 1081 76 1081 76 1037 53 c 0
 993 30 993 30 945 14 c 0
 897 -2 897 -2 843 -11 c 0
 789 -20 789 -20 727 -20 c 0
 607 -20 607 -20 518 14 c 0
 429 48 429 48 367.5 110.5 c 0
 306 173 306 173 270.5 262 c 0
 235 351 235 351 222 460 c 1
 91 460 l 1
EndSplineSet
Validated: 1
EndChar

StartChar: trademark
Encoding: 222 8482 221
Width: 1229
VWidth: 1024
LayerCount: 2
Fore
SplineSet
4 1391 m 1
 4 1483 l 1
 461 1483 l 1
 461 1391 l 1
 286 1391 l 1
 286 842 l 1
 175 842 l 1
 175 1391 l 1
 4 1391 l 1
519 842 m 1
 519 1483 l 1
 675 1483 l 1
 859 1018 l 2
 861 1015 861 1015 863 1009.5 c 0
 865 1004 865 1004 867 998 c 0
 870 991 870 991 872 983 c 1
 889 1025 889 1025 902 1059 c 0
 908 1074 908 1074 913 1088 c 0
 918 1102 918 1102 922.5 1113 c 0
 927 1124 927 1124 930 1132 c 0
 933 1140 933 1140 933 1141 c 2
 1072 1483 l 1
 1224 1483 l 1
 1224 842 l 1
 1119 842 l 1
 1119 1194 l 1
 1119 1354 l 1
 1117 1345 1117 1345 1113 1336 c 0
 1110 1328 1110 1328 1107.5 1321 c 0
 1105 1314 1105 1314 1103 1309 c 2
 913 842 l 1
 824 842 l 1
 689 1184 l 2
 687 1188 687 1188 677 1215 c 0
 667 1242 667 1242 655 1273 c 0
 641 1309 641 1309 624 1354 c 1
 624 1311 l 1
 624 842 l 1
 519 842 l 1
EndSplineSet
Validated: 1
EndChar

StartChar: uni25FC
Encoding: 223 9724 222
Width: 1080
VWidth: 1024
Flags: W
LayerCount: 2
Fore
SplineSet
0 0 m 1
 0 1080 l 1
 1080 1080 l 1
 1080 0 l 1
 0 0 l 1
EndSplineSet
Validated: 1
EndChar

StartChar: uniFB01
Encoding: 224 64257 223
Width: 1229
VWidth: 1024
LayerCount: 2
Fore
SplineSet
84 951 m 1
 84 1082 l 1
 236 1082 l 1
 236 1204 l 2
 236 1263 236 1263 247 1313.5 c 0
 258 1364 258 1364 287.5 1401.5 c 0
 317 1439 317 1439 368 1460.5 c 0
 419 1482 419 1482 500 1482 c 0
 532 1482 532 1482 566.5 1479 c 0
 601 1476 601 1476 627 1470 c 1
 627 1333 l 1
 610 1336 610 1336 587.5 1338.5 c 0
 565 1341 565 1341 547 1341 c 0
 507 1341 507 1341 481.5 1330 c 0
 456 1319 456 1319 441.5 1298.5 c 0
 427 1278 427 1278 421.5 1248 c 0
 416 1218 416 1218 416 1179 c 2
 416 1082 l 1
 627 1082 l 1
 627 951 l 1
 416 951 l 1
 416 0 l 1
 236 0 l 1
 236 951 l 1
 84 951 l 1
881 0 m 1
 881 1082 l 1
 1061 1082 l 1
 1061 0 l 1
 881 0 l 1
881 1312 m 1
 881 1484 l 1
 1061 1484 l 1
 1061 1312 l 1
 881 1312 l 1
EndSplineSet
Validated: 1
EndChar

StartChar: uniFB02
Encoding: 225 64258 224
Width: 1229
VWidth: 1024
LayerCount: 2
Fore
SplineSet
84 951 m 1
 84 1082 l 1
 236 1082 l 1
 236 1204 l 2
 236 1263 236 1263 247 1313.5 c 0
 258 1364 258 1364 287.5 1401.5 c 0
 317 1439 317 1439 368 1460.5 c 0
 419 1482 419 1482 500 1482 c 0
 532 1482 532 1482 566.5 1479 c 0
 601 1476 601 1476 627 1470 c 1
 627 1333 l 1
 610 1336 610 1336 587.5 1338.5 c 0
 565 1341 565 1341 547 1341 c 0
 507 1341 507 1341 481.5 1330 c 0
 456 1319 456 1319 441.5 1298.5 c 0
 427 1278 427 1278 421.5 1248 c 0
 416 1218 416 1218 416 1179 c 2
 416 1082 l 1
 627 1082 l 1
 627 951 l 1
 416 951 l 1
 416 0 l 1
 236 0 l 1
 236 951 l 1
 84 951 l 1
881 0 m 1
 881 1484 l 1
 1061 1484 l 1
 1061 0 l 1
 881 0 l 1
EndSplineSet
Validated: 1
EndChar

StartChar: x0
Encoding: 226 -1 225
Width: 1229
VWidth: 1024
Flags: W
LayerCount: 2
Fore
SplineSet
273 145 m 1
 1170 145 l 1
 1170 0 l 1
 57 0 l 1
 57 145 l 1
 92 145 l 1
 273 145 l 1
EndSplineSet
Validated: 1
EndChar

StartChar: x1
Encoding: 227 -1 226
Width: 1229
VWidth: 1024
Flags: W
LayerCount: 2
Fore
SplineSet
57 145 m 1
 57 0 l 1
 1170 0 l 1
 1170 145 l 1
 1169.5273 145 l 1
 1183.4785 1410.1816 l 1
 1000.8926 1410.1816 l 1
 1000.8926 145 l 1
 866.30859 145 l 1
 683.72461 145 l 1
 554.40234 145 l 1
 371.81641 145 l 1
 273 145 l 1
 57 145 l 1
EndSplineSet
Validated: 524297
EndChar

StartChar: x2
Encoding: 228 -1 227
Width: 1229
VWidth: 1024
LayerCount: 2
Fore
SplineSet
57 145 m 1
 57 0 l 1
 1170 0 l 1
 1170 145 l 1
 1169.5273 145 l 1
 1000.8926 145 l 1
 866.30859 145 l 1
 866.30859 1486.6133 l 1
 683.72461 1486.6133 l 1
 683.72461 145 l 1
 554.40234 145 l 1
 371.81641 145 l 1
 273 145 l 1
 57 145 l 1
EndSplineSet
Validated: 524297
EndChar

StartChar: x3
Encoding: 229 -1 228
Width: 1229
VWidth: 1024
LayerCount: 2
Fore
SplineSet
57 145 m 1
 57 0 l 1
 1170 0 l 1
 1170 145 l 1
 1169.5273 145 l 1
 1183.4785 1410.1816 l 1
 1000.8926 1410.1816 l 1
 1000.8926 145 l 1
 866.30859 145 l 1
 866.30859 1486.6133 l 1
 683.72461 1486.6133 l 1
 683.72461 145 l 1
 554.40234 145 l 1
 371.81641 145 l 1
 273 145 l 1
 57 145 l 1
EndSplineSet
Validated: 524297
EndChar

StartChar: x4
Encoding: 230 -1 229
Width: 1229
VWidth: 1024
LayerCount: 2
Fore
SplineSet
57 145 m 1
 57 0 l 1
 1170 0 l 1
 1170 145 l 1
 1169.5273 145 l 1
 1000.8926 145 l 1
 866.30859 145 l 1
 683.72461 145 l 1
 554.40234 145 l 1
 554.40234 1560.3184 l 1
 371.81641 1560.3184 l 1
 371.81641 145 l 1
 273 145 l 1
 57 145 l 1
EndSplineSet
Validated: 524297
EndChar

StartChar: x5
Encoding: 231 -1 230
Width: 1229
VWidth: 1024
LayerCount: 2
Fore
SplineSet
57 145 m 1
 57 0 l 1
 1170 0 l 1
 1170 145 l 1
 1169.5273 145 l 1
 1183.4785 1410.1816 l 1
 1000.8926 1410.1816 l 1
 1000.8926 145 l 1
 866.30859 145 l 1
 683.72461 145 l 1
 554.40234 145 l 1
 554.40234 1560.3184 l 1
 371.81641 1560.3184 l 1
 371.81641 145 l 1
 273 145 l 1
 57 145 l 1
EndSplineSet
Validated: 524297
EndChar

StartChar: x6
Encoding: 232 -1 231
Width: 1229
VWidth: 1024
LayerCount: 2
Fore
SplineSet
57 145 m 1
 57 0 l 1
 1170 0 l 1
 1170 145 l 1
 1169.5273 145 l 1
 1000.8926 145 l 1
 866.30859 145 l 1
 866.30859 1486.6133 l 1
 683.72461 1486.6133 l 1
 683.72461 145 l 1
 554.40234 145 l 1
 554.40234 1560.3184 l 1
 371.81641 1560.3184 l 1
 371.81641 145 l 1
 273 145 l 1
 57 145 l 1
EndSplineSet
Validated: 524297
EndChar

StartChar: x7
Encoding: 233 -1 232
Width: 1229
VWidth: 1024
LayerCount: 2
Fore
SplineSet
57 145 m 1
 57 0 l 1
 1170 0 l 1
 1170 145 l 1
 1169.5273 145 l 1
 1183.4785 1410.1816 l 1
 1000.8926 1410.1816 l 1
 1000.8926 145 l 1
 866.30859 145 l 1
 866.30859 1486.6133 l 1
 683.72461 1486.6133 l 1
 683.72461 145 l 1
 554.40234 145 l 1
 554.40234 1560.3184 l 1
 371.81641 1560.3184 l 1
 371.81641 145 l 1
 273 145 l 1
 57 145 l 1
EndSplineSet
Validated: 524297
EndChar

StartChar: x8
Encoding: 234 -1 233
Width: 1229
VWidth: 1024
LayerCount: 2
Fore
SplineSet
57.042969 1634.7207 m 1
 57 145 l 1
 57 0 l 1
 1170 0 l 1
 1170 145 l 1
 1169.5273 145 l 1
 1000.8926 145 l 1
 866.30859 145 l 1
 683.72461 145 l 1
 554.40234 145 l 1
 371.81641 145 l 1
 273 145 l 1
 273 1633 l 1
 57.042969 1634.7207 l 1
EndSplineSet
Validated: 524297
EndChar

StartChar: x9
Encoding: 235 -1 234
Width: 1229
VWidth: 1024
LayerCount: 2
Fore
SplineSet
57.042969 1634.7207 m 1
 57 145 l 1
 57 0 l 1
 1170 0 l 1
 1170 145 l 1
 1169.5273 145 l 1
 1183.4785 1410.1816 l 1
 1000.8926 1410.1816 l 1
 1000.8926 145 l 1
 866.30859 145 l 1
 683.72461 145 l 1
 554.40234 145 l 1
 371.81641 145 l 1
 273 145 l 1
 273 1633 l 1
 57.042969 1634.7207 l 1
EndSplineSet
Validated: 524297
EndChar

StartChar: xA
Encoding: 236 -1 235
Width: 1229
VWidth: 1024
Flags: W
LayerCount: 2
Fore
SplineSet
57.042969 1634.7207 m 5,0,-1
 57 145 l 1,1,-1
 57 0 l 1,2,-1
 1170 0 l 1,3,-1
 1170 145 l 1,4,-1
 1169.5273 145 l 1,5,-1
 1000.8926 145 l 1,6,-1
 866.30859 145 l 1,7,-1
 866.30859 1486.6133 l 1,8,-1
 683.72461 1486.6133 l 1,9,-1
 683.72461 145 l 1,10,-1
 554.40234 145 l 1,11,-1
 554.40234375 145.318359375 l 1,12,-1
 371.81640625 145.318359375 l 1,13,-1
 371.81641 145 l 1,14,-1
 273 145 l 1,15,-1
 273 1633 l 1,16,-1
 57.042969 1634.7207 l 5,0,-1
EndSplineSet
Validated: 524297
EndChar

StartChar: xB
Encoding: 237 -1 236
Width: 1229
VWidth: 1024
LayerCount: 2
Fore
SplineSet
57.042969 1634.7207 m 1
 57 145 l 1
 57 0 l 1
 1170 0 l 1
 1170 145 l 1
 1169.5273 145 l 1
 1183.4785 1410.1816 l 1
 1000.8926 1410.1816 l 1
 1000.8926 145 l 1
 866.30859 145 l 1
 866.30859 1486.6133 l 1
 683.72461 1486.6133 l 1
 683.72461 145 l 1
 554.40234 145 l 1
 371.81641 145 l 1
 273 145 l 1
 273 1633 l 1
 57.042969 1634.7207 l 1
EndSplineSet
Validated: 524297
EndChar

StartChar: xC
Encoding: 238 -1 237
Width: 1229
VWidth: 1024
LayerCount: 2
Fore
SplineSet
57.042969 1634.7207 m 1
 57 145 l 1
 57 0 l 1
 1170 0 l 1
 1170 145 l 1
 1169.5273 145 l 1
 1000.8926 145 l 1
 866.30859 145 l 1
 683.72461 145 l 1
 554.40234 145 l 1
 554.40234 1560.3184 l 1
 371.81641 1560.3184 l 1
 371.81641 145 l 1
 273 145 l 1
 273 1633 l 1
 57.042969 1634.7207 l 1
EndSplineSet
Validated: 524297
EndChar

StartChar: xD
Encoding: 239 -1 238
Width: 1229
VWidth: 1024
LayerCount: 2
Fore
SplineSet
57.042969 1634.7207 m 1
 57 145 l 1
 57 0 l 1
 1170 0 l 1
 1170 145 l 1
 1169.5273 145 l 1
 1183.4785 1410.1816 l 1
 1000.8926 1410.1816 l 1
 1000.8926 145 l 1
 866.30859 145 l 1
 683.72461 145 l 1
 554.40234 145 l 1
 554.40234 1560.3184 l 1
 371.81641 1560.3184 l 1
 371.81641 145 l 1
 273 145 l 1
 273 1633 l 1
 57.042969 1634.7207 l 1
EndSplineSet
Validated: 524297
EndChar

StartChar: xE
Encoding: 240 -1 239
Width: 1229
VWidth: 1024
LayerCount: 2
Fore
SplineSet
57.042969 1634.7207 m 1
 57 145 l 1
 57 0 l 1
 1170 0 l 1
 1170 145 l 1
 1169.5273 145 l 1
 1000.8926 145 l 1
 866.30859 145 l 1
 866.30859 1486.6133 l 1
 683.72461 1486.6133 l 1
 683.72461 145 l 1
 554.40234 145 l 1
 554.40234 1560.3184 l 1
 371.81641 1560.3184 l 1
 371.81641 145 l 1
 273 145 l 1
 273 1633 l 1
 57.042969 1634.7207 l 1
EndSplineSet
Validated: 524297
EndChar

StartChar: xF
Encoding: 241 -1 240
Width: 1229
VWidth: 1024
Flags: W
LayerCount: 2
Fore
SplineSet
58.04296875 1634.72070312 m 5,0,-1
 58 145 l 1,1,-1
 58 0 l 1,2,-1
 1171 0 l 1,3,-1
 1171 145 l 1,4,-1
 1170.52734375 145 l 1,5,-1
 1184.47851562 1410.18164062 l 1,6,-1
 1001.89257812 1410.18164062 l 1,7,-1
 1001.89257812 145 l 1,8,-1
 867.30859375 145 l 1,9,-1
 867.30859375 1486.61328125 l 1,10,-1
 684.724609375 1486.61328125 l 1,11,-1
 684.724609375 145 l 1,12,-1
 555.40234375 145 l 1,13,-1
 555.40234375 1560.31835938 l 1,14,-1
 372.81640625 1560.31835938 l 1,15,-1
 372.81640625 145 l 1,16,-1
 274 145 l 1,17,-1
 274 1633 l 1,18,-1
 58.04296875 1634.72070312 l 5,0,-1
EndSplineSet
Validated: 524297
EndChar

StartChar: xx1
Encoding: 242 -1 241
Width: 307
VWidth: 1024
Flags: WO
LayerCount: 2
Fore
SplineSet
-188 145 m 1,0,-1
 -188 0 l 1,1,-1
 226 0 l 1,2,-1
 226 79 l 1,3,-1
 226.52734375 145 l 1,4,-1
 240.478515625 1640.18164062 l 1,5,-1
 57.892578125 1640.18164062 l 1,6,-1
 57.892578125 145 l 1,7,-1
 -188 145 l 1,0,-1
EndSplineSet
EndChar

StartChar: xx0
Encoding: 243 -1 242
Width: 307
VWidth: 1024
Flags: W
LayerCount: 2
Fore
SplineSet
-188 145 m 1,0,-1
 -188 0 l 1,1,-1
 227 0 l 1,2,-1
 227 145 l 1,3,-1
 226.52734375 145 l 1,4,-1
 240.478515625 497 l 5,5,-1
 57.892578125 497 l 5,6,-1
 57.892578125 145 l 1,7,-1
 -188 145 l 1,0,-1
EndSplineSet
Validated: 524297
EndChar

StartChar: xxx1
Encoding: 244 -1 243
Width: 307
VWidth: 1024
Flags: W
LayerCount: 2
Fore
SplineSet
58 145 m 1,0,-1
 58 0 l 1,1,-1
 227 0 l 1,2,-1
 227 145 l 1,3,-1
 226.52734375 145 l 1,4,-1
 240.478515625 1640.18164062 l 1,5,-1
 57.892578125 1640.18164062 l 1,6,-1
 57.892578125 145 l 1,7,-1
 58 145 l 1,0,-1
EndSplineSet
Validated: 524297
EndChar

StartChar: xxx0
Encoding: 245 -1 244
Width: 307
VWidth: 1024
Flags: W
LayerCount: 2
Fore
SplineSet
58 145 m 5,0,-1
 58 0 l 5,1,-1
 227 0 l 1,2,-1
 227 145 l 1,3,-1
 226.52734375 145 l 1,4,-1
 240.478515625 497 l 1,5,-1
 57.892578125 497 l 1,6,-1
 57.892578125 145 l 1,7,-1
 58 145 l 5,0,-1
EndSplineSet
Validated: 524297
EndChar

StartChar: hyphen
Encoding: 247 45 246
Width: 1229
VWidth: 1024
Flags: W
LayerCount: 2
Fore
SplineSet
116 608 m 1,0,-1
 116 754 l 1,1,-1
 540 754 l 1,2,-1
 540 754 l 1,3,-1
 687 754 l 1,4,-1
 687 754 l 1,5,-1
 1111 754 l 1,6,-1
 1111 608 l 1,7,-1
 687 608 l 1,8,-1
 687 608 l 5,9,-1
 540 608 l 5,10,-1
 540 608 l 1,11,-1
 116 608 l 1,0,-1
EndSplineSet
Validated: 1
EndChar

